SplineFontDB: 3.0
FontName: Andada-Bold
FullName: Andada Bold
FamilyName: Andada
Weight: Bold
Copyright: Copyright (c) 2011-2012, Carolina Giovagnoli (huertatipografica.com.ar), with Reserved Font Name 'Andada'
Version: 1.003
ItalicAngle: 0
UnderlinePosition: -50
UnderlineWidth: 50
Ascent: 800
Descent: 200
sfntRevision: 0x000100c5
LayerCount: 2
Layer: 0 1 "Back"  1
Layer: 1 1 "Fore"  0
XUID: [1021 787 1438885897 10870169]
FSType: 0
OS2Version: 3
OS2_WeightWidthSlopeOnly: 0
OS2_UseTypoMetrics: 1
CreationTime: 1337959620
ModificationTime: 1352838792
PfmFamily: 17
TTFWeight: 700
TTFWidth: 5
LineGap: 0
VLineGap: 0
Panose: 2 0 0 0 0 0 0 0 0 0
OS2TypoAscent: 1039
OS2TypoAOffset: 0
OS2TypoDescent: -280
OS2TypoDOffset: 0
OS2TypoLinegap: 0
OS2WinAscent: 1039
OS2WinAOffset: 0
OS2WinDescent: 280
OS2WinDOffset: 0
HheadAscent: 1039
HheadAOffset: 0
HheadDescent: -280
HheadDOffset: 0
OS2SubXSize: 650
OS2SubYSize: 600
OS2SubXOff: 0
OS2SubYOff: 75
OS2SupXSize: 650
OS2SupYSize: 600
OS2SupXOff: 0
OS2SupYOff: 350
OS2StrikeYSize: 50
OS2StrikeYPos: 296
OS2Vendor: 'pyrs'
OS2CodePages: 20000193.00000000
OS2UnicodeRanges: a000006f.4000204b.00000000.00000000
Lookup: 1 0 0 "'locl' Localized Forms in Latin lookup 0"  {"'locl' Localized Forms in Latin lookup 0 subtable"  } ['locl' ('latn' <'ROM ' > ) ]
Lookup: 1 0 0 "'locl' Localized Forms in Latin lookup 1"  {"'locl' Localized Forms in Latin lookup 1 subtable"  } ['locl' ('latn' <'GUA ' > ) ]
Lookup: 1 0 0 "'locl' Localized Forms in Latin lookup 2"  {"'locl' Localized Forms in Latin lookup 2 subtable"  } ['locl' ('latn' <'ESP ' > ) ]
Lookup: 1 0 0 "'case' Case-Sensitive Forms in Latin lookup 3"  {"'case' Case-Sensitive Forms in Latin lookup 3 subtable"  } ['case' ('DFLT' <'dflt' > 'latn' <'ESP ' 'GUA ' 'dflt' > ) ]
Lookup: 1 0 0 "'sinf' Scientific Inferiors in Latin lookup 4"  {"'sinf' Scientific Inferiors in Latin lookup 4 subtable"  } ['sinf' ('DFLT' <'dflt' > 'latn' <'ESP ' 'GUA ' 'dflt' > ) ]

StartChar: exclam
Encoding: 33 33 4
Width: 239
GlyphClass: 2
Flags: W
LayerCount: 2
Fore
SplineSet
191 241 m 1,0,-1
 174 225 l 1,1,2
 144 230 144 230 72 230 c 1,3,4
 73 266 73 266 73 296 c 2,5,-1
 64 712 l 1,6,-1
 184 721 l 1,7,-1
 213 693 l 1,8,9
 188 475 188 475 188 318 c 1,10,-1
 191 241 l 1,0,-1
129 144 m 128,-1,12
 164 144 164 144 183.5 122.5 c 128,-1,13
 203 101 203 101 203 64.5 c 128,-1,14
 203 28 203 28 183.5 6.5 c 128,-1,15
 164 -15 164 -15 129 -15 c 128,-1,16
 94 -15 94 -15 74.5 6.5 c 128,-1,17
 55 28 55 28 55 64 c 128,-1,18
 55 100 55 100 74.5 122 c 128,-1,11
 94 144 94 144 129 144 c 128,-1,12
EndSplineSet
EndChar

StartChar: quotedbl
Encoding: 34 34 5
Width: 359
GlyphClass: 2
Flags: W
LayerCount: 2
Fore
SplineSet
40 756 m 1,0,-1
 159 756 l 1,1,-1
 146 512 l 1,2,-1
 58 517 l 1,3,-1
 59 610 l 1,4,-1
 40 756 l 1,0,-1
200 756 m 1,5,-1
 319 756 l 1,6,-1
 306 512 l 1,7,-1
 218 517 l 1,8,-1
 219 610 l 1,9,-1
 200 756 l 1,5,-1
EndSplineSet
EndChar

StartChar: numbersign
Encoding: 35 35 6
Width: 570
GlyphClass: 2
Flags: W
LayerCount: 2
Fore
SplineSet
527 140 m 1,0,-1
 392 140 l 1,1,-1
 368 -15 l 1,2,-1
 288 -5 l 1,3,-1
 311 140 l 1,4,-1
 220 140 l 1,5,-1
 196 -15 l 1,6,-1
 116 -5 l 1,7,-1
 139 140 l 1,8,-1
 32 140 l 1,9,-1
 32 226 l 1,10,-1
 152 227 l 1,11,-1
 168 328 l 1,12,-1
 52 327 l 1,13,-1
 52 418 l 1,14,-1
 182 418 l 1,15,-1
 207 572 l 1,16,-1
 287 562 l 1,17,-1
 264 418 l 1,18,-1
 355 418 l 1,19,-1
 379 572 l 1,20,-1
 459 562 l 1,21,-1
 436 418 l 1,22,-1
 547 418 l 1,23,-1
 547 332 l 1,24,-1
 422 331 l 1,25,-1
 406 230 l 1,26,-1
 527 231 l 1,27,-1
 527 140 l 1,0,-1
250 329 m 1,28,-1
 234 228 l 1,29,-1
 325 229 l 1,30,-1
 341 330 l 1,31,-1
 250 329 l 1,28,-1
EndSplineSet
EndChar

StartChar: dollar
Encoding: 36 36 7
Width: 542
GlyphClass: 2
Flags: W
LayerCount: 2
Fore
SplineSet
316 95.5 m 128,-1,1
 342 113 342 113 342 146 c 128,-1,2
 342 179 342 179 320 203.5 c 128,-1,3
 298 228 298 228 265 244 c 128,-1,4
 232 260 232 260 193.5 282.5 c 128,-1,5
 155 305 155 305 122 328.5 c 128,-1,6
 89 352 89 352 67 394.5 c 128,-1,7
 45 437 45 437 45 492 c 0,8,9
 45 573 45 573 103.5 619 c 128,-1,10
 162 665 162 665 256 667 c 1,11,-1
 260 759 l 1,12,-1
 324 756 l 1,13,-1
 320 664 l 1,14,15
 376 659 376 659 472 636 c 1,16,-1
 459 484 l 1,17,-1
 386 488 l 1,18,-1
 386 542 l 2,19,20
 386 543 386 543 384 553 c 1,21,22
 354 580 354 580 304 580 c 128,-1,23
 254 580 254 580 229.5 561.5 c 128,-1,24
 205 543 205 543 205 511 c 128,-1,25
 205 479 205 479 235.5 453.5 c 128,-1,26
 266 428 266 428 310 407 c 128,-1,27
 354 386 354 386 398 360 c 128,-1,28
 442 334 442 334 472.5 288.5 c 128,-1,29
 503 243 503 243 503 181 c 0,30,31
 503 96 503 96 444.5 45 c 128,-1,32
 386 -6 386 -6 293 -14 c 1,33,-1
 290 -92 l 1,34,-1
 225 -89 l 1,35,-1
 228 -13 l 1,36,37
 178 -10 178 -10 132 2 c 128,-1,38
 86 14 86 14 65 24 c 2,39,-1
 44 34 l 1,40,-1
 59 192 l 1,41,-1
 130 187 l 1,42,43
 130 153 130 153 131 143 c 1,44,45
 129 136 129 136 137 104 c 1,46,47
 170 78 170 78 252 78 c 0,48,0
 290 78 290 78 316 95.5 c 128,-1,1
EndSplineSet
EndChar

StartChar: percent
Encoding: 37 37 8
Width: 898
GlyphClass: 2
Flags: W
LayerCount: 2
Fore
SplineSet
553.5 49 m 128,-1,1
 509 106 509 106 509 194.5 c 128,-1,2
 509 283 509 283 553.5 340 c 128,-1,3
 598 397 598 397 691 397 c 128,-1,4
 784 397 784 397 828.5 340 c 128,-1,5
 873 283 873 283 873 194.5 c 128,-1,6
 873 106 873 106 828.5 49 c 128,-1,7
 784 -8 784 -8 691 -8 c 128,-1,0
 598 -8 598 -8 553.5 49 c 128,-1,1
691 61 m 128,-1,9
 757 61 757 61 757 194.5 c 128,-1,10
 757 328 757 328 691 328 c 128,-1,11
 625 328 625 328 625 194.5 c 128,-1,8
 625 61 625 61 691 61 c 128,-1,9
18 516 m 128,-1,13
 18 602 18 602 61 657 c 128,-1,14
 104 712 104 712 192 712 c 128,-1,15
 280 712 280 712 323 657 c 128,-1,16
 366 602 366 602 366 516 c 128,-1,17
 366 430 366 430 323 374.5 c 128,-1,18
 280 319 280 319 192 319 c 128,-1,19
 104 319 104 319 61 374.5 c 128,-1,12
 18 430 18 430 18 516 c 128,-1,13
255 516 m 128,-1,21
 255 646 255 646 192.5 646 c 128,-1,22
 130 646 130 646 130 516 c 128,-1,23
 130 386 130 386 192.5 386 c 128,-1,20
 255 386 255 386 255 516 c 128,-1,21
592 720 m 1,24,-1
 662 675 l 1,25,-1
 238 -49 l 1,26,-1
 167 -4 l 1,27,-1
 592 720 l 1,24,-1
EndSplineSet
EndChar

StartChar: ampersand
Encoding: 38 38 9
Width: 758
GlyphClass: 2
Flags: W
LayerCount: 2
Fore
SplineSet
330 569 m 0,0,1
 270 569 270 569 270 510 c 0,2,3
 270 460 270 460 319.5 401.5 c 128,-1,4
 369 343 369 343 503 226 c 1,5,6
 509 247 509 247 509 260.5 c 128,-1,7
 509 274 509 274 505 330 c 1,8,-1
 456 336 l 1,9,-1
 461 407 l 1,10,11
 526 402 526 402 581 402 c 1,12,-1
 679 407 l 1,13,-1
 684 336 l 1,14,-1
 619 330 l 1,15,-1
 613 267 l 2,16,17
 607 206 607 206 583 156 c 1,18,-1
 609 134 l 2,19,20
 630 115 630 115 682 75 c 1,21,-1
 733 71 l 1,22,-1
 728 -5 l 1,23,24
 656 0 656 0 543 0 c 2,25,-1
 527 0 l 1,26,27
 526 1 526 1 486 44 c 1,28,29
 404 -10 404 -10 289 -10 c 128,-1,30
 174 -10 174 -10 107 35.5 c 128,-1,31
 40 81 40 81 40 174 c 0,32,33
 40 289 40 289 160 361 c 1,34,35
 102 437 102 437 102 509 c 128,-1,36
 102 581 102 581 163.5 621.5 c 128,-1,37
 225 662 225 662 310 662 c 128,-1,38
 395 662 395 662 482 631 c 1,39,-1
 470 474 l 1,40,-1
 405 478 l 1,41,-1
 405 521 l 1,42,-1
 391 560 l 1,43,44
 351 569 351 569 330 569 c 0,0,1
237 274 m 1,45,46
 203 234 203 234 203 188.5 c 128,-1,47
 203 143 203 143 237 119 c 128,-1,48
 271 95 271 95 319 95 c 128,-1,49
 367 95 367 95 410 117 c 1,50,51
 256 255 256 255 237 274 c 1,45,46
EndSplineSet
Substitution2: "'case' Case-Sensitive Forms in Latin lookup 3 subtable" ampersand
Position2: "'cpsp' Capital Spacing in Latin lookup 0 subtable" dx=9 dy=0 dh=18 dv=0
EndChar

StartChar: quotesingle
Encoding: 39 39 10
Width: 199
GlyphClass: 2
Flags: W
LayerCount: 2
Fore
SplineSet
40 756 m 1,0,-1
 159 756 l 1,1,-1
 146 512 l 1,2,-1
 58 517 l 1,3,-1
 59 610 l 1,4,-1
 40 756 l 1,0,-1
EndSplineSet
Substitution2: "'locl' Localized Forms in Latin lookup 2 subtable" puso
Substitution2: "'locl' Localized Forms in Latin lookup 1 subtable" puso
EndChar

StartChar: parenleft
Encoding: 40 40 11
Width: 318
GlyphClass: 2
Flags: W
LayerCount: 2
Fore
SplineSet
167 317 m 128,-1,1
 167 162 167 162 224 10 c 0,2,3
 229 -6 229 -6 274 -70 c 1,4,-1
 288 -91 l 1,5,-1
 234 -135 l 1,6,7
 40 45 40 45 40 317 c 128,-1,8
 40 589 40 589 234 769 c 1,9,-1
 288 725 l 1,10,11
 231 644 231 644 224 624 c 0,12,0
 167 472 167 472 167 317 c 128,-1,1
EndSplineSet
EndChar

StartChar: parenright
Encoding: 41 41 12
Width: 318
GlyphClass: 2
Flags: W
LayerCount: 2
Fore
SplineSet
151 317 m 128,-1,1
 151 472 151 472 94 624 c 0,2,3
 89 640 89 640 44 704 c 1,4,-1
 30 725 l 1,5,-1
 84 769 l 1,6,7
 278 589 278 589 278 317 c 128,-1,8
 278 45 278 45 84 -135 c 1,9,-1
 30 -91 l 1,10,11
 87 -10 87 -10 94 10 c 0,12,0
 151 162 151 162 151 317 c 128,-1,1
EndSplineSet
EndChar

StartChar: asterisk
Encoding: 42 42 13
Width: 409
GlyphClass: 2
Flags: W
LayerCount: 2
Fore
SplineSet
159 646 m 1,0,1
 164 681 164 681 164 685 c 2,2,-1
 164 738 l 1,3,-1
 237 746 l 1,4,-1
 247 648 l 1,5,6
 261 654 261 654 272 658 c 128,-1,7
 283 662 283 662 284 663 c 2,8,-1
 329 689 l 1,9,-1
 372 630 l 1,10,-1
 292 572 l 1,11,12
 312 556 312 556 324 548 c 2,13,-1
 369 522 l 1,14,-1
 339 455 l 1,15,-1
 249 495 l 1,16,17
 244 463 244 463 244 456 c 2,18,-1
 244 404 l 1,19,-1
 171 396 l 1,20,-1
 161 494 l 1,21,22
 129 481 129 481 125 479 c 2,23,-1
 79 453 l 1,24,-1
 36 512 l 1,25,-1
 115 569 l 1,26,27
 94 587 94 587 85 593 c 2,28,-1
 39 620 l 1,29,-1
 69 687 l 1,30,-1
 159 646 l 1,0,1
EndSplineSet
EndChar

StartChar: plus
Encoding: 43 43 14
Width: 581
GlyphClass: 2
Flags: W
LayerCount: 2
Fore
SplineSet
238 0 m 1,0,-1
 238 205 l 1,1,-1
 33 203 l 1,2,-1
 33 308 l 1,3,-1
 238 308 l 1,4,-1
 238 511 l 1,5,-1
 338 511 l 1,6,-1
 340 308 l 1,7,-1
 548 308 l 1,8,-1
 548 208 l 1,9,-1
 341 206 l 1,10,-1
 343 0 l 1,11,-1
 238 0 l 1,0,-1
EndSplineSet
EndChar

StartChar: comma
Encoding: 44 44 15
Width: 239
GlyphClass: 2
Flags: W
LayerCount: 2
Fore
SplineSet
62.5 15 m 128,-1,1
 45 38 45 38 45 74 c 128,-1,2
 45 110 45 110 64 132 c 128,-1,3
 83 154 83 154 120 154 c 0,4,5
 196 154 196 154 196 52 c 0,6,7
 196 -13 196 -13 155 -68 c 128,-1,8
 114 -123 114 -123 39 -136 c 1,9,-1
 27 -104 l 1,10,11
 106 -77 106 -77 113 -10 c 1,12,0
 80 -8 80 -8 62.5 15 c 128,-1,1
EndSplineSet
EndChar

StartChar: hyphen
Encoding: 45 45 16
Width: 282
GlyphClass: 2
Flags: W
LayerCount: 2
Fore
SplineSet
32 206 m 1,0,-1
 30 301 l 1,1,-1
 252 301 l 1,2,-1
 247 206 l 1,3,-1
 32 206 l 1,0,-1
EndSplineSet
EndChar

StartChar: period
Encoding: 46 46 17
Width: 248
GlyphClass: 2
Flags: W
LayerCount: 2
Fore
SplineSet
124 154 m 128,-1,1
 161 154 161 154 182 131.5 c 128,-1,2
 203 109 203 109 203 70 c 128,-1,3
 203 31 203 31 182 8 c 128,-1,4
 161 -15 161 -15 124 -15 c 128,-1,5
 87 -15 87 -15 66 8 c 128,-1,6
 45 31 45 31 45 69 c 128,-1,7
 45 107 45 107 66 130.5 c 128,-1,0
 87 154 87 154 124 154 c 128,-1,1
EndSplineSet
EndChar

StartChar: slash
Encoding: 47 47 18
Width: 396
GlyphClass: 2
Flags: W
LayerCount: 2
Fore
SplineSet
101 -65 m 1,0,-1
 7 -35 l 1,1,-1
 313 773 l 1,2,-1
 406 743 l 1,3,-1
 101 -65 l 1,0,-1
EndSplineSet
Substitution2: "'frac' Diagonal Fractions in Latin lookup 5 subtable" fraction
EndChar

StartChar: zero
Encoding: 48 48 19
Width: 572
GlyphClass: 2
Flags: W
LayerCount: 2
Fore
SplineSet
26 326 m 128,-1,1
 26 421 26 421 51 494 c 128,-1,2
 76 567 76 567 136 614.5 c 128,-1,3
 196 662 196 662 286 662 c 128,-1,4
 376 662 376 662 436 614.5 c 128,-1,5
 496 567 496 567 521 494 c 128,-1,6
 546 421 546 421 546 326 c 128,-1,7
 546 231 546 231 521 158 c 128,-1,8
 496 85 496 85 436 37.5 c 128,-1,9
 376 -10 376 -10 286 -10 c 128,-1,10
 196 -10 196 -10 136 37.5 c 128,-1,11
 76 85 76 85 51 158 c 128,-1,0
 26 231 26 231 26 326 c 128,-1,1
382 326 m 128,-1,13
 382 577 382 577 286 577 c 128,-1,14
 190 577 190 577 190 326 c 128,-1,15
 190 75 190 75 286 75 c 128,-1,12
 382 75 382 75 382 326 c 128,-1,13
EndSplineSet
Substitution2: "'onum' Oldstyle Figures in Latin lookup 15 subtable" zero.osf
Substitution2: "'tnum' Tabular Numbers in Latin lookup 14 subtable" zero.tf
Substitution2: "'dnom' Denominators in Latin lookup 11 subtable" zero.dnom
Substitution2: "'numr' Numerators in Latin lookup 10 subtable" zero.numr
Substitution2: "'sups' Superscript in Latin lookup 9 subtable" zero.sups
Substitution2: "'frac' Diagonal Fractions in Latin lookup 6 subtable" zero.numr
Substitution2: "'sinf' Scientific Inferiors in Latin lookup 4 subtable" zero.sinf
EndChar

StartChar: one
Encoding: 49 49 20
Width: 426
GlyphClass: 2
Flags: W
LayerCount: 2
Fore
SplineSet
176 163 m 2,0,-1
 176 484 l 1,1,-1
 73 445 l 1,2,-1
 36 507 l 1,3,4
 157 599 157 599 177 615 c 1,5,-1
 226 672 l 1,6,-1
 329 660 l 1,7,8
 321 476 321 476 321 426 c 2,9,-1
 321 193 l 2,10,11
 321 158 321 158 325.5 117.5 c 128,-1,12
 330 77 330 77 331 77 c 2,13,-1
 409 71 l 1,14,-1
 403 -5 l 1,15,16
 326 0 326 0 212 0 c 1,17,-1
 83 -5 l 1,18,-1
 78 65 l 1,19,-1
 167 77 l 1,20,21
 176 143 176 143 176 163 c 2,0,-1
EndSplineSet
Substitution2: "'onum' Oldstyle Figures in Latin lookup 15 subtable" one.osf
Substitution2: "'tnum' Tabular Numbers in Latin lookup 14 subtable" one.tf
Substitution2: "'dnom' Denominators in Latin lookup 11 subtable" one.dnom
Substitution2: "'numr' Numerators in Latin lookup 10 subtable" one.numr
Substitution2: "'sups' Superscript in Latin lookup 9 subtable" one.sups
Substitution2: "'frac' Diagonal Fractions in Latin lookup 6 subtable" one.numr
Substitution2: "'sinf' Scientific Inferiors in Latin lookup 4 subtable" one.sinf
EndChar

StartChar: two
Encoding: 50 50 21
Width: 547
GlyphClass: 2
Flags: W
LayerCount: 2
Fore
SplineSet
42 627 m 1,0,1
 140 662 140 662 247.5 662 c 128,-1,2
 355 662 355 662 414.5 617 c 128,-1,3
 474 572 474 572 474 492 c 128,-1,4
 474 412 474 412 417 333.5 c 128,-1,5
 360 255 360 255 198 118 c 1,6,-1
 318 118 l 2,7,8
 365 118 365 118 405 128 c 1,9,-1
 421 179 l 1,10,-1
 428 216 l 1,11,-1
 506 210 l 1,12,-1
 498 17 l 1,13,-1
 468 -3 l 1,14,15
 378 0 378 0 359 0 c 2,16,-1
 33 0 l 1,17,-1
 19 99 l 1,18,19
 194 257 194 257 253.5 333.5 c 128,-1,20
 313 410 313 410 313 477 c 0,21,22
 313 519 313 519 288.5 541.5 c 128,-1,23
 264 564 264 564 222 564 c 128,-1,24
 180 564 180 564 136 540 c 1,25,26
 128 515 128 515 128 502 c 2,27,-1
 128 459 l 1,28,-1
 49 454 l 1,29,-1
 42 627 l 1,0,1
EndSplineSet
Substitution2: "'onum' Oldstyle Figures in Latin lookup 15 subtable" two.osf
Substitution2: "'tnum' Tabular Numbers in Latin lookup 14 subtable" two.tf
Substitution2: "'dnom' Denominators in Latin lookup 11 subtable" two.dnom
Substitution2: "'numr' Numerators in Latin lookup 10 subtable" two.numr
Substitution2: "'sups' Superscript in Latin lookup 9 subtable" two.sups
Substitution2: "'frac' Diagonal Fractions in Latin lookup 6 subtable" two.numr
Substitution2: "'sinf' Scientific Inferiors in Latin lookup 4 subtable" two.sinf
EndChar

StartChar: three
Encoding: 51 51 22
Width: 491
GlyphClass: 2
Flags: W
LayerCount: 2
Fore
SplineSet
19 633 m 1,0,1
 106 662 106 662 207.5 662 c 128,-1,2
 309 662 309 662 366.5 617.5 c 128,-1,3
 424 573 424 573 424 487 c 0,4,5
 424 440 424 440 395 399.5 c 128,-1,6
 366 359 366 359 313 332 c 1,7,8
 372 319 372 319 412 274 c 128,-1,9
 452 229 452 229 452 174 c 0,10,11
 452 67 452 67 335 -12.5 c 128,-1,12
 218 -92 218 -92 41 -105 c 1,13,-1
 19 -29 l 1,14,15
 141 -15 141 -15 214.5 37.5 c 128,-1,16
 288 90 288 90 288 163 c 0,17,18
 288 270 288 270 186 270 c 1,19,-1
 124 266 l 1,20,-1
 110 339 l 1,21,22
 189 352 189 352 230.5 391.5 c 128,-1,23
 272 431 272 431 272 493 c 0,24,25
 272 574 272 574 193 574 c 0,26,27
 156 574 156 574 120 562 c 1,28,29
 112 527 112 527 112 523 c 2,30,-1
 112 470 l 1,31,-1
 33 465 l 1,32,-1
 19 633 l 1,0,1
EndSplineSet
Substitution2: "'onum' Oldstyle Figures in Latin lookup 15 subtable" three.osf
Substitution2: "'tnum' Tabular Numbers in Latin lookup 14 subtable" three.tf
Substitution2: "'dnom' Denominators in Latin lookup 11 subtable" three.dnom
Substitution2: "'numr' Numerators in Latin lookup 10 subtable" three.numr
Substitution2: "'sups' Superscript in Latin lookup 9 subtable" three.sups
Substitution2: "'frac' Diagonal Fractions in Latin lookup 6 subtable" three.numr
Substitution2: "'sinf' Scientific Inferiors in Latin lookup 4 subtable" three.sinf
EndChar

StartChar: four
Encoding: 52 52 23
Width: 563
GlyphClass: 2
Flags: W
LayerCount: 2
Fore
SplineSet
294 273 m 1,0,-1
 294 370 l 1,1,-1
 434 418 l 1,2,-1
 434 282 l 1,3,-1
 528 287 l 1,4,-1
 528 182 l 1,5,-1
 434 182 l 1,6,-1
 434 160 l 2,7,8
 434 122 434 122 443 77 c 1,9,-1
 530 71 l 1,10,-1
 525 -5 l 1,11,12
 421 0 421 0 311 0 c 1,13,-1
 184 -5 l 1,14,-1
 179 65 l 1,15,-1
 285 77 l 1,16,17
 287 89 287 89 288.5 100.5 c 128,-1,18
 290 112 290 112 291 123.5 c 128,-1,19
 292 135 292 135 293 145.5 c 128,-1,20
 294 156 294 156 294 161 c 2,21,-1
 294 182 l 1,22,-1
 84 182 l 1,23,-1
 10 274 l 1,24,-1
 364 739 l 1,25,-1
 464 655 l 1,26,27
 360 553 360 553 345 530 c 1,28,-1
 155 273 l 1,29,-1
 294 273 l 1,0,-1
EndSplineSet
Substitution2: "'onum' Oldstyle Figures in Latin lookup 15 subtable" four.osf
Substitution2: "'tnum' Tabular Numbers in Latin lookup 14 subtable" four.tf
Substitution2: "'dnom' Denominators in Latin lookup 11 subtable" four.dnom
Substitution2: "'numr' Numerators in Latin lookup 10 subtable" four.numr
Substitution2: "'sups' Superscript in Latin lookup 9 subtable" four.sups
Substitution2: "'frac' Diagonal Fractions in Latin lookup 6 subtable" four.numr
Substitution2: "'sinf' Scientific Inferiors in Latin lookup 4 subtable" four.sinf
EndChar

StartChar: five
Encoding: 53 53 24
Width: 486
GlyphClass: 2
Flags: W
LayerCount: 2
Fore
SplineSet
265 521 m 2,0,-1
 171 521 l 1,1,-1
 162 379 l 1,2,3
 189 383 189 383 224 383 c 0,4,5
 333 383 333 383 391.5 331 c 128,-1,6
 450 279 450 279 450 187 c 0,7,8
 450 -46 450 -46 65 -105 c 1,9,-1
 43 -31 l 1,10,11
 176 -1 176 -1 235 44.5 c 128,-1,12
 294 90 294 90 294 164 c 0,13,14
 294 280 294 280 178 280 c 0,15,16
 137 280 137 280 89 266 c 1,17,-1
 42 320 l 1,18,-1
 67 634 l 1,19,-1
 86 652 l 1,20,-1
 174 652 l 1,21,-1
 417 662 l 1,22,-1
 423 535 l 1,23,24
 295 521 295 521 265 521 c 2,0,-1
EndSplineSet
Substitution2: "'onum' Oldstyle Figures in Latin lookup 15 subtable" five.osf
Substitution2: "'tnum' Tabular Numbers in Latin lookup 14 subtable" five.tf
Substitution2: "'dnom' Denominators in Latin lookup 11 subtable" five.dnom
Substitution2: "'numr' Numerators in Latin lookup 10 subtable" five.numr
Substitution2: "'sups' Superscript in Latin lookup 9 subtable" five.sups
Substitution2: "'frac' Diagonal Fractions in Latin lookup 6 subtable" five.numr
Substitution2: "'sinf' Scientific Inferiors in Latin lookup 4 subtable" five.sinf
EndChar

StartChar: six
Encoding: 54 54 25
Width: 552
GlyphClass: 2
Flags: W
LayerCount: 2
Fore
SplineSet
323 413 m 0,0,1
 416 413 416 413 469 357.5 c 128,-1,2
 522 302 522 302 522 206.5 c 128,-1,3
 522 111 522 111 452.5 50 c 128,-1,4
 383 -11 383 -11 274.5 -11 c 128,-1,5
 166 -11 166 -11 98 59 c 128,-1,6
 30 129 30 129 30 246 c 0,7,8
 30 413 30 413 141 556 c 0,9,10
 195 625 195 625 283 676.5 c 128,-1,11
 371 728 371 728 480 747 c 1,12,-1
 496 681 l 1,13,14
 414 654 414 654 352.5 605.5 c 128,-1,15
 291 557 291 557 256 497 c 0,16,17
 189 380 189 380 189 246 c 0,18,19
 189 154 189 154 225 108 c 0,20,21
 247 81 247 81 285.5 81 c 128,-1,22
 324 81 324 81 343 117.5 c 128,-1,23
 362 154 362 154 362 207 c 128,-1,24
 362 260 362 260 343.5 297 c 128,-1,25
 325 334 325 334 284 334 c 1,26,-1
 250 331 l 1,27,-1
 244 403 l 1,28,29
 274 413 274 413 323 413 c 0,0,1
EndSplineSet
Substitution2: "'onum' Oldstyle Figures in Latin lookup 15 subtable" six.osf
Substitution2: "'tnum' Tabular Numbers in Latin lookup 14 subtable" six.tf
Substitution2: "'dnom' Denominators in Latin lookup 11 subtable" six.dnom
Substitution2: "'numr' Numerators in Latin lookup 10 subtable" six.numr
Substitution2: "'sups' Superscript in Latin lookup 9 subtable" six.sups
Substitution2: "'frac' Diagonal Fractions in Latin lookup 6 subtable" six.numr
Substitution2: "'sinf' Scientific Inferiors in Latin lookup 4 subtable" six.sinf
EndChar

StartChar: seven
Encoding: 55 55 26
Width: 511
GlyphClass: 2
Flags: W
LayerCount: 2
Fore
SplineSet
184 652 m 2,0,-1
 502 652 l 1,1,-1
 518 583 l 1,2,-1
 202 -105 l 1,3,-1
 77 -62 l 1,4,-1
 302 379 l 2,5,6
 315 404 315 404 346 520 c 1,7,-1
 193 520 l 2,8,9
 181 520 181 520 137 516 c 1,10,-1
 122 474 l 1,11,-1
 114 428 l 1,12,-1
 35 431 l 1,13,-1
 46 641 l 1,14,-1
 64 661 l 1,15,16
 161 652 161 652 184 652 c 2,0,-1
EndSplineSet
Substitution2: "'onum' Oldstyle Figures in Latin lookup 15 subtable" seven.osf
Substitution2: "'tnum' Tabular Numbers in Latin lookup 14 subtable" seven.tf
Substitution2: "'dnom' Denominators in Latin lookup 11 subtable" seven.dnom
Substitution2: "'numr' Numerators in Latin lookup 10 subtable" seven.numr
Substitution2: "'sups' Superscript in Latin lookup 9 subtable" seven.sups
Substitution2: "'frac' Diagonal Fractions in Latin lookup 6 subtable" seven.numr
Substitution2: "'sinf' Scientific Inferiors in Latin lookup 4 subtable" seven.sinf
EndChar

StartChar: eight
Encoding: 56 56 27
Width: 543
GlyphClass: 2
Flags: W
LayerCount: 2
Fore
SplineSet
52 522 m 0,0,1
 52 597 52 597 118 639.5 c 128,-1,2
 184 682 184 682 271 682 c 128,-1,3
 358 682 358 682 423.5 638.5 c 128,-1,4
 489 595 489 595 489 519 c 0,5,6
 489 429 489 429 383 349 c 1,7,8
 443 313 443 313 477 268.5 c 128,-1,9
 511 224 511 224 511 163 c 128,-1,10
 511 102 511 102 474 63 c 0,11,12
 405 -10 405 -10 270 -10 c 0,13,14
 170 -10 170 -10 100 34.5 c 128,-1,15
 30 79 30 79 30 164 c 0,16,17
 30 262 30 262 157 342 c 1,18,19
 52 413 52 413 52 522 c 0,0,1
177 165 m 0,20,21
 177 122 177 122 202.5 97 c 128,-1,22
 228 72 228 72 271 72 c 128,-1,23
 314 72 314 72 338.5 95.5 c 128,-1,24
 363 119 363 119 363 161 c 128,-1,25
 363 203 363 203 334.5 230.5 c 128,-1,26
 306 258 306 258 250 288 c 1,27,28
 177 232 177 232 177 165 c 0,20,21
345 518 m 0,29,30
 345 554 345 554 325.5 577 c 128,-1,31
 306 600 306 600 272 600 c 128,-1,32
 238 600 238 600 217 577.5 c 128,-1,33
 196 555 196 555 196 518.5 c 128,-1,34
 196 482 196 482 221 454.5 c 128,-1,35
 246 427 246 427 292 400 c 1,36,37
 345 459 345 459 345 518 c 0,29,30
EndSplineSet
Substitution2: "'onum' Oldstyle Figures in Latin lookup 15 subtable" eight.osf
Substitution2: "'tnum' Tabular Numbers in Latin lookup 14 subtable" eight.tf
Substitution2: "'dnom' Denominators in Latin lookup 11 subtable" eight.dnom
Substitution2: "'numr' Numerators in Latin lookup 10 subtable" eight.numr
Substitution2: "'sups' Superscript in Latin lookup 9 subtable" eight.sups
Substitution2: "'frac' Diagonal Fractions in Latin lookup 6 subtable" eight.numr
Substitution2: "'sinf' Scientific Inferiors in Latin lookup 4 subtable" eight.sinf
EndChar

StartChar: nine
Encoding: 57 57 28
Width: 552
GlyphClass: 2
Flags: W
LayerCount: 2
Fore
SplineSet
239 238 m 0,0,1
 141 238 141 238 85.5 292 c 128,-1,2
 30 346 30 346 30 440 c 128,-1,3
 30 534 30 534 100 598 c 128,-1,4
 170 662 170 662 270 662 c 0,5,6
 389 662 389 662 455.5 591 c 128,-1,7
 522 520 522 520 522 405 c 0,8,9
 522 237 522 237 414 92 c 0,10,11
 361 20 361 20 274 -33 c 128,-1,12
 187 -86 187 -86 78 -105 c 1,13,-1
 56 -31 l 1,14,15
 128 -12 128 -12 183.5 24 c 128,-1,16
 239 60 239 60 272 103 c 128,-1,17
 305 146 305 146 326 200 c 1,18,19
 363 290 363 290 363 405 c 0,20,21
 363 475 363 475 340 522.5 c 128,-1,22
 317 570 317 570 272.5 570 c 128,-1,23
 228 570 228 570 209 533.5 c 128,-1,24
 190 497 190 497 190 443 c 128,-1,25
 190 389 190 389 211.5 353 c 128,-1,26
 233 317 233 317 268 317 c 1,27,-1
 302 320 l 1,28,-1
 308 248 l 1,29,30
 278 238 278 238 239 238 c 0,0,1
EndSplineSet
Substitution2: "'onum' Oldstyle Figures in Latin lookup 15 subtable" nine.osf
Substitution2: "'tnum' Tabular Numbers in Latin lookup 14 subtable" nine.tf
Substitution2: "'dnom' Denominators in Latin lookup 11 subtable" nine.dnom
Substitution2: "'numr' Numerators in Latin lookup 10 subtable" nine.numr
Substitution2: "'sups' Superscript in Latin lookup 9 subtable" nine.sups
Substitution2: "'frac' Diagonal Fractions in Latin lookup 6 subtable" nine.numr
Substitution2: "'sinf' Scientific Inferiors in Latin lookup 4 subtable" nine.sinf
EndChar

StartChar: colon
Encoding: 58 58 29
Width: 238
GlyphClass: 2
Flags: W
LayerCount: 2
Fore
SplineSet
119 487 m 128,-1,1
 154 487 154 487 173.5 465.5 c 128,-1,2
 193 444 193 444 193 407.5 c 128,-1,3
 193 371 193 371 173.5 349.5 c 128,-1,4
 154 328 154 328 119 328 c 128,-1,5
 84 328 84 328 64.5 349.5 c 128,-1,6
 45 371 45 371 45 407 c 128,-1,7
 45 443 45 443 64.5 465 c 128,-1,0
 84 487 84 487 119 487 c 128,-1,1
119 144 m 128,-1,9
 154 144 154 144 173.5 122.5 c 128,-1,10
 193 101 193 101 193 64.5 c 128,-1,11
 193 28 193 28 173.5 6.5 c 128,-1,12
 154 -15 154 -15 119 -15 c 128,-1,13
 84 -15 84 -15 64.5 6.5 c 128,-1,14
 45 28 45 28 45 64 c 128,-1,15
 45 100 45 100 64.5 122 c 128,-1,8
 84 144 84 144 119 144 c 128,-1,9
EndSplineSet
EndChar

StartChar: semicolon
Encoding: 59 59 30
Width: 239
GlyphClass: 2
Flags: W
LayerCount: 2
Fore
SplineSet
62.5 15 m 128,-1,1
 45 38 45 38 45 74 c 128,-1,2
 45 110 45 110 64 132 c 128,-1,3
 83 154 83 154 120 154 c 0,4,5
 196 154 196 154 196 52 c 0,6,7
 196 -13 196 -13 155 -68 c 128,-1,8
 114 -123 114 -123 39 -136 c 1,9,-1
 27 -104 l 1,10,11
 106 -77 106 -77 113 -10 c 1,12,0
 80 -8 80 -8 62.5 15 c 128,-1,1
119 477 m 128,-1,14
 154 477 154 477 173.5 455.5 c 128,-1,15
 193 434 193 434 193 397.5 c 128,-1,16
 193 361 193 361 173.5 339.5 c 128,-1,17
 154 318 154 318 119 318 c 128,-1,18
 84 318 84 318 64.5 339.5 c 128,-1,19
 45 361 45 361 45 397 c 128,-1,20
 45 433 45 433 64.5 455 c 128,-1,13
 84 477 84 477 119 477 c 128,-1,14
EndSplineSet
EndChar

StartChar: less
Encoding: 60 60 31
Width: 481
GlyphClass: 2
Flags: W
LayerCount: 2
Fore
SplineSet
336 -15 m 1,0,-1
 40 249 l 1,1,-1
 336 513 l 1,2,-1
 401 438 l 1,3,-1
 186 249 l 1,4,-1
 401 60 l 1,5,-1
 336 -15 l 1,0,-1
EndSplineSet
EndChar

StartChar: equal
Encoding: 61 61 32
Width: 585
GlyphClass: 2
Flags: W
LayerCount: 2
Fore
SplineSet
65 394 m 1,0,-1
 520 394 l 1,1,-1
 520 293 l 1,2,-1
 65 288 l 1,3,-1
 65 394 l 1,0,-1
65 204 m 1,4,-1
 520 204 l 1,5,-1
 520 103 l 1,6,-1
 65 98 l 1,7,-1
 65 204 l 1,4,-1
EndSplineSet
EndChar

StartChar: greater
Encoding: 62 62 33
Width: 481
GlyphClass: 2
Flags: W
LayerCount: 2
Fore
SplineSet
145 512 m 1,0,-1
 441 248 l 1,1,-1
 145 -16 l 1,2,-1
 80 59 l 1,3,-1
 295 248 l 1,4,-1
 80 437 l 1,5,-1
 145 512 l 1,0,-1
EndSplineSet
EndChar

StartChar: question
Encoding: 63 63 34
Width: 422
GlyphClass: 2
Flags: W
LayerCount: 2
Fore
SplineSet
260 429.5 m 128,-1,1
 288 466 288 466 288 523 c 128,-1,2
 288 580 288 580 261 616.5 c 128,-1,3
 234 653 234 653 186 653 c 128,-1,4
 138 653 138 653 114 637 c 1,5,6
 108 616 108 616 108 581 c 1,7,-1
 110 545 l 1,8,-1
 42 540 l 1,9,-1
 30 688 l 1,10,11
 116 727 116 727 191 727 c 0,12,13
 299 727 299 727 360.5 673 c 128,-1,14
 422 619 422 619 422 524.5 c 128,-1,15
 422 430 422 430 364.5 377 c 128,-1,16
 307 324 307 324 212 321 c 1,17,-1
 215 241 l 1,18,-1
 198 225 l 1,19,20
 162 229 162 229 98 229 c 1,21,-1
 95 232 l 1,22,-1
 95 362 l 1,23,-1
 126 396 l 1,24,25
 151 393 151 393 191.5 393 c 128,-1,0
 232 393 232 393 260 429.5 c 128,-1,1
151 144 m 128,-1,27
 186 144 186 144 205.5 122.5 c 128,-1,28
 225 101 225 101 225 64.5 c 128,-1,29
 225 28 225 28 205.5 6.5 c 128,-1,30
 186 -15 186 -15 151 -15 c 128,-1,31
 116 -15 116 -15 96.5 6.5 c 128,-1,32
 77 28 77 28 77 64 c 128,-1,33
 77 100 77 100 96.5 122 c 128,-1,26
 116 144 116 144 151 144 c 128,-1,27
EndSplineSet
EndChar

StartChar: at
Encoding: 64 64 35
Width: 954
GlyphClass: 2
Flags: W
LayerCount: 2
Fore
SplineSet
420 -10 m 0,0,1
 352 -10 352 -10 312.5 28 c 128,-1,2
 273 66 273 66 273 132 c 0,3,4
 273 247 273 247 405 270 c 1,5,-1
 547 293 l 1,6,-1
 547 323 l 2,7,8
 547 369 547 369 532 395.5 c 128,-1,9
 517 422 517 422 479.5 422 c 128,-1,10
 442 422 442 422 398 400 c 1,11,-1
 394 361 l 1,12,-1
 395 312 l 1,13,-1
 320 309 l 1,14,-1
 305 476 l 1,15,16
 404 503 404 503 493 503 c 128,-1,17
 582 503 582 503 634.5 455 c 128,-1,18
 687 407 687 407 687 323 c 2,19,-1
 687 193 l 2,20,21
 687 159 687 159 694 88 c 2,22,-1
 696 67 l 1,23,-1
 695 66 l 1,24,25
 734 76 734 76 761 114 c 0,26,27
 809 182 809 182 809 287 c 0,28,29
 809 427 809 427 721 512.5 c 128,-1,30
 633 598 633 598 482 598 c 0,31,32
 401 598 401 598 339.5 572 c 128,-1,33
 278 546 278 546 243.5 507.5 c 128,-1,34
 209 469 209 469 187 416 c 0,35,36
 151 331 151 331 151 241 c 128,-1,37
 151 151 151 151 170 86.5 c 128,-1,38
 189 22 189 22 228 -28 c 0,39,40
 308 -131 308 -131 487 -131 c 0,41,42
 519 -131 519 -131 644 -100 c 1,43,-1
 685 -89 l 1,44,-1
 701 -127 l 1,45,46
 542 -213 542 -213 487 -213 c 0,47,48
 383 -213 383 -213 301.5 -186 c 128,-1,49
 220 -159 220 -159 170 -116 c 128,-1,50
 120 -73 120 -73 88 -14 c 0,51,52
 30 92 30 92 30 232 c 0,53,54
 30 404 30 404 132 530 c 0,55,56
 183 593 183 593 273 630 c 128,-1,57
 363 667 363 667 482 667 c 0,58,59
 685 667 685 667 804.5 566 c 128,-1,60
 924 465 924 465 924 287 c 0,61,62
 924 189 924 189 851 102 c 0,63,64
 816 61 816 61 760.5 33 c 128,-1,65
 705 5 705 5 639 0 c 1,66,-1
 566 0 l 1,67,-1
 558 72 l 1,68,69
 512 -10 512 -10 420 -10 c 0,0,1
421 152 m 0,70,71
 421 93 421 93 475 93 c 0,72,73
 543 93 543 93 547 173 c 1,74,-1
 547 228 l 1,75,-1
 473 214 l 2,76,77
 445 209 445 209 433 194.5 c 128,-1,78
 421 180 421 180 421 152 c 0,70,71
EndSplineSet
EndChar

StartChar: A
Encoding: 65 65 36
Width: 667
GlyphClass: 2
Flags: W
LayerCount: 2
Fore
SplineSet
668 65 m 1,0,-1
 663 -5 l 1,1,2
 614 0 614 0 579 0 c 2,3,-1
 375 -5 l 1,4,-1
 370 68 l 1,5,-1
 429 77 l 1,6,-1
 424 129 l 1,7,-1
 410 179 l 1,8,-1
 221 179 l 1,9,-1
 204 115 l 1,10,-1
 198 77 l 1,11,-1
 256 65 l 1,12,-1
 251 -5 l 1,13,14
 192 0 192 0 145 0 c 1,15,-1
 6 -5 l 1,16,-1
 1 68 l 1,17,-1
 46 75 l 1,18,-1
 88 161 l 1,19,-1
 277 705 l 1,20,-1
 389 716 l 1,21,-1
 589 128 l 1,22,-1
 612 74 l 1,23,-1
 668 65 l 1,0,-1
320 498 m 1,24,-1
 248 261 l 1,25,-1
 384 263 l 1,26,-1
 320 498 l 1,24,-1
EndSplineSet
Position2: "'cpsp' Capital Spacing in Latin lookup 0 subtable" dx=9 dy=0 dh=18 dv=0
EndChar

StartChar: B
Encoding: 66 66 37
Width: 633
GlyphClass: 2
Flags: W
LayerCount: 2
Fore
SplineSet
149 705 m 1,0,-1
 352 715 l 1,1,2
 446 715 446 715 511.5 668.5 c 128,-1,3
 577 622 577 622 577 543 c 0,4,5
 577 478 577 478 538.5 432 c 128,-1,6
 500 386 500 386 438 371 c 1,7,-1
 438 364 l 1,8,9
 515 352 515 352 561.5 308 c 128,-1,10
 608 264 608 264 608 189 c 0,11,12
 608 94 608 94 540 44.5 c 128,-1,13
 472 -5 472 -5 369 -5 c 1,14,-1
 148 0 l 1,15,-1
 56 -5 l 1,16,-1
 51 65 l 1,17,-1
 111 77 l 1,18,19
 120 119 120 119 120 163 c 2,20,-1
 120 512 l 2,21,22
 120 582 120 582 111 623 c 1,23,-1
 52 635 l 1,24,-1
 57 710 l 1,25,26
 102 705 102 705 149 705 c 1,0,-1
275 542 m 2,27,-1
 275 193 l 2,28,29
 275 122 275 122 278 80 c 1,30,31
 305 77 305 77 334 77 c 0,32,33
 389 77 389 77 422 110.5 c 128,-1,34
 455 144 455 144 455 203 c 0,35,36
 455 320 455 320 323 320 c 2,37,-1
 313 320 l 1,38,-1
 320 407 l 1,39,-1
 326 407 l 2,40,41
 376 407 376 407 404 438.5 c 128,-1,42
 432 470 432 470 432 522 c 128,-1,43
 432 574 432 574 402.5 603.5 c 128,-1,44
 373 633 373 633 327 633 c 0,45,46
 310 633 310 633 278 629 c 1,47,48
 275 605 275 605 275 542 c 2,27,-1
EndSplineSet
Position2: "'cpsp' Capital Spacing in Latin lookup 0 subtable" dx=9 dy=0 dh=18 dv=0
EndChar

StartChar: C
Encoding: 67 67 38
Width: 637
GlyphClass: 2
Flags: W
LayerCount: 2
Fore
SplineSet
377 -15 m 0,0,1
 207 -15 207 -15 117 84.5 c 128,-1,2
 27 184 27 184 27 352 c 128,-1,3
 27 520 27 520 117 620 c 128,-1,4
 207 720 207 720 377 720 c 0,5,6
 455 720 455 720 593 686 c 1,7,-1
 581 507 l 1,8,-1
 504 511 l 1,9,-1
 501 572 l 2,10,11
 501 582 501 582 489 613 c 1,12,13
 425 627 425 627 377 627 c 0,14,15
 290 627 290 627 248.5 552 c 128,-1,16
 207 477 207 477 207 353 c 128,-1,17
 207 229 207 229 248 153.5 c 128,-1,18
 289 78 289 78 376 78 c 0,19,20
 432 78 432 78 500 93 c 1,21,22
 501 95 501 95 505 106.5 c 128,-1,23
 509 118 509 118 512.5 128 c 128,-1,24
 516 138 516 138 516 142 c 2,25,-1
 519 189 l 1,26,-1
 594 191 l 1,27,-1
 602 19 l 1,28,29
 464 -15 464 -15 377 -15 c 0,0,1
EndSplineSet
Position2: "'cpsp' Capital Spacing in Latin lookup 0 subtable" dx=9 dy=0 dh=18 dv=0
EndChar

StartChar: D
Encoding: 68 68 39
Width: 739
GlyphClass: 2
Flags: W
LayerCount: 2
Fore
SplineSet
151 705 m 1,0,-1
 360 715 l 1,1,2
 530 715 530 715 621 616.5 c 128,-1,3
 712 518 712 518 712 353.5 c 128,-1,4
 712 189 712 189 621 91.5 c 128,-1,5
 530 -6 530 -6 360 -6 c 1,6,7
 360 -6 360 -6 150 0 c 1,8,-1
 50 -5 l 1,9,-1
 45 65 l 1,10,-1
 111 77 l 1,11,12
 120 143 120 143 120 163 c 2,13,-1
 120 512 l 2,14,15
 120 564 120 564 114 606 c 1,16,-1
 111 623 l 1,17,-1
 46 635 l 1,18,-1
 51 710 l 1,19,20
 104 705 104 705 151 705 c 1,0,-1
346 632 m 0,21,22
 325 632 325 632 279 624 c 1,23,24
 275 556 275 556 275 542 c 2,25,-1
 275 193 l 2,26,27
 275 128 275 128 279 80 c 1,28,29
 312 77 312 77 344 77 c 0,30,31
 450 77 450 77 497.5 152 c 128,-1,32
 545 227 545 227 545 354 c 0,33,34
 545 475 545 475 501 550 c 0,35,36
 453 632 453 632 346 632 c 0,21,22
EndSplineSet
Position2: "'cpsp' Capital Spacing in Latin lookup 0 subtable" dx=9 dy=0 dh=18 dv=0
EndChar

StartChar: E
Encoding: 69 69 40
Width: 616
GlyphClass: 2
Flags: W
LayerCount: 2
Fore
SplineSet
151 705 m 2,0,-1
 419 705 l 1,1,-1
 533 715 l 1,2,-1
 552 697 l 1,3,-1
 559 541 l 1,4,-1
 487 536 l 1,5,6
 481 584 481 584 478 596 c 128,-1,7
 475 608 475 608 468 619 c 1,8,9
 428 623 428 623 389 623 c 2,10,-1
 279 623 l 1,11,12
 275 551 275 551 275 542 c 2,13,-1
 275 399 l 1,14,15
 285 398 285 398 301 398 c 2,16,-1
 357 398 l 2,17,18
 378 398 378 398 401 407 c 1,19,-1
 410 471 l 1,20,-1
 472 466 l 1,21,22
 471 403 471 403 471 383 c 2,23,-1
 474 256 l 1,24,-1
 410 250 l 1,25,-1
 401 310 l 1,26,27
 357 316 357 316 337 316 c 2,28,-1
 306 316 l 2,29,30
 282 316 282 316 275 315 c 1,31,-1
 275 193 l 2,32,33
 275 147 275 147 278 87 c 1,34,-1
 403 87 l 2,35,36
 440 87 440 87 480 95 c 1,37,38
 504 139 504 139 511 195 c 1,39,-1
 581 190 l 1,40,-1
 566 14 l 1,41,-1
 547 -4 l 1,42,43
 453 0 453 0 433 0 c 2,44,-1
 151 0 l 1,45,-1
 50 -5 l 1,46,-1
 45 65 l 1,47,-1
 111 77 l 1,48,49
 120 107 120 107 120 163 c 2,50,-1
 120 512 l 2,51,52
 120 585 120 585 111 623 c 1,53,-1
 46 635 l 1,54,-1
 51 710 l 1,55,56
 115 705 115 705 151 705 c 2,0,-1
EndSplineSet
Position2: "'cpsp' Capital Spacing in Latin lookup 0 subtable" dx=9 dy=0 dh=18 dv=0
EndChar

StartChar: F
Encoding: 70 70 41
Width: 569
GlyphClass: 2
Flags: W
LayerCount: 2
Fore
SplineSet
389 623 m 2,0,-1
 279 623 l 1,1,2
 275 551 275 551 275 542 c 2,3,-1
 275 388 l 1,4,5
 286 387 286 387 299 387 c 2,6,-1
 357 387 l 2,7,8
 372 387 372 387 401 396 c 1,9,-1
 410 460 l 1,10,-1
 472 455 l 1,11,12
 471 392 471 392 471 372 c 2,13,-1
 474 245 l 1,14,-1
 410 239 l 1,15,-1
 401 299 l 1,16,17
 357 305 357 305 337 305 c 2,18,-1
 300 305 l 2,19,20
 283 305 283 305 275 304 c 1,21,-1
 275 190 l 2,22,23
 275 115 275 115 284 77 c 1,24,-1
 379 71 l 1,25,-1
 374 -5 l 1,26,27
 263 0 263 0 150 0 c 1,28,-1
 50 -5 l 1,29,-1
 45 65 l 1,30,-1
 111 77 l 1,31,32
 120 107 120 107 120 163 c 2,33,-1
 120 512 l 2,34,35
 120 592 120 592 111 623 c 1,36,-1
 46 635 l 1,37,-1
 51 710 l 1,38,39
 104 705 104 705 151 705 c 2,40,-1
 419 705 l 1,41,-1
 533 715 l 1,42,-1
 552 697 l 1,43,-1
 559 541 l 1,44,-1
 487 536 l 1,45,46
 481 584 481 584 479.5 590 c 128,-1,47
 478 596 478 596 469 618 c 1,48,49
 419 623 419 623 389 623 c 2,0,-1
EndSplineSet
Position2: "'cpsp' Capital Spacing in Latin lookup 0 subtable" dx=9 dy=0 dh=18 dv=0
EndChar

StartChar: G
Encoding: 71 71 42
Width: 699
GlyphClass: 2
Flags: W
LayerCount: 2
Fore
SplineSet
394 720 m 0,0,1
 476 720 476 720 623 686 c 1,2,-1
 610 521 l 1,3,-1
 531 525 l 1,4,-1
 528 572 l 2,5,6
 528 582 528 582 516 613 c 1,7,8
 448 627 448 627 394 627 c 0,9,10
 299 627 299 627 253 551.5 c 128,-1,11
 207 476 207 476 207 352.5 c 128,-1,12
 207 229 207 229 252.5 153.5 c 128,-1,13
 298 78 298 78 393 78 c 0,14,15
 438 78 438 78 491 86 c 1,16,17
 498 117 498 117 498 128 c 2,18,-1
 498 196 l 1,19,-1
 488 257 l 1,20,-1
 382 265 l 1,21,-1
 387 363 l 1,22,-1
 498 363 l 1,23,-1
 613 366 l 1,24,-1
 641 341 l 1,25,26
 632 246 632 246 632 196 c 2,27,-1
 632 19 l 1,28,29
 485 -15 485 -15 394 -15 c 0,30,31
 216 -15 216 -15 121.5 84.5 c 128,-1,32
 27 184 27 184 27 352 c 128,-1,33
 27 520 27 520 121.5 620 c 128,-1,34
 216 720 216 720 394 720 c 0,0,1
EndSplineSet
Position2: "'cpsp' Capital Spacing in Latin lookup 0 subtable" dx=9 dy=0 dh=18 dv=0
EndChar

StartChar: H
Encoding: 72 72 43
Width: 827
GlyphClass: 2
Flags: W
LayerCount: 2
Fore
SplineSet
111 77 m 1,0,-1
 120 163 l 1,1,-1
 120 512 l 2,2,3
 120 551 120 551 111 623 c 1,4,-1
 46 635 l 1,5,-1
 51 710 l 1,6,7
 104 705 104 705 151 705 c 1,8,-1
 345 710 l 1,9,-1
 350 629 l 1,10,-1
 284 623 l 1,11,12
 275 578 275 578 275 542 c 2,13,-1
 275 389 l 1,14,-1
 552 393 l 1,15,-1
 552 512 l 2,16,17
 552 551 552 551 543 623 c 1,18,-1
 478 635 l 1,19,-1
 483 710 l 1,20,21
 536 705 536 705 583 705 c 1,22,-1
 777 710 l 1,23,-1
 782 629 l 1,24,-1
 716 623 l 1,25,26
 707 578 707 578 707 542 c 2,27,-1
 707 193 l 2,28,29
 707 140 707 140 716 77 c 1,30,-1
 781 71 l 1,31,-1
 776 -5 l 1,32,33
 695 0 695 0 582 0 c 1,34,-1
 482 -5 l 1,35,-1
 477 65 l 1,36,-1
 543 77 l 1,37,-1
 552 163 l 1,38,-1
 552 302 l 1,39,-1
 275 302 l 1,40,-1
 275 193 l 2,41,42
 275 140 275 140 284 77 c 1,43,-1
 349 71 l 1,44,-1
 344 -5 l 1,45,46
 263 0 263 0 150 0 c 1,47,-1
 50 -5 l 1,48,-1
 45 65 l 1,49,-1
 111 77 l 1,0,-1
EndSplineSet
Position2: "'cpsp' Capital Spacing in Latin lookup 0 subtable" dx=9 dy=0 dh=18 dv=0
EndChar

StartChar: I
Encoding: 73 73 44
Width: 405
GlyphClass: 2
Flags: W
LayerCount: 2
Fore
SplineSet
116 77 m 1,0,-1
 125 163 l 1,1,-1
 125 512 l 2,2,3
 125 551 125 551 116 623 c 1,4,-1
 51 635 l 1,5,-1
 56 710 l 1,6,7
 109 705 109 705 156 705 c 1,8,-1
 350 710 l 1,9,-1
 355 629 l 1,10,-1
 289 623 l 1,11,12
 280 578 280 578 280 542 c 2,13,-1
 280 193 l 2,14,15
 280 140 280 140 289 77 c 1,16,-1
 354 71 l 1,17,-1
 349 -5 l 1,18,19
 268 0 268 0 155 0 c 1,20,-1
 55 -5 l 1,21,-1
 50 65 l 1,22,-1
 116 77 l 1,0,-1
EndSplineSet
Position2: "'cpsp' Capital Spacing in Latin lookup 0 subtable" dx=9 dy=0 dh=18 dv=0
EndChar

StartChar: J
Encoding: 74 74 45
Width: 371
GlyphClass: 2
Flags: W
LayerCount: 2
Fore
SplineSet
263 542 m 2,0,-1
 263 10 l 2,1,2
 263 -36 263 -36 86 -200 c 1,3,-1
 32 -169 l 1,4,5
 108 -9 108 -9 108 11 c 2,6,-1
 108 512 l 2,7,8
 108 578 108 578 99 623 c 1,9,-1
 34 635 l 1,10,-1
 39 710 l 1,11,12
 92 705 92 705 139 705 c 1,13,-1
 333 710 l 1,14,-1
 338 629 l 1,15,-1
 272 623 l 1,16,17
 263 582 263 582 263 542 c 2,0,-1
EndSplineSet
Position2: "'cpsp' Capital Spacing in Latin lookup 0 subtable" dx=9 dy=0 dh=18 dv=0
EndChar

StartChar: K
Encoding: 75 75 46
Width: 751
GlyphClass: 2
Flags: W
LayerCount: 2
Fore
SplineSet
756 71 m 1,0,-1
 751 -5 l 1,1,2
 661 0 661 0 549 0 c 1,3,-1
 454 -5 l 1,4,-1
 449 65 l 1,5,-1
 488 73 l 1,6,7
 445 142 445 142 429 164 c 1,8,-1
 279 353 l 1,9,-1
 441 577 l 1,10,-1
 469 629 l 1,11,-1
 438 635 l 1,12,-1
 443 710 l 1,13,14
 492 705 492 705 540 705 c 1,15,-1
 706 710 l 1,16,-1
 711 629 l 1,17,-1
 653 623 l 1,18,19
 607 579 607 579 577 546 c 1,20,-1
 448 370 l 1,21,22
 515 295 515 295 653 129 c 0,23,24
 661 119 661 119 708 77 c 1,25,-1
 756 71 l 1,0,-1
111 77 m 1,26,-1
 120 163 l 1,27,-1
 120 512 l 2,28,29
 120 551 120 551 111 623 c 1,30,-1
 49 635 l 1,31,-1
 54 710 l 1,32,33
 102 705 102 705 150 705 c 1,34,-1
 342 710 l 1,35,-1
 347 629 l 1,36,-1
 284 623 l 1,37,38
 275 578 275 578 275 542 c 2,39,-1
 275 193 l 2,40,41
 275 140 275 140 284 77 c 1,42,-1
 345 71 l 1,43,-1
 340 -5 l 1,44,45
 261 0 261 0 149 0 c 1,46,-1
 53 -5 l 1,47,-1
 48 65 l 1,48,-1
 111 77 l 1,26,-1
EndSplineSet
PairPos2: "'kern' Horizontal Kerning in Latin lookup 1 per glyph data 1" Yacute.sc dx=0 dy=0 dh=-80 dv=0 dx=0 dy=0 dh=0 dv=0
PairPos2: "'kern' Horizontal Kerning in Latin lookup 1 per glyph data 1" Ycircumflex.sc dx=0 dy=0 dh=-80 dv=0 dx=0 dy=0 dh=0 dv=0
PairPos2: "'kern' Horizontal Kerning in Latin lookup 1 per glyph data 1" Ydieresis.sc dx=0 dy=0 dh=-80 dv=0 dx=0 dy=0 dh=0 dv=0
PairPos2: "'kern' Horizontal Kerning in Latin lookup 1 per glyph data 1" Ydotbelow.sc dx=0 dy=0 dh=-80 dv=0 dx=0 dy=0 dh=0 dv=0
PairPos2: "'kern' Horizontal Kerning in Latin lookup 1 per glyph data 1" Ygrave.sc dx=0 dy=0 dh=-80 dv=0 dx=0 dy=0 dh=0 dv=0
PairPos2: "'kern' Horizontal Kerning in Latin lookup 1 per glyph data 1" Yhookabove.sc dx=0 dy=0 dh=-80 dv=0 dx=0 dy=0 dh=0 dv=0
PairPos2: "'kern' Horizontal Kerning in Latin lookup 1 per glyph data 1" Ytilde.sc dx=0 dy=0 dh=-80 dv=0 dx=0 dy=0 dh=0 dv=0
PairPos2: "'kern' Horizontal Kerning in Latin lookup 1 per glyph data 1" Y.sc dx=0 dy=0 dh=-80 dv=0 dx=0 dy=0 dh=0 dv=0
PairPos2: "'kern' Horizontal Kerning in Latin lookup 1 per glyph data 1" Ytilde dx=0 dy=0 dh=-80 dv=0 dx=0 dy=0 dh=0 dv=0
PairPos2: "'kern' Horizontal Kerning in Latin lookup 1 per glyph data 1" Yhookabove dx=0 dy=0 dh=-80 dv=0 dx=0 dy=0 dh=0 dv=0
PairPos2: "'kern' Horizontal Kerning in Latin lookup 1 per glyph data 1" Ydotbelow dx=0 dy=0 dh=-80 dv=0 dx=0 dy=0 dh=0 dv=0
PairPos2: "'kern' Horizontal Kerning in Latin lookup 1 per glyph data 1" Ygrave dx=0 dy=0 dh=-80 dv=0 dx=0 dy=0 dh=0 dv=0
PairPos2: "'kern' Horizontal Kerning in Latin lookup 1 per glyph data 1" abrevedotbelow dx=0 dy=0 dh=-20 dv=0 dx=0 dy=0 dh=0 dv=0
PairPos2: "'kern' Horizontal Kerning in Latin lookup 1 per glyph data 1" abrevetilde dx=0 dy=0 dh=-20 dv=0 dx=0 dy=0 dh=0 dv=0
PairPos2: "'kern' Horizontal Kerning in Latin lookup 1 per glyph data 1" abrevehookabove dx=0 dy=0 dh=-20 dv=0 dx=0 dy=0 dh=0 dv=0
PairPos2: "'kern' Horizontal Kerning in Latin lookup 1 per glyph data 1" abrevegrave dx=0 dy=0 dh=-20 dv=0 dx=0 dy=0 dh=0 dv=0
PairPos2: "'kern' Horizontal Kerning in Latin lookup 1 per glyph data 1" abreveacute dx=0 dy=0 dh=-20 dv=0 dx=0 dy=0 dh=0 dv=0
PairPos2: "'kern' Horizontal Kerning in Latin lookup 1 per glyph data 1" acircumflexdotbelow dx=0 dy=0 dh=-20 dv=0 dx=0 dy=0 dh=0 dv=0
PairPos2: "'kern' Horizontal Kerning in Latin lookup 1 per glyph data 1" acircumflextilde dx=0 dy=0 dh=-20 dv=0 dx=0 dy=0 dh=0 dv=0
PairPos2: "'kern' Horizontal Kerning in Latin lookup 1 per glyph data 1" acircumflexhookabove dx=0 dy=0 dh=-20 dv=0 dx=0 dy=0 dh=0 dv=0
PairPos2: "'kern' Horizontal Kerning in Latin lookup 1 per glyph data 1" acircumflexgrave dx=0 dy=0 dh=-20 dv=0 dx=0 dy=0 dh=0 dv=0
PairPos2: "'kern' Horizontal Kerning in Latin lookup 1 per glyph data 1" acircumflexacute dx=0 dy=0 dh=-20 dv=0 dx=0 dy=0 dh=0 dv=0
PairPos2: "'kern' Horizontal Kerning in Latin lookup 1 per glyph data 1" ahookabove dx=0 dy=0 dh=-20 dv=0 dx=0 dy=0 dh=0 dv=0
PairPos2: "'kern' Horizontal Kerning in Latin lookup 1 per glyph data 1" adotbelow dx=0 dy=0 dh=-20 dv=0 dx=0 dy=0 dh=0 dv=0
PairPos2: "'kern' Horizontal Kerning in Latin lookup 1 per glyph data 1" aeacute dx=0 dy=0 dh=-20 dv=0 dx=0 dy=0 dh=0 dv=0
PairPos2: "'kern' Horizontal Kerning in Latin lookup 1 per glyph data 1" aringacute dx=0 dy=0 dh=-20 dv=0 dx=0 dy=0 dh=0 dv=0
PairPos2: "'kern' Horizontal Kerning in Latin lookup 1 per glyph data 1" acaron dx=0 dy=0 dh=-20 dv=0 dx=0 dy=0 dh=0 dv=0
PairPos2: "'kern' Horizontal Kerning in Latin lookup 1 per glyph data 1" Ydieresis dx=0 dy=0 dh=-80 dv=0 dx=0 dy=0 dh=0 dv=0
PairPos2: "'kern' Horizontal Kerning in Latin lookup 1 per glyph data 1" Ycircumflex dx=0 dy=0 dh=-80 dv=0 dx=0 dy=0 dh=0 dv=0
PairPos2: "'kern' Horizontal Kerning in Latin lookup 1 per glyph data 1" gcommaaccent dx=0 dy=0 dh=-20 dv=0 dx=0 dy=0 dh=0 dv=0
PairPos2: "'kern' Horizontal Kerning in Latin lookup 1 per glyph data 1" gdotaccent dx=0 dy=0 dh=-20 dv=0 dx=0 dy=0 dh=0 dv=0
PairPos2: "'kern' Horizontal Kerning in Latin lookup 1 per glyph data 1" gbreve dx=0 dy=0 dh=-20 dv=0 dx=0 dy=0 dh=0 dv=0
PairPos2: "'kern' Horizontal Kerning in Latin lookup 1 per glyph data 1" gcircumflex dx=0 dy=0 dh=-20 dv=0 dx=0 dy=0 dh=0 dv=0
PairPos2: "'kern' Horizontal Kerning in Latin lookup 1 per glyph data 1" aogonek dx=0 dy=0 dh=-20 dv=0 dx=0 dy=0 dh=0 dv=0
PairPos2: "'kern' Horizontal Kerning in Latin lookup 1 per glyph data 1" abreve dx=0 dy=0 dh=-20 dv=0 dx=0 dy=0 dh=0 dv=0
PairPos2: "'kern' Horizontal Kerning in Latin lookup 1 per glyph data 1" amacron dx=0 dy=0 dh=-20 dv=0 dx=0 dy=0 dh=0 dv=0
PairPos2: "'kern' Horizontal Kerning in Latin lookup 1 per glyph data 1" ae dx=0 dy=0 dh=-20 dv=0 dx=0 dy=0 dh=0 dv=0
PairPos2: "'kern' Horizontal Kerning in Latin lookup 1 per glyph data 1" aring dx=0 dy=0 dh=-20 dv=0 dx=0 dy=0 dh=0 dv=0
PairPos2: "'kern' Horizontal Kerning in Latin lookup 1 per glyph data 1" adieresis dx=0 dy=0 dh=-20 dv=0 dx=0 dy=0 dh=0 dv=0
PairPos2: "'kern' Horizontal Kerning in Latin lookup 1 per glyph data 1" atilde dx=0 dy=0 dh=-20 dv=0 dx=0 dy=0 dh=0 dv=0
PairPos2: "'kern' Horizontal Kerning in Latin lookup 1 per glyph data 1" acircumflex dx=0 dy=0 dh=-20 dv=0 dx=0 dy=0 dh=0 dv=0
PairPos2: "'kern' Horizontal Kerning in Latin lookup 1 per glyph data 1" aacute dx=0 dy=0 dh=-20 dv=0 dx=0 dy=0 dh=0 dv=0
PairPos2: "'kern' Horizontal Kerning in Latin lookup 1 per glyph data 1" agrave dx=0 dy=0 dh=-20 dv=0 dx=0 dy=0 dh=0 dv=0
PairPos2: "'kern' Horizontal Kerning in Latin lookup 1 per glyph data 1" Yacute dx=0 dy=0 dh=-80 dv=0 dx=0 dy=0 dh=0 dv=0
PairPos2: "'kern' Horizontal Kerning in Latin lookup 1 per glyph data 1" v dx=0 dy=0 dh=-80 dv=0 dx=0 dy=0 dh=0 dv=0
PairPos2: "'kern' Horizontal Kerning in Latin lookup 1 per glyph data 1" u dx=0 dy=0 dh=-40 dv=0 dx=0 dy=0 dh=0 dv=0
PairPos2: "'kern' Horizontal Kerning in Latin lookup 1 per glyph data 1" t dx=0 dy=0 dh=-40 dv=0 dx=0 dy=0 dh=0 dv=0
PairPos2: "'kern' Horizontal Kerning in Latin lookup 1 per glyph data 1" o dx=0 dy=0 dh=-40 dv=0 dx=0 dy=0 dh=0 dv=0
PairPos2: "'kern' Horizontal Kerning in Latin lookup 1 per glyph data 1" g dx=0 dy=0 dh=-20 dv=0 dx=0 dy=0 dh=0 dv=0
PairPos2: "'kern' Horizontal Kerning in Latin lookup 1 per glyph data 1" a dx=0 dy=0 dh=-20 dv=0 dx=0 dy=0 dh=0 dv=0
PairPos2: "'kern' Horizontal Kerning in Latin lookup 1 per glyph data 1" Y dx=0 dy=0 dh=-80 dv=0 dx=0 dy=0 dh=0 dv=0
PairPos2: "'kern' Horizontal Kerning in Latin lookup 1 per glyph data 1" O dx=0 dy=0 dh=-30 dv=0 dx=0 dy=0 dh=0 dv=0
PairPos2: "'kern' Horizontal Kerning in Latin lookup 1 per glyph data 1" A dx=0 dy=0 dh=30 dv=0 dx=0 dy=0 dh=0 dv=0
PairPos2: "'kern' Horizontal Kerning in Latin lookup 1 per glyph data 1" hyphen dx=0 dy=0 dh=-80 dv=0 dx=0 dy=0 dh=0 dv=0
Position2: "'cpsp' Capital Spacing in Latin lookup 0 subtable" dx=9 dy=0 dh=18 dv=0
EndChar

StartChar: L
Encoding: 76 76 47
Width: 565
GlyphClass: 2
Flags: W
LayerCount: 2
Fore
SplineSet
111 77 m 1,0,-1
 120 163 l 1,1,-1
 120 512 l 2,2,3
 120 551 120 551 111 623 c 1,4,-1
 46 635 l 1,5,-1
 51 710 l 1,6,7
 104 705 104 705 151 705 c 1,8,-1
 345 710 l 1,9,-1
 350 629 l 1,10,-1
 284 623 l 1,11,12
 275 578 275 578 275 542 c 2,13,-1
 275 193 l 2,14,15
 275 143 275 143 283 87 c 1,16,-1
 377 87 l 2,17,18
 416 87 416 87 454 95 c 1,19,20
 472 134 472 134 477 153 c 128,-1,21
 482 172 482 172 485 195 c 1,22,-1
 555 190 l 1,23,-1
 540 14 l 1,24,-1
 521 -4 l 1,25,26
 427 0 427 0 407 0 c 2,27,-1
 150 0 l 1,28,-1
 50 -5 l 1,29,-1
 45 65 l 1,30,-1
 111 77 l 1,0,-1
EndSplineSet
Position2: "'cpsp' Capital Spacing in Latin lookup 0 subtable" dx=9 dy=0 dh=18 dv=0
EndChar

StartChar: M
Encoding: 77 77 48
Width: 980
GlyphClass: 2
Flags: W
LayerCount: 2
Fore
SplineSet
185 705 m 2,0,-1
 326 705 l 1,1,-1
 346 685 l 1,2,3
 377 571 377 571 389 534 c 2,4,-1
 492 221 l 1,5,-1
 604 549 l 1,6,-1
 645 685 l 1,7,-1
 665 705 l 1,8,-1
 762 705 l 1,9,-1
 894 710 l 1,10,-1
 898 638 l 1,11,-1
 834 627 l 1,12,13
 831 600 831 600 831 569 c 1,14,-1
 863 132 l 1,15,16
 866 112 866 112 870.5 96 c 128,-1,17
 875 80 875 80 876 74 c 1,18,-1
 943 68 l 1,19,-1
 938 -5 l 1,20,21
 866 0 866 0 758 0 c 1,22,-1
 655 -5 l 1,23,-1
 650 62 l 1,24,-1
 717 74 l 1,25,26
 721 120 721 120 721 162 c 1,27,-1
 705 518 l 1,28,-1
 521 0 l 1,29,-1
 429 0 l 1,30,-1
 250 518 l 1,31,-1
 231 162 l 1,32,33
 231 120 231 120 235 74 c 1,34,-1
 303 68 l 1,35,-1
 297 -5 l 1,36,37
 251 0 251 0 143 0 c 1,38,-1
 42 -5 l 1,39,-1
 37 62 l 1,40,-1
 105 74 l 1,41,42
 109 87 109 87 119 132 c 1,43,-1
 147 569 l 1,44,45
 147 590 147 590 141 626 c 1,46,-1
 74 638 l 1,47,-1
 79 710 l 1,48,49
 142 705 142 705 185 705 c 2,0,-1
EndSplineSet
Position2: "'cpsp' Capital Spacing in Latin lookup 0 subtable" dx=9 dy=0 dh=18 dv=0
EndChar

StartChar: N
Encoding: 78 78 49
Width: 802
GlyphClass: 2
Flags: W
LayerCount: 2
Fore
SplineSet
707 542 m 2,0,-1
 707 0 l 1,1,-1
 572 0 l 1,2,-1
 247 450 l 1,3,-1
 247 193 l 2,4,5
 247 167 247 167 256 77 c 1,6,-1
 321 71 l 1,7,-1
 316 -5 l 1,8,9
 263 0 263 0 150 0 c 1,10,-1
 50 -5 l 1,11,-1
 45 65 l 1,12,-1
 111 77 l 1,13,14
 120 126 120 126 120 163 c 2,15,-1
 120 512 l 2,16,17
 120 574 120 574 111 623 c 1,18,-1
 46 635 l 1,19,-1
 51 710 l 1,20,21
 104 705 104 705 151 705 c 2,22,-1
 253 705 l 1,23,-1
 272 685 l 1,24,25
 345 559 345 559 360 537 c 2,26,-1
 580 230 l 1,27,-1
 580 512 l 2,28,29
 580 551 580 551 571 623 c 1,30,-1
 506 635 l 1,31,-1
 511 710 l 1,32,-1
 611 705 l 1,33,-1
 777 710 l 1,34,-1
 782 629 l 1,35,-1
 716 623 l 1,36,37
 707 569 707 569 707 542 c 2,0,-1
EndSplineSet
PairPos2: "'kern' Horizontal Kerning in Latin lookup 1 per glyph data 1" idotaccent dx=0 dy=0 dh=-30 dv=0 dx=0 dy=0 dh=0 dv=0
PairPos2: "'kern' Horizontal Kerning in Latin lookup 1 per glyph data 1" ocircumflexdotbelow dx=0 dy=0 dh=-40 dv=0 dx=0 dy=0 dh=0 dv=0
PairPos2: "'kern' Horizontal Kerning in Latin lookup 1 per glyph data 1" ohorndotbelow dx=0 dy=0 dh=-40 dv=0 dx=0 dy=0 dh=0 dv=0
PairPos2: "'kern' Horizontal Kerning in Latin lookup 1 per glyph data 1" ohorntilde dx=0 dy=0 dh=-40 dv=0 dx=0 dy=0 dh=0 dv=0
PairPos2: "'kern' Horizontal Kerning in Latin lookup 1 per glyph data 1" ohornhookabove dx=0 dy=0 dh=-40 dv=0 dx=0 dy=0 dh=0 dv=0
PairPos2: "'kern' Horizontal Kerning in Latin lookup 1 per glyph data 1" ohorngrave dx=0 dy=0 dh=-40 dv=0 dx=0 dy=0 dh=0 dv=0
PairPos2: "'kern' Horizontal Kerning in Latin lookup 1 per glyph data 1" ohornacute dx=0 dy=0 dh=-40 dv=0 dx=0 dy=0 dh=0 dv=0
PairPos2: "'kern' Horizontal Kerning in Latin lookup 1 per glyph data 1" ocircumflextilde dx=0 dy=0 dh=-40 dv=0 dx=0 dy=0 dh=0 dv=0
PairPos2: "'kern' Horizontal Kerning in Latin lookup 1 per glyph data 1" ocircumflexhookabove dx=0 dy=0 dh=-40 dv=0 dx=0 dy=0 dh=0 dv=0
PairPos2: "'kern' Horizontal Kerning in Latin lookup 1 per glyph data 1" ocircumflexgrave dx=0 dy=0 dh=-40 dv=0 dx=0 dy=0 dh=0 dv=0
PairPos2: "'kern' Horizontal Kerning in Latin lookup 1 per glyph data 1" ocircumflexacute dx=0 dy=0 dh=-40 dv=0 dx=0 dy=0 dh=0 dv=0
PairPos2: "'kern' Horizontal Kerning in Latin lookup 1 per glyph data 1" ohookabove dx=0 dy=0 dh=-40 dv=0 dx=0 dy=0 dh=0 dv=0
PairPos2: "'kern' Horizontal Kerning in Latin lookup 1 per glyph data 1" odotbelow dx=0 dy=0 dh=-40 dv=0 dx=0 dy=0 dh=0 dv=0
PairPos2: "'kern' Horizontal Kerning in Latin lookup 1 per glyph data 1" idotbelow dx=0 dy=0 dh=-30 dv=0 dx=0 dy=0 dh=0 dv=0
PairPos2: "'kern' Horizontal Kerning in Latin lookup 1 per glyph data 1" ihookabove dx=0 dy=0 dh=-30 dv=0 dx=0 dy=0 dh=0 dv=0
PairPos2: "'kern' Horizontal Kerning in Latin lookup 1 per glyph data 1" ecircumflexdotbelow dx=0 dy=0 dh=-40 dv=0 dx=0 dy=0 dh=0 dv=0
PairPos2: "'kern' Horizontal Kerning in Latin lookup 1 per glyph data 1" ecircumflextilde dx=0 dy=0 dh=-40 dv=0 dx=0 dy=0 dh=0 dv=0
PairPos2: "'kern' Horizontal Kerning in Latin lookup 1 per glyph data 1" ecircumflexhookabove dx=0 dy=0 dh=-40 dv=0 dx=0 dy=0 dh=0 dv=0
PairPos2: "'kern' Horizontal Kerning in Latin lookup 1 per glyph data 1" ecircumflexgrave dx=0 dy=0 dh=-40 dv=0 dx=0 dy=0 dh=0 dv=0
PairPos2: "'kern' Horizontal Kerning in Latin lookup 1 per glyph data 1" ecircumflexacute dx=0 dy=0 dh=-40 dv=0 dx=0 dy=0 dh=0 dv=0
PairPos2: "'kern' Horizontal Kerning in Latin lookup 1 per glyph data 1" etilde dx=0 dy=0 dh=-40 dv=0 dx=0 dy=0 dh=0 dv=0
PairPos2: "'kern' Horizontal Kerning in Latin lookup 1 per glyph data 1" ehookabove dx=0 dy=0 dh=-40 dv=0 dx=0 dy=0 dh=0 dv=0
PairPos2: "'kern' Horizontal Kerning in Latin lookup 1 per glyph data 1" edotbelow dx=0 dy=0 dh=-40 dv=0 dx=0 dy=0 dh=0 dv=0
PairPos2: "'kern' Horizontal Kerning in Latin lookup 1 per glyph data 1" abrevedotbelow dx=0 dy=0 dh=-30 dv=0 dx=0 dy=0 dh=0 dv=0
PairPos2: "'kern' Horizontal Kerning in Latin lookup 1 per glyph data 1" abrevetilde dx=0 dy=0 dh=-30 dv=0 dx=0 dy=0 dh=0 dv=0
PairPos2: "'kern' Horizontal Kerning in Latin lookup 1 per glyph data 1" abrevehookabove dx=0 dy=0 dh=-30 dv=0 dx=0 dy=0 dh=0 dv=0
PairPos2: "'kern' Horizontal Kerning in Latin lookup 1 per glyph data 1" abrevegrave dx=0 dy=0 dh=-30 dv=0 dx=0 dy=0 dh=0 dv=0
PairPos2: "'kern' Horizontal Kerning in Latin lookup 1 per glyph data 1" abreveacute dx=0 dy=0 dh=-30 dv=0 dx=0 dy=0 dh=0 dv=0
PairPos2: "'kern' Horizontal Kerning in Latin lookup 1 per glyph data 1" acircumflexdotbelow dx=0 dy=0 dh=-30 dv=0 dx=0 dy=0 dh=0 dv=0
PairPos2: "'kern' Horizontal Kerning in Latin lookup 1 per glyph data 1" acircumflextilde dx=0 dy=0 dh=-30 dv=0 dx=0 dy=0 dh=0 dv=0
PairPos2: "'kern' Horizontal Kerning in Latin lookup 1 per glyph data 1" acircumflexhookabove dx=0 dy=0 dh=-30 dv=0 dx=0 dy=0 dh=0 dv=0
PairPos2: "'kern' Horizontal Kerning in Latin lookup 1 per glyph data 1" acircumflexgrave dx=0 dy=0 dh=-30 dv=0 dx=0 dy=0 dh=0 dv=0
PairPos2: "'kern' Horizontal Kerning in Latin lookup 1 per glyph data 1" acircumflexacute dx=0 dy=0 dh=-30 dv=0 dx=0 dy=0 dh=0 dv=0
PairPos2: "'kern' Horizontal Kerning in Latin lookup 1 per glyph data 1" ahookabove dx=0 dy=0 dh=-30 dv=0 dx=0 dy=0 dh=0 dv=0
PairPos2: "'kern' Horizontal Kerning in Latin lookup 1 per glyph data 1" adotbelow dx=0 dy=0 dh=-30 dv=0 dx=0 dy=0 dh=0 dv=0
PairPos2: "'kern' Horizontal Kerning in Latin lookup 1 per glyph data 1" dotlessj dx=0 dy=0 dh=-20 dv=0 dx=0 dy=0 dh=0 dv=0
PairPos2: "'kern' Horizontal Kerning in Latin lookup 1 per glyph data 1" oslashacute dx=0 dy=0 dh=-40 dv=0 dx=0 dy=0 dh=0 dv=0
PairPos2: "'kern' Horizontal Kerning in Latin lookup 1 per glyph data 1" aeacute dx=0 dy=0 dh=-30 dv=0 dx=0 dy=0 dh=0 dv=0
PairPos2: "'kern' Horizontal Kerning in Latin lookup 1 per glyph data 1" aringacute dx=0 dy=0 dh=-30 dv=0 dx=0 dy=0 dh=0 dv=0
PairPos2: "'kern' Horizontal Kerning in Latin lookup 1 per glyph data 1" oogonek dx=0 dy=0 dh=-40 dv=0 dx=0 dy=0 dh=0 dv=0
PairPos2: "'kern' Horizontal Kerning in Latin lookup 1 per glyph data 1" ocaron dx=0 dy=0 dh=-40 dv=0 dx=0 dy=0 dh=0 dv=0
PairPos2: "'kern' Horizontal Kerning in Latin lookup 1 per glyph data 1" icaron dx=0 dy=0 dh=-30 dv=0 dx=0 dy=0 dh=0 dv=0
PairPos2: "'kern' Horizontal Kerning in Latin lookup 1 per glyph data 1" acaron dx=0 dy=0 dh=-30 dv=0 dx=0 dy=0 dh=0 dv=0
PairPos2: "'kern' Horizontal Kerning in Latin lookup 1 per glyph data 1" ohorn dx=0 dy=0 dh=-40 dv=0 dx=0 dy=0 dh=0 dv=0
PairPos2: "'kern' Horizontal Kerning in Latin lookup 1 per glyph data 1" rcaron dx=0 dy=0 dh=-30 dv=0 dx=0 dy=0 dh=0 dv=0
PairPos2: "'kern' Horizontal Kerning in Latin lookup 1 per glyph data 1" rcommaaccent dx=0 dy=0 dh=-30 dv=0 dx=0 dy=0 dh=0 dv=0
PairPos2: "'kern' Horizontal Kerning in Latin lookup 1 per glyph data 1" racute dx=0 dy=0 dh=-30 dv=0 dx=0 dy=0 dh=0 dv=0
PairPos2: "'kern' Horizontal Kerning in Latin lookup 1 per glyph data 1" oe dx=0 dy=0 dh=-40 dv=0 dx=0 dy=0 dh=0 dv=0
PairPos2: "'kern' Horizontal Kerning in Latin lookup 1 per glyph data 1" ohungarumlaut dx=0 dy=0 dh=-40 dv=0 dx=0 dy=0 dh=0 dv=0
PairPos2: "'kern' Horizontal Kerning in Latin lookup 1 per glyph data 1" obreve dx=0 dy=0 dh=-40 dv=0 dx=0 dy=0 dh=0 dv=0
PairPos2: "'kern' Horizontal Kerning in Latin lookup 1 per glyph data 1" omacron dx=0 dy=0 dh=-40 dv=0 dx=0 dy=0 dh=0 dv=0
PairPos2: "'kern' Horizontal Kerning in Latin lookup 1 per glyph data 1" ncaron dx=0 dy=0 dh=-30 dv=0 dx=0 dy=0 dh=0 dv=0
PairPos2: "'kern' Horizontal Kerning in Latin lookup 1 per glyph data 1" ncommaaccent dx=0 dy=0 dh=-30 dv=0 dx=0 dy=0 dh=0 dv=0
PairPos2: "'kern' Horizontal Kerning in Latin lookup 1 per glyph data 1" nacute dx=0 dy=0 dh=-30 dv=0 dx=0 dy=0 dh=0 dv=0
PairPos2: "'kern' Horizontal Kerning in Latin lookup 1 per glyph data 1" jcircumflex dx=0 dy=0 dh=-20 dv=0 dx=0 dy=0 dh=0 dv=0
PairPos2: "'kern' Horizontal Kerning in Latin lookup 1 per glyph data 1" ij dx=0 dy=0 dh=-30 dv=0 dx=0 dy=0 dh=0 dv=0
PairPos2: "'kern' Horizontal Kerning in Latin lookup 1 per glyph data 1" iogonek dx=0 dy=0 dh=-30 dv=0 dx=0 dy=0 dh=0 dv=0
PairPos2: "'kern' Horizontal Kerning in Latin lookup 1 per glyph data 1" ibreve dx=0 dy=0 dh=-30 dv=0 dx=0 dy=0 dh=0 dv=0
PairPos2: "'kern' Horizontal Kerning in Latin lookup 1 per glyph data 1" imacron dx=0 dy=0 dh=-30 dv=0 dx=0 dy=0 dh=0 dv=0
PairPos2: "'kern' Horizontal Kerning in Latin lookup 1 per glyph data 1" itilde dx=0 dy=0 dh=-30 dv=0 dx=0 dy=0 dh=0 dv=0
PairPos2: "'kern' Horizontal Kerning in Latin lookup 1 per glyph data 1" gcommaaccent dx=0 dy=0 dh=-30 dv=0 dx=0 dy=0 dh=0 dv=0
PairPos2: "'kern' Horizontal Kerning in Latin lookup 1 per glyph data 1" gdotaccent dx=0 dy=0 dh=-30 dv=0 dx=0 dy=0 dh=0 dv=0
PairPos2: "'kern' Horizontal Kerning in Latin lookup 1 per glyph data 1" gbreve dx=0 dy=0 dh=-30 dv=0 dx=0 dy=0 dh=0 dv=0
PairPos2: "'kern' Horizontal Kerning in Latin lookup 1 per glyph data 1" gcircumflex dx=0 dy=0 dh=-30 dv=0 dx=0 dy=0 dh=0 dv=0
PairPos2: "'kern' Horizontal Kerning in Latin lookup 1 per glyph data 1" ecaron dx=0 dy=0 dh=-40 dv=0 dx=0 dy=0 dh=0 dv=0
PairPos2: "'kern' Horizontal Kerning in Latin lookup 1 per glyph data 1" eogonek dx=0 dy=0 dh=-40 dv=0 dx=0 dy=0 dh=0 dv=0
PairPos2: "'kern' Horizontal Kerning in Latin lookup 1 per glyph data 1" edotaccent dx=0 dy=0 dh=-40 dv=0 dx=0 dy=0 dh=0 dv=0
PairPos2: "'kern' Horizontal Kerning in Latin lookup 1 per glyph data 1" ebreve dx=0 dy=0 dh=-40 dv=0 dx=0 dy=0 dh=0 dv=0
PairPos2: "'kern' Horizontal Kerning in Latin lookup 1 per glyph data 1" emacron dx=0 dy=0 dh=-40 dv=0 dx=0 dy=0 dh=0 dv=0
PairPos2: "'kern' Horizontal Kerning in Latin lookup 1 per glyph data 1" dcroat dx=0 dy=0 dh=-40 dv=0 dx=0 dy=0 dh=0 dv=0
PairPos2: "'kern' Horizontal Kerning in Latin lookup 1 per glyph data 1" dcaron dx=0 dy=0 dh=-40 dv=0 dx=0 dy=0 dh=0 dv=0
PairPos2: "'kern' Horizontal Kerning in Latin lookup 1 per glyph data 1" ccaron dx=0 dy=0 dh=-40 dv=0 dx=0 dy=0 dh=0 dv=0
PairPos2: "'kern' Horizontal Kerning in Latin lookup 1 per glyph data 1" cdotaccent dx=0 dy=0 dh=-40 dv=0 dx=0 dy=0 dh=0 dv=0
PairPos2: "'kern' Horizontal Kerning in Latin lookup 1 per glyph data 1" ccircumflex dx=0 dy=0 dh=-40 dv=0 dx=0 dy=0 dh=0 dv=0
PairPos2: "'kern' Horizontal Kerning in Latin lookup 1 per glyph data 1" cacute dx=0 dy=0 dh=-40 dv=0 dx=0 dy=0 dh=0 dv=0
PairPos2: "'kern' Horizontal Kerning in Latin lookup 1 per glyph data 1" aogonek dx=0 dy=0 dh=-30 dv=0 dx=0 dy=0 dh=0 dv=0
PairPos2: "'kern' Horizontal Kerning in Latin lookup 1 per glyph data 1" abreve dx=0 dy=0 dh=-30 dv=0 dx=0 dy=0 dh=0 dv=0
PairPos2: "'kern' Horizontal Kerning in Latin lookup 1 per glyph data 1" amacron dx=0 dy=0 dh=-30 dv=0 dx=0 dy=0 dh=0 dv=0
PairPos2: "'kern' Horizontal Kerning in Latin lookup 1 per glyph data 1" oslash dx=0 dy=0 dh=-40 dv=0 dx=0 dy=0 dh=0 dv=0
PairPos2: "'kern' Horizontal Kerning in Latin lookup 1 per glyph data 1" odieresis dx=0 dy=0 dh=-40 dv=0 dx=0 dy=0 dh=0 dv=0
PairPos2: "'kern' Horizontal Kerning in Latin lookup 1 per glyph data 1" otilde dx=0 dy=0 dh=-40 dv=0 dx=0 dy=0 dh=0 dv=0
PairPos2: "'kern' Horizontal Kerning in Latin lookup 1 per glyph data 1" ocircumflex dx=0 dy=0 dh=-40 dv=0 dx=0 dy=0 dh=0 dv=0
PairPos2: "'kern' Horizontal Kerning in Latin lookup 1 per glyph data 1" oacute dx=0 dy=0 dh=-40 dv=0 dx=0 dy=0 dh=0 dv=0
PairPos2: "'kern' Horizontal Kerning in Latin lookup 1 per glyph data 1" ograve dx=0 dy=0 dh=-40 dv=0 dx=0 dy=0 dh=0 dv=0
PairPos2: "'kern' Horizontal Kerning in Latin lookup 1 per glyph data 1" ntilde dx=0 dy=0 dh=-30 dv=0 dx=0 dy=0 dh=0 dv=0
PairPos2: "'kern' Horizontal Kerning in Latin lookup 1 per glyph data 1" eth dx=0 dy=0 dh=-40 dv=0 dx=0 dy=0 dh=0 dv=0
PairPos2: "'kern' Horizontal Kerning in Latin lookup 1 per glyph data 1" idieresis dx=0 dy=0 dh=-30 dv=0 dx=0 dy=0 dh=0 dv=0
PairPos2: "'kern' Horizontal Kerning in Latin lookup 1 per glyph data 1" icircumflex dx=0 dy=0 dh=-30 dv=0 dx=0 dy=0 dh=0 dv=0
PairPos2: "'kern' Horizontal Kerning in Latin lookup 1 per glyph data 1" iacute dx=0 dy=0 dh=-30 dv=0 dx=0 dy=0 dh=0 dv=0
PairPos2: "'kern' Horizontal Kerning in Latin lookup 1 per glyph data 1" igrave dx=0 dy=0 dh=-30 dv=0 dx=0 dy=0 dh=0 dv=0
PairPos2: "'kern' Horizontal Kerning in Latin lookup 1 per glyph data 1" edieresis dx=0 dy=0 dh=-40 dv=0 dx=0 dy=0 dh=0 dv=0
PairPos2: "'kern' Horizontal Kerning in Latin lookup 1 per glyph data 1" ecircumflex dx=0 dy=0 dh=-40 dv=0 dx=0 dy=0 dh=0 dv=0
PairPos2: "'kern' Horizontal Kerning in Latin lookup 1 per glyph data 1" eacute dx=0 dy=0 dh=-40 dv=0 dx=0 dy=0 dh=0 dv=0
PairPos2: "'kern' Horizontal Kerning in Latin lookup 1 per glyph data 1" egrave dx=0 dy=0 dh=-40 dv=0 dx=0 dy=0 dh=0 dv=0
PairPos2: "'kern' Horizontal Kerning in Latin lookup 1 per glyph data 1" ccedilla dx=0 dy=0 dh=-40 dv=0 dx=0 dy=0 dh=0 dv=0
PairPos2: "'kern' Horizontal Kerning in Latin lookup 1 per glyph data 1" ae dx=0 dy=0 dh=-30 dv=0 dx=0 dy=0 dh=0 dv=0
PairPos2: "'kern' Horizontal Kerning in Latin lookup 1 per glyph data 1" aring dx=0 dy=0 dh=-30 dv=0 dx=0 dy=0 dh=0 dv=0
PairPos2: "'kern' Horizontal Kerning in Latin lookup 1 per glyph data 1" adieresis dx=0 dy=0 dh=-30 dv=0 dx=0 dy=0 dh=0 dv=0
PairPos2: "'kern' Horizontal Kerning in Latin lookup 1 per glyph data 1" atilde dx=0 dy=0 dh=-30 dv=0 dx=0 dy=0 dh=0 dv=0
PairPos2: "'kern' Horizontal Kerning in Latin lookup 1 per glyph data 1" acircumflex dx=0 dy=0 dh=-30 dv=0 dx=0 dy=0 dh=0 dv=0
PairPos2: "'kern' Horizontal Kerning in Latin lookup 1 per glyph data 1" aacute dx=0 dy=0 dh=-30 dv=0 dx=0 dy=0 dh=0 dv=0
PairPos2: "'kern' Horizontal Kerning in Latin lookup 1 per glyph data 1" agrave dx=0 dy=0 dh=-30 dv=0 dx=0 dy=0 dh=0 dv=0
PairPos2: "'kern' Horizontal Kerning in Latin lookup 1 per glyph data 1" v dx=0 dy=0 dh=-40 dv=0 dx=0 dy=0 dh=0 dv=0
PairPos2: "'kern' Horizontal Kerning in Latin lookup 1 per glyph data 1" u dx=0 dy=0 dh=-20 dv=0 dx=0 dy=0 dh=0 dv=0
PairPos2: "'kern' Horizontal Kerning in Latin lookup 1 per glyph data 1" t dx=0 dy=0 dh=-10 dv=0 dx=0 dy=0 dh=0 dv=0
PairPos2: "'kern' Horizontal Kerning in Latin lookup 1 per glyph data 1" r dx=0 dy=0 dh=-30 dv=0 dx=0 dy=0 dh=0 dv=0
PairPos2: "'kern' Horizontal Kerning in Latin lookup 1 per glyph data 1" q dx=0 dy=0 dh=-40 dv=0 dx=0 dy=0 dh=0 dv=0
PairPos2: "'kern' Horizontal Kerning in Latin lookup 1 per glyph data 1" p dx=0 dy=0 dh=-30 dv=0 dx=0 dy=0 dh=0 dv=0
PairPos2: "'kern' Horizontal Kerning in Latin lookup 1 per glyph data 1" o dx=0 dy=0 dh=-20 dv=0 dx=0 dy=0 dh=0 dv=0
PairPos2: "'kern' Horizontal Kerning in Latin lookup 1 per glyph data 1" n dx=0 dy=0 dh=-30 dv=0 dx=0 dy=0 dh=0 dv=0
PairPos2: "'kern' Horizontal Kerning in Latin lookup 1 per glyph data 1" m dx=0 dy=0 dh=-30 dv=0 dx=0 dy=0 dh=0 dv=0
PairPos2: "'kern' Horizontal Kerning in Latin lookup 1 per glyph data 1" j dx=0 dy=0 dh=-20 dv=0 dx=0 dy=0 dh=0 dv=0
PairPos2: "'kern' Horizontal Kerning in Latin lookup 1 per glyph data 1" i dx=0 dy=0 dh=-30 dv=0 dx=0 dy=0 dh=0 dv=0
PairPos2: "'kern' Horizontal Kerning in Latin lookup 1 per glyph data 1" g dx=0 dy=0 dh=-20 dv=0 dx=0 dy=0 dh=0 dv=0
PairPos2: "'kern' Horizontal Kerning in Latin lookup 1 per glyph data 1" e dx=0 dy=0 dh=-40 dv=0 dx=0 dy=0 dh=0 dv=0
PairPos2: "'kern' Horizontal Kerning in Latin lookup 1 per glyph data 1" d dx=0 dy=0 dh=-40 dv=0 dx=0 dy=0 dh=0 dv=0
PairPos2: "'kern' Horizontal Kerning in Latin lookup 1 per glyph data 1" c dx=0 dy=0 dh=-40 dv=0 dx=0 dy=0 dh=0 dv=0
PairPos2: "'kern' Horizontal Kerning in Latin lookup 1 per glyph data 1" a dx=0 dy=0 dh=-30 dv=0 dx=0 dy=0 dh=0 dv=0
PairPos2: "'kern' Horizontal Kerning in Latin lookup 1 per glyph data 1" hyphen dx=0 dy=0 dh=-30 dv=0 dx=0 dy=0 dh=0 dv=0
Position2: "'cpsp' Capital Spacing in Latin lookup 0 subtable" dx=9 dy=0 dh=18 dv=0
EndChar

StartChar: O
Encoding: 79 79 50
Width: 768
GlyphClass: 2
Flags: W
LayerCount: 2
Fore
SplineSet
644 623 m 128,-1,1
 741 522 741 522 741 352.5 c 128,-1,2
 741 183 741 183 644 82 c 128,-1,3
 547 -19 547 -19 384 -19 c 128,-1,4
 221 -19 221 -19 124 82 c 128,-1,5
 27 183 27 183 27 352.5 c 128,-1,6
 27 522 27 522 124 623 c 128,-1,7
 221 724 221 724 384 724 c 128,-1,0
 547 724 547 724 644 623 c 128,-1,1
250.5 559.5 m 128,-1,9
 207 492 207 492 207 352.5 c 128,-1,10
 207 213 207 213 250.5 145.5 c 128,-1,11
 294 78 294 78 384 78 c 128,-1,12
 474 78 474 78 517.5 145.5 c 128,-1,13
 561 213 561 213 561 352.5 c 128,-1,14
 561 492 561 492 517.5 559.5 c 128,-1,15
 474 627 474 627 384 627 c 128,-1,8
 294 627 294 627 250.5 559.5 c 128,-1,9
EndSplineSet
Position2: "'cpsp' Capital Spacing in Latin lookup 0 subtable" dx=9 dy=0 dh=18 dv=0
EndChar

StartChar: P
Encoding: 80 80 51
Width: 616
GlyphClass: 2
Flags: W
LayerCount: 2
Fore
SplineSet
150 705 m 1,0,-1
 365 715 l 1,1,2
 472 715 472 715 536.5 657 c 128,-1,3
 601 599 601 599 601 496.5 c 128,-1,4
 601 394 601 394 521.5 332.5 c 128,-1,5
 442 271 442 271 330 271 c 2,6,-1
 275 271 l 1,7,-1
 275 193 l 2,8,9
 275 140 275 140 284 77 c 1,10,-1
 359 71 l 1,11,-1
 354 -5 l 1,12,13
 263 0 263 0 150 0 c 1,14,-1
 50 -5 l 1,15,-1
 45 65 l 1,16,-1
 111 77 l 1,17,18
 111 77 111 77 120 163 c 1,19,-1
 120 512 l 2,20,21
 120 551 120 551 111 623 c 1,22,-1
 46 635 l 1,23,-1
 51 710 l 1,24,25
 103 705 103 705 150 705 c 1,0,-1
307 633 m 1,26,-1
 279 632 l 1,27,28
 275 580 275 580 275 542 c 2,29,-1
 275 353 l 1,30,-1
 292 353 l 2,31,32
 361 353 361 353 400.5 391 c 128,-1,33
 440 429 440 429 440 498.5 c 128,-1,34
 440 568 440 568 408.5 600.5 c 128,-1,35
 377 633 377 633 307 633 c 1,26,-1
EndSplineSet
Position2: "'cpsp' Capital Spacing in Latin lookup 0 subtable" dx=9 dy=0 dh=18 dv=0
EndChar

StartChar: Q
Encoding: 81 81 52
Width: 774
GlyphClass: 2
Flags: W
LayerCount: 2
Fore
SplineSet
384 -19 m 2,0,1
 221 -19 221 -19 124 82 c 128,-1,2
 27 183 27 183 27 352.5 c 128,-1,3
 27 522 27 522 124 623 c 128,-1,4
 221 724 221 724 384 724 c 128,-1,5
 547 724 547 724 644 623 c 128,-1,6
 741 522 741 522 741 352 c 0,7,8
 741 232 741 232 689.5 144 c 128,-1,9
 638 56 638 56 546 14 c 1,10,-1
 615 -32 l 1,11,-1
 773 -100 l 1,12,-1
 683 -224 l 1,13,-1
 405 -19 l 1,14,-1
 384 -19 l 2,0,1
250.5 559.5 m 128,-1,16
 207 492 207 492 207 352.5 c 128,-1,17
 207 213 207 213 250.5 145.5 c 128,-1,18
 294 78 294 78 384 78 c 128,-1,19
 474 78 474 78 517.5 145.5 c 128,-1,20
 561 213 561 213 561 352.5 c 128,-1,21
 561 492 561 492 517.5 559.5 c 128,-1,22
 474 627 474 627 384 627 c 128,-1,15
 294 627 294 627 250.5 559.5 c 128,-1,16
EndSplineSet
Position2: "'cpsp' Capital Spacing in Latin lookup 0 subtable" dx=9 dy=0 dh=18 dv=0
EndChar

StartChar: R
Encoding: 82 82 53
Width: 661
GlyphClass: 2
Flags: W
LayerCount: 2
Fore
SplineSet
154 705 m 1,0,-1
 360 715 l 1,1,2
 466 715 466 715 530 658.5 c 128,-1,3
 594 602 594 602 594 504 c 0,4,5
 594 442 594 442 561 393 c 128,-1,6
 528 344 528 344 472 314 c 1,7,8
 503 252 503 252 579 131 c 2,9,-1
 614 75 l 1,10,-1
 662 71 l 1,11,-1
 657 -5 l 1,12,13
 579 0 579 0 466 0 c 1,14,15
 430 92 430 92 417 116 c 2,16,-1
 334 277 l 1,17,-1
 319 277 l 2,18,19
 300 277 300 277 275 280 c 1,20,-1
 275 193 l 2,21,22
 275 140 275 140 284 77 c 1,23,-1
 349 71 l 1,24,-1
 344 -5 l 1,25,26
 263 0 263 0 150 0 c 1,27,-1
 50 -5 l 1,28,-1
 45 65 l 1,29,-1
 111 77 l 1,30,-1
 120 163 l 1,31,-1
 120 512 l 2,32,33
 120 538 120 538 111 623 c 1,34,-1
 46 635 l 1,35,-1
 51 710 l 1,36,37
 104 705 104 705 154 705 c 1,0,-1
302 633 m 0,38,39
 290 633 290 633 281 632 c 1,40,41
 275 572 275 572 275 542 c 2,42,-1
 275 361 l 1,43,-1
 299 361 l 2,44,45
 369 361 369 361 401 396 c 128,-1,46
 433 431 433 431 433 502 c 0,47,48
 433 633 433 633 302 633 c 0,38,39
EndSplineSet
Position2: "'cpsp' Capital Spacing in Latin lookup 0 subtable" dx=9 dy=0 dh=18 dv=0
EndChar

StartChar: S
Encoding: 83 83 54
Width: 573
GlyphClass: 2
Flags: W
LayerCount: 2
Fore
SplineSet
142 221 m 1,0,1
 143 163 143 163 143 153.5 c 128,-1,2
 143 144 143 144 157 110 c 1,3,4
 210 82 210 82 260 82 c 128,-1,5
 310 82 310 82 339.5 103.5 c 128,-1,6
 369 125 369 125 369 162.5 c 128,-1,7
 369 200 369 200 345.5 227 c 128,-1,8
 322 254 322 254 286.5 270.5 c 128,-1,9
 251 287 251 287 210 309.5 c 128,-1,10
 169 332 169 332 133.5 356 c 128,-1,11
 98 380 98 380 74.5 422.5 c 128,-1,12
 51 465 51 465 51 521 c 0,13,14
 51 612 51 612 116.5 666 c 128,-1,15
 182 720 182 720 284 720 c 128,-1,16
 386 720 386 720 506 684 c 1,17,-1
 492 491 l 1,18,-1
 409 496 l 1,19,-1
 409 570 l 2,20,21
 409 575 409 575 397 604 c 1,22,23
 355 627 355 627 312.5 627 c 128,-1,24
 270 627 270 627 243 605.5 c 128,-1,25
 216 584 216 584 216 547 c 128,-1,26
 216 510 216 510 249 482 c 128,-1,27
 282 454 282 454 328.5 433 c 128,-1,28
 375 412 375 412 421.5 386 c 128,-1,29
 468 360 468 360 501 314 c 128,-1,30
 534 268 534 268 534 204 c 0,31,32
 534 104 534 104 461 44.5 c 128,-1,33
 388 -15 388 -15 277 -15 c 0,34,35
 217 -15 217 -15 158.5 -3 c 128,-1,36
 100 9 100 9 72 21 c 2,37,-1
 44 33 l 1,38,-1
 59 226 l 1,39,-1
 142 221 l 1,0,1
EndSplineSet
Position2: "'cpsp' Capital Spacing in Latin lookup 0 subtable" dx=9 dy=0 dh=18 dv=0
EndChar

StartChar: T
Encoding: 84 84 55
Width: 626
GlyphClass: 2
Flags: W
LayerCount: 2
Fore
SplineSet
227 77 m 1,0,-1
 236 163 l 1,1,-1
 236 512 l 2,2,3
 236 546 236 546 227 623 c 1,4,-1
 180 623 l 2,5,6
 150 623 150 623 100 618 c 1,7,8
 91 596 91 596 88 584.5 c 128,-1,9
 85 573 85 573 82 526 c 1,10,-1
 10 531 l 1,11,-1
 17 697 l 1,12,-1
 36 715 l 1,13,14
 130 705 130 705 150 705 c 2,15,-1
 476 705 l 1,16,-1
 590 715 l 1,17,-1
 609 697 l 1,18,-1
 617 531 l 1,19,-1
 545 526 l 1,20,21
 542 573 542 573 539 584.5 c 128,-1,22
 536 596 536 596 527 618 c 1,23,24
 482 623 482 623 451 623 c 2,25,-1
 400 623 l 1,26,27
 391 575 391 575 391 542 c 2,28,-1
 391 193 l 2,29,30
 391 140 391 140 400 77 c 1,31,-1
 465 71 l 1,32,-1
 460 -5 l 1,33,34
 379 0 379 0 266 0 c 1,35,-1
 166 -5 l 1,36,-1
 161 65 l 1,37,-1
 227 77 l 1,0,-1
EndSplineSet
Position2: "'cpsp' Capital Spacing in Latin lookup 0 subtable" dx=9 dy=0 dh=18 dv=0
EndChar

StartChar: U
Encoding: 85 85 56
Width: 779
GlyphClass: 2
Flags: W
LayerCount: 2
Fore
SplineSet
679 542 m 2,0,-1
 679 268 l 2,1,2
 679 137 679 137 604 61 c 128,-1,3
 529 -15 529 -15 389 -15 c 128,-1,4
 249 -15 249 -15 174.5 61 c 128,-1,5
 100 137 100 137 100 268 c 2,6,-1
 100 512 l 2,7,8
 100 581 100 581 91 623 c 1,9,-1
 26 635 l 1,10,-1
 31 710 l 1,11,12
 84 705 84 705 131 705 c 1,13,-1
 330 710 l 1,14,-1
 335 629 l 1,15,-1
 269 623 l 1,16,17
 260 590 260 590 260 542 c 2,18,-1
 260 260 l 2,19,20
 260 190 260 190 298.5 144.5 c 128,-1,21
 337 99 337 99 409.5 99 c 128,-1,22
 482 99 482 99 514.5 140 c 128,-1,23
 547 181 547 181 547 260 c 2,24,-1
 547 512 l 2,25,26
 547 556 547 556 538 623 c 1,27,-1
 473 635 l 1,28,-1
 478 710 l 1,29,30
 531 705 531 705 578 705 c 1,31,-1
 749 710 l 1,32,-1
 754 629 l 1,33,-1
 688 623 l 1,34,35
 679 581 679 581 679 542 c 2,0,-1
EndSplineSet
Position2: "'cpsp' Capital Spacing in Latin lookup 0 subtable" dx=9 dy=0 dh=18 dv=0
EndChar

StartChar: V
Encoding: 86 86 57
Width: 707
GlyphClass: 2
Flags: W
LayerCount: 2
Fore
SplineSet
295 0 m 1,0,-1
 86 577 l 2,1,2
 80 594 80 594 59 631 c 1,3,-1
 -1 640 l 1,4,-1
 4 710 l 1,5,6
 59 705 59 705 96 705 c 2,7,-1
 304 710 l 1,8,-1
 309 637 l 1,9,-1
 244 628 l 1,10,11
 246 594 246 594 252 576 c 2,12,-1
 368 207 l 1,13,-1
 495 590 l 1,14,-1
 502 628 l 1,15,-1
 438 640 l 1,16,-1
 443 710 l 1,17,18
 506 705 506 705 553 705 c 1,19,-1
 700 710 l 1,20,-1
 705 637 l 1,21,-1
 655 630 l 1,22,23
 621 574 621 574 610 544 c 2,24,-1
 410 0 l 1,25,-1
 295 0 l 1,0,-1
EndSplineSet
Position2: "'cpsp' Capital Spacing in Latin lookup 0 subtable" dx=9 dy=0 dh=18 dv=0
EndChar

StartChar: W
Encoding: 87 87 58
Width: 1029
GlyphClass: 2
Flags: W
LayerCount: 2
Fore
SplineSet
247 628 m 1,0,1
 246 622 246 622 246 609 c 128,-1,2
 246 596 246 596 251 576 c 2,3,-1
 341 207 l 1,4,-1
 474 675 l 1,5,-1
 587 675 l 1,6,-1
 718 207 l 1,7,-1
 819 590 l 2,8,9
 825 610 825 610 821 628 c 1,10,-1
 757 640 l 1,11,-1
 762 710 l 1,12,13
 825 705 825 705 872 705 c 1,14,-1
 1019 710 l 1,15,-1
 1024 637 l 1,16,-1
 974 630 l 1,17,18
 947 584 947 584 934 544 c 2,19,-1
 760 0 l 1,20,-1
 645 0 l 1,21,-1
 517 423 l 1,22,-1
 383 0 l 1,23,-1
 268 0 l 1,24,-1
 85 577 l 1,25,-1
 62 631 l 1,26,-1
 2 640 l 1,27,-1
 7 710 l 1,28,29
 62 705 62 705 99 705 c 2,30,-1
 307 710 l 1,31,-1
 312 637 l 1,32,-1
 247 628 l 1,0,1
EndSplineSet
Position2: "'cpsp' Capital Spacing in Latin lookup 0 subtable" dx=9 dy=0 dh=18 dv=0
EndChar

StartChar: X
Encoding: 88 88 59
Width: 697
GlyphClass: 2
Flags: W
LayerCount: 2
Fore
SplineSet
265 343 m 1,0,-1
 115 558 l 1,1,-1
 62 632 l 1,2,-1
 9 640 l 1,3,-1
 15 710 l 1,4,5
 72 705 72 705 109 705 c 2,6,-1
 304 710 l 1,7,-1
 307 636 l 1,8,-1
 265 631 l 1,9,10
 288 580 288 580 306 555 c 1,11,-1
 363 469 l 1,12,-1
 431 578 l 2,13,14
 444 597 444 597 460 632 c 1,15,-1
 419 640 l 1,16,-1
 425 710 l 1,17,18
 478 705 478 705 525 705 c 1,19,-1
 672 710 l 1,20,-1
 676 636 l 1,21,-1
 611 628 l 1,22,23
 561 580 561 580 552 569 c 1,24,-1
 427 378 l 1,25,-1
 601 132 l 1,26,27
 635 92 635 92 650 76 c 1,28,-1
 701 71 l 1,29,-1
 695 -5 l 1,30,31
 613 0 613 0 500 0 c 1,32,-1
 412 -5 l 1,33,-1
 408 65 l 1,34,-1
 445 72 l 1,35,36
 419 125 419 125 406 142 c 2,37,-1
 328 253 l 1,38,-1
 246 132 l 2,39,40
 234 114 234 114 215 75 c 1,41,-1
 264 71 l 1,42,-1
 258 -5 l 1,43,44
 194 0 194 0 111 0 c 1,45,-1
 11 -5 l 1,46,-1
 7 65 l 1,47,-1
 59 74 l 1,48,49
 128 146 128 146 141 164 c 2,50,-1
 265 343 l 1,0,-1
EndSplineSet
Position2: "'cpsp' Capital Spacing in Latin lookup 0 subtable" dx=9 dy=0 dh=18 dv=0
EndChar

StartChar: Y
Encoding: 89 89 60
Width: 712
GlyphClass: 2
Flags: W
LayerCount: 2
Fore
SplineSet
271 77 m 1,0,-1
 280 163 l 1,1,-1
 280 249 l 1,2,-1
 102 577 l 2,3,4
 90 599 90 599 63 623 c 2,5,-1
 54 631 l 1,6,-1
 -6 640 l 1,7,-1
 -1 710 l 1,8,9
 54 705 54 705 91 705 c 2,10,-1
 299 710 l 1,11,-1
 304 637 l 1,12,-1
 251 628 l 1,13,14
 258 595 258 595 268 576 c 2,15,-1
 373 369 l 1,16,-1
 483 590 l 1,17,-1
 487 628 l 1,18,-1
 443 640 l 1,19,-1
 448 710 l 1,20,21
 511 705 511 705 558 705 c 1,22,-1
 705 710 l 1,23,-1
 710 637 l 1,24,-1
 650 630 l 1,25,26
 605 576 605 576 588 544 c 2,27,-1
 435 250 l 1,28,-1
 435 193 l 2,29,30
 435 140 435 140 444 77 c 1,31,-1
 509 71 l 1,32,-1
 504 -5 l 1,33,34
 423 0 423 0 310 0 c 1,35,-1
 210 -5 l 1,36,-1
 205 65 l 1,37,-1
 271 77 l 1,0,-1
EndSplineSet
Position2: "'cpsp' Capital Spacing in Latin lookup 0 subtable" dx=9 dy=0 dh=18 dv=0
EndChar

StartChar: Z
Encoding: 90 90 61
Width: 611
GlyphClass: 2
Flags: W
LayerCount: 2
Fore
SplineSet
215 616 m 2,0,1
 182 616 182 616 132 611 c 1,2,-1
 119 583 l 1,3,4
 108 542 108 542 104 507 c 1,5,-1
 32 512 l 1,6,-1
 39 697 l 1,7,-1
 59 715 l 1,8,9
 154 705 154 705 174 705 c 2,10,-1
 553 705 l 1,11,-1
 563 625 l 1,12,-1
 456 464 l 1,13,-1
 300 212 l 1,14,-1
 236 89 l 1,15,-1
 393 89 l 2,16,17
 435 89 435 89 477 97 c 1,18,19
 496 136 496 136 502 160 c 128,-1,20
 508 184 508 184 510 203 c 1,21,-1
 578 198 l 1,22,-1
 563 14 l 1,23,-1
 543 -4 l 1,24,25
 448 0 448 0 428 0 c 2,26,-1
 42 0 l 1,27,-1
 32 80 l 1,28,29
 119 196 119 196 143 237 c 1,30,-1
 318 516 l 1,31,-1
 368 616 l 1,32,-1
 215 616 l 2,0,1
EndSplineSet
Position2: "'cpsp' Capital Spacing in Latin lookup 0 subtable" dx=9 dy=0 dh=18 dv=0
EndChar

StartChar: bracketleft
Encoding: 91 91 62
Width: 265
GlyphClass: 2
Flags: W
LayerCount: 2
Fore
SplineSet
157 601 m 2,0,-1
 157 40 l 2,1,2
 157 11 157 11 164 -36 c 2,3,-1
 166 -50 l 1,4,-1
 235 -59 l 1,5,-1
 232 -125 l 1,6,7
 133 -121 133 -121 64 -121 c 1,8,-1
 40 -92 l 1,9,10
 45 74 45 74 45 94 c 2,11,-1
 45 551 l 1,12,-1
 40 733 l 1,13,-1
 64 762 l 1,14,-1
 232 766 l 1,15,-1
 235 700 l 1,16,-1
 166 691 l 1,17,18
 157 641 157 641 157 601 c 2,0,-1
EndSplineSet
EndChar

StartChar: backslash
Encoding: 92 92 63
Width: 398
GlyphClass: 2
Flags: W
LayerCount: 2
Fore
SplineSet
392 -35 m 1,0,-1
 298 -65 l 1,1,-1
 -7 743 l 1,2,-1
 86 773 l 1,3,-1
 392 -35 l 1,0,-1
EndSplineSet
EndChar

StartChar: bracketright
Encoding: 93 93 64
Width: 265
GlyphClass: 2
Flags: W
LayerCount: 2
Fore
SplineSet
108 40 m 2,0,-1
 108 601 l 2,1,2
 108 642 108 642 102 678 c 1,3,-1
 99 691 l 1,4,-1
 30 700 l 1,5,-1
 33 766 l 1,6,7
 132 762 132 762 201 762 c 1,8,-1
 225 733 l 1,9,10
 220 571 220 571 220 551 c 2,11,-1
 220 94 l 1,12,-1
 225 -92 l 1,13,-1
 201 -121 l 1,14,-1
 33 -125 l 1,15,-1
 30 -59 l 1,16,-1
 99 -50 l 1,17,18
 108 0 108 0 108 40 c 2,0,-1
EndSplineSet
EndChar

StartChar: asciicircum
Encoding: 94 94 65
Width: 588
GlyphClass: 2
Flags: W
LayerCount: 2
Fore
SplineSet
294 732 m 1,0,-1
 568 373 l 1,1,-1
 479 314 l 1,2,-1
 294 578 l 1,3,-1
 109 314 l 1,4,-1
 20 373 l 1,5,-1
 294 732 l 1,0,-1
EndSplineSet
EndChar

StartChar: underscore
Encoding: 95 95 66
Width: 504
GlyphClass: 2
Flags: W
LayerCount: 2
Fore
SplineSet
2 -232 m 1,0,-1
 0 -137 l 1,1,-1
 504 -137 l 1,2,-1
 499 -232 l 1,3,-1
 2 -232 l 1,0,-1
EndSplineSet
EndChar

StartChar: grave
Encoding: 96 96 67
Width: 360
GlyphClass: 2
Flags: W
LayerCount: 2
Fore
SplineSet
307 623 m 1,0,-1
 260 565 l 1,1,-1
 193 614 l 1,2,-1
 53 679 l 1,3,-1
 100 755 l 1,4,-1
 307 623 l 1,0,-1
EndSplineSet
EndChar

StartChar: a
Encoding: 97 97 68
Width: 523
GlyphClass: 2
Flags: W
LayerCount: 2
Fore
SplineSet
175 -10 m 0,0,1
 107 -10 107 -10 67.5 28 c 128,-1,2
 28 66 28 66 28 132 c 0,3,4
 28 249 28 249 160 270 c 2,5,-1
 302 293 l 1,6,-1
 302 322 l 2,7,8
 302 371 302 371 285 391.5 c 128,-1,9
 268 412 268 412 227 412 c 128,-1,10
 186 412 186 412 146 393 c 1,11,-1
 139 353 l 1,12,-1
 140 310 l 1,13,-1
 65 307 l 1,14,-1
 50 476 l 1,15,16
 158 503 158 503 233 503 c 0,17,18
 332 503 332 503 387 455.5 c 128,-1,19
 442 408 442 408 442 323 c 2,20,-1
 442 193 l 2,21,22
 442 142 442 142 448 95 c 1,23,-1
 451 77 l 1,24,-1
 511 71 l 1,25,-1
 505 -5 l 1,26,27
 456 0 456 0 321 0 c 1,28,-1
 313 72 l 1,29,30
 268 -10 268 -10 175 -10 c 0,0,1
176 154 m 0,31,32
 176 93 176 93 230 93 c 0,33,34
 256 93 256 93 275 110 c 128,-1,35
 294 127 294 127 302 157 c 1,36,-1
 302 228 l 1,37,-1
 228 216 l 2,38,39
 200 211 200 211 188 196.5 c 128,-1,40
 176 182 176 182 176 154 c 0,31,32
EndSplineSet
Substitution2: "'sups' Superscript in Latin lookup 9 subtable" a.sups
Substitution2: "'ordn' Ordinals in Latin lookup 8 subtable" a.sups
Substitution2: "'case' Case-Sensitive Forms in Latin lookup 3 subtable" A
EndChar

StartChar: b
Encoding: 98 98 69
Width: 573
GlyphClass: 2
Flags: W
LayerCount: 2
Fore
SplineSet
216 557 m 2,0,-1
 216 433 l 1,1,2
 271 503 271 503 363.5 503 c 128,-1,3
 456 503 456 503 502 434.5 c 128,-1,4
 548 366 548 366 548 247.5 c 128,-1,5
 548 129 548 129 483.5 59.5 c 128,-1,6
 419 -10 419 -10 303.5 -10 c 128,-1,7
 188 -10 188 -10 66 26 c 1,8,9
 76 143 76 143 76 163 c 2,10,-1
 76 587 l 1,11,-1
 66 674 l 1,12,-1
 -9 691 l 1,13,-1
 0 766 l 1,14,15
 75 756 75 756 117 756 c 2,16,-1
 205 758 l 1,17,-1
 226 739 l 1,18,19
 216 607 216 607 216 557 c 2,0,-1
304 390 m 0,20,21
 223 390 223 390 216 260 c 1,22,-1
 216 193 l 2,23,24
 216 176 216 176 219 98 c 1,25,26
 260 85 260 85 285 85 c 0,27,28
 346 85 346 85 367.5 125 c 128,-1,29
 389 165 389 165 389 237 c 128,-1,30
 389 309 389 309 371.5 349.5 c 128,-1,31
 354 390 354 390 304 390 c 0,20,21
EndSplineSet
Substitution2: "'sups' Superscript in Latin lookup 9 subtable" b.sups
Substitution2: "'ordn' Ordinals in Latin lookup 8 subtable" b.sups
Substitution2: "'case' Case-Sensitive Forms in Latin lookup 3 subtable" B
EndChar

StartChar: c
Encoding: 99 99 70
Width: 466
GlyphClass: 2
Flags: W
LayerCount: 2
Fore
SplineSet
270 503 m 0,0,1
 349 503 349 503 422 485 c 2,2,-1
 447 479 l 1,3,-1
 432 302 l 1,4,-1
 347 305 l 1,5,-1
 348 359 l 1,6,7
 346 385 346 385 344 398 c 1,8,9
 315 424 315 424 279 424 c 0,10,11
 230 424 230 424 207 380.5 c 128,-1,12
 184 337 184 337 184 245 c 0,13,14
 184 82 184 82 304 82 c 0,15,16
 335 82 335 82 364 90 c 128,-1,17
 393 98 393 98 407 106 c 2,18,-1
 421 114 l 1,19,-1
 456 56 l 1,20,21
 376 -15 376 -15 275 -15 c 0,22,23
 153 -15 153 -15 89 51.5 c 128,-1,24
 25 118 25 118 25 241.5 c 128,-1,25
 25 365 25 365 90.5 434 c 128,-1,26
 156 503 156 503 270 503 c 0,0,1
EndSplineSet
Substitution2: "'sups' Superscript in Latin lookup 9 subtable" c.sups
Substitution2: "'ordn' Ordinals in Latin lookup 8 subtable" c.sups
Substitution2: "'case' Case-Sensitive Forms in Latin lookup 3 subtable" C
EndChar

StartChar: d
Encoding: 100 100 71
Width: 588
GlyphClass: 2
Flags: W
LayerCount: 2
Fore
SplineSet
367 75 m 1,0,1
 308 -10 308 -10 215.5 -10 c 128,-1,2
 123 -10 123 -10 73.5 55 c 128,-1,3
 24 120 24 120 24 242.5 c 128,-1,4
 24 365 24 365 89.5 434 c 128,-1,5
 155 503 155 503 275 503 c 0,6,7
 308 503 308 503 356 498 c 1,8,-1
 356 587 l 1,9,-1
 346 674 l 1,10,-1
 271 691 l 1,11,-1
 280 766 l 1,12,13
 355 756 355 756 397 756 c 2,14,-1
 485 758 l 1,15,-1
 506 739 l 1,16,17
 496 607 496 607 496 557 c 2,18,-1
 496 193 l 2,19,20
 496 142 496 142 502 95 c 1,21,-1
 505 77 l 1,22,-1
 565 71 l 1,23,-1
 559 -5 l 1,24,25
 510 0 510 0 375 0 c 1,26,-1
 367 75 l 1,0,1
287 408 m 0,27,28
 232 408 232 408 207.5 371 c 128,-1,29
 183 334 183 334 183 252 c 0,30,31
 183 103 183 103 268 103 c 0,32,33
 348 103 348 103 356 233 c 1,34,-1
 356 395 l 1,35,36
 316 408 316 408 287 408 c 0,27,28
EndSplineSet
Substitution2: "'sups' Superscript in Latin lookup 9 subtable" d.sups
Substitution2: "'ordn' Ordinals in Latin lookup 8 subtable" d.sups
Substitution2: "'case' Case-Sensitive Forms in Latin lookup 3 subtable" D
EndChar

StartChar: e
Encoding: 101 101 72
Width: 498
GlyphClass: 2
Flags: W
LayerCount: 2
Fore
SplineSet
90.5 434.5 m 128,-1,1
 156 503 156 503 264 503 c 128,-1,2
 372 503 372 503 424 442 c 128,-1,3
 476 381 476 381 476 285 c 0,4,5
 476 273 476 273 475 260 c 1,6,-1
 454 221 l 1,7,-1
 185 221 l 1,8,9
 190 145 190 145 220 113 c 128,-1,10
 250 81 250 81 310 81 c 0,11,12
 342 81 342 81 372.5 89.5 c 128,-1,13
 403 98 403 98 417 106 c 2,14,-1
 431 114 l 1,15,-1
 466 56 l 1,16,17
 387 -15 387 -15 271 -15 c 128,-1,18
 155 -15 155 -15 90 52.5 c 128,-1,19
 25 120 25 120 25 243 c 128,-1,0
 25 366 25 366 90.5 434.5 c 128,-1,1
255 424 m 0,20,21
 219 424 219 424 203 390.5 c 128,-1,22
 187 357 187 357 184 294 c 1,23,-1
 317 302 l 1,24,25
 318 308 318 308 318 310 c 0,26,27
 318 424 318 424 255 424 c 0,20,21
EndSplineSet
Substitution2: "'sups' Superscript in Latin lookup 9 subtable" e.sups
Substitution2: "'ordn' Ordinals in Latin lookup 8 subtable" e.sups
Substitution2: "'case' Case-Sensitive Forms in Latin lookup 3 subtable" E
EndChar

StartChar: f
Encoding: 102 102 73
Width: 361
GlyphClass: 2
Flags: W
LayerCount: 2
Fore
SplineSet
40 482 m 1,0,-1
 100 501 l 1,1,-1
 100 580 l 2,2,3
 100 663 100 663 149.5 716.5 c 128,-1,4
 199 770 199 770 281 770 c 0,5,6
 342 770 342 770 406 760 c 1,7,-1
 428 756 l 1,8,-1
 413 589 l 1,9,-1
 339 592 l 1,10,-1
 339 637 l 2,11,12
 339 651 339 651 335 681 c 1,13,14
 317 689 317 689 298 689 c 0,15,16
 263 689 263 689 251.5 662 c 128,-1,17
 240 635 240 635 240 570 c 2,18,-1
 240 494 l 1,19,-1
 351 494 l 1,20,-1
 342 419 l 1,21,-1
 240 419 l 1,22,-1
 240 193 l 2,23,24
 240 142 240 142 246 95 c 1,25,-1
 249 77 l 1,26,-1
 334 71 l 1,27,-1
 329 -5 l 1,28,29
 253 0 253 0 140 0 c 1,30,-1
 40 -5 l 1,31,-1
 35 65 l 1,32,-1
 91 77 l 1,33,34
 100 143 100 143 100 163 c 2,35,-1
 100 419 l 1,36,-1
 43 419 l 1,37,-1
 40 482 l 1,0,-1
EndSplineSet
Substitution2: "Single Substitution lookup 22 subtable" f.t
Substitution2: "Single Substitution lookup 21 subtable" f.l
Substitution2: "Single Substitution lookup 20 subtable" f.f
Substitution2: "'sups' Superscript in Latin lookup 9 subtable" f.sups
Substitution2: "'ordn' Ordinals in Latin lookup 8 subtable" f.sups
Substitution2: "'case' Case-Sensitive Forms in Latin lookup 3 subtable" F
EndChar

StartChar: g
Encoding: 103 103 74
Width: 524
GlyphClass: 2
Flags: W
LayerCount: 2
Fore
SplineSet
472 324 m 0,0,1
 472 242 472 242 413 191.5 c 128,-1,2
 354 141 354 141 257 141 c 0,3,4
 221 141 221 141 189 149 c 1,5,6
 175 132 175 132 175 119 c 0,7,8
 175 93 175 93 258 84 c 0,9,10
 433 65 433 65 463 54 c 0,11,12
 515 34 515 34 515 -43.5 c 128,-1,13
 515 -121 515 -121 437.5 -178 c 128,-1,14
 360 -235 360 -235 247 -235 c 0,15,16
 27 -235 27 -235 27 -92 c 0,17,18
 27 -76 27 -76 52.5 -52 c 128,-1,19
 78 -28 78 -28 119 -4 c 1,20,21
 76 26 76 26 76 88 c 0,22,23
 76 108 76 108 137 168 c 1,24,25
 46 216 46 216 46 320 c 0,26,27
 46 402 46 402 105 452.5 c 128,-1,28
 164 503 164 503 261 503 c 0,29,30
 324 503 324 503 370 482 c 1,31,-1
 501 504 l 1,32,-1
 505 418 l 1,33,-1
 446 418 l 1,34,35
 472 379 472 379 472 324 c 0,0,1
160 -76 m 0,36,37
 160 -155 160 -155 291 -155 c 0,38,39
 338 -155 338 -155 365.5 -138 c 128,-1,40
 393 -121 393 -121 393 -92 c 128,-1,41
 393 -63 393 -63 360 -58 c 2,42,-1
 230 -38 l 2,43,44
 197 -33 197 -33 178 -28 c 1,45,46
 160 -52 160 -52 160 -76 c 0,36,37
261 437 m 0,47,48
 198 437 198 437 198 322 c 128,-1,49
 198 207 198 207 258 207 c 0,50,51
 320 207 320 207 320 322 c 128,-1,52
 320 437 320 437 261 437 c 0,47,48
EndSplineSet
Substitution2: "'sups' Superscript in Latin lookup 9 subtable" g.sups
Substitution2: "'ordn' Ordinals in Latin lookup 8 subtable" g.sups
Substitution2: "'case' Case-Sensitive Forms in Latin lookup 3 subtable" G
EndChar

StartChar: h
Encoding: 104 104 75
Width: 631
GlyphClass: 2
Flags: W
LayerCount: 2
Fore
SplineSet
237 557 m 2,0,-1
 237 435 l 1,1,2
 292 503 292 503 376 503 c 128,-1,3
 460 503 460 503 505 457.5 c 128,-1,4
 550 412 550 412 550 325 c 2,5,-1
 550 193 l 2,6,7
 550 142 550 142 556 95 c 1,8,-1
 559 77 l 1,9,-1
 624 71 l 1,10,-1
 619 -5 l 1,11,12
 553 0 553 0 440 0 c 1,13,-1
 354 -5 l 1,14,-1
 349 65 l 1,15,-1
 405 77 l 1,16,17
 406 91 406 91 407 112 c 128,-1,18
 408 133 408 133 409 146 c 128,-1,19
 410 159 410 159 410 163 c 2,20,-1
 410 311 l 2,21,22
 410 352 410 352 391.5 377.5 c 128,-1,23
 373 403 373 403 334.5 403 c 128,-1,24
 296 403 296 403 266.5 366 c 128,-1,25
 237 329 237 329 237 265 c 2,26,-1
 237 193 l 2,27,28
 237 158 237 158 244 95 c 2,29,-1
 246 77 l 1,30,-1
 311 71 l 1,31,-1
 306 -5 l 1,32,33
 240 0 240 0 127 0 c 1,34,-1
 27 -5 l 1,35,-1
 22 65 l 1,36,-1
 88 77 l 1,37,38
 97 126 97 126 97 163 c 2,39,-1
 97 587 l 1,40,-1
 87 674 l 1,41,-1
 12 691 l 1,42,-1
 21 766 l 1,43,44
 96 756 96 756 138 756 c 2,45,-1
 226 758 l 1,46,-1
 247 739 l 1,47,48
 237 632 237 632 237 557 c 2,0,-1
EndSplineSet
Substitution2: "'sups' Superscript in Latin lookup 9 subtable" h.sups
Substitution2: "'ordn' Ordinals in Latin lookup 8 subtable" h.sups
Substitution2: "'case' Case-Sensitive Forms in Latin lookup 3 subtable" H
EndChar

StartChar: i
Encoding: 105 105 76
Width: 332
GlyphClass: 2
Flags: W
LayerCount: 2
Fore
SplineSet
102 163 m 2,0,-1
 102 325 l 1,1,-1
 92 412 l 1,2,-1
 17 429 l 1,3,-1
 26 503 l 1,4,5
 101 494 101 494 143 494 c 2,6,-1
 231 496 l 1,7,-1
 252 477 l 1,8,9
 242 345 242 345 242 295 c 2,10,-1
 242 193 l 2,11,12
 242 142 242 142 248 95 c 1,13,-1
 251 77 l 1,14,-1
 316 71 l 1,15,-1
 311 -5 l 1,16,17
 245 0 245 0 132 0 c 1,18,-1
 32 -5 l 1,19,-1
 27 65 l 1,20,-1
 93 77 l 1,21,22
 102 143 102 143 102 163 c 2,0,-1
169 735 m 128,-1,24
 206 735 206 735 227 713.5 c 128,-1,25
 248 692 248 692 248 655.5 c 128,-1,26
 248 619 248 619 227.5 597.5 c 128,-1,27
 207 576 207 576 169 576 c 128,-1,28
 131 576 131 576 110.5 597.5 c 128,-1,29
 90 619 90 619 90 655 c 128,-1,30
 90 691 90 691 111 713 c 128,-1,23
 132 735 132 735 169 735 c 128,-1,24
EndSplineSet
Substitution2: "'sups' Superscript in Latin lookup 9 subtable" i.sups
Substitution2: "'ordn' Ordinals in Latin lookup 8 subtable" i.sups
Substitution2: "'case' Case-Sensitive Forms in Latin lookup 3 subtable" I
EndChar

StartChar: j
Encoding: 106 106 77
Width: 308
GlyphClass: 2
Flags: W
LayerCount: 2
Fore
SplineSet
230 295 m 2,0,-1
 230 -10 l 2,1,2
 230 -28 230 -28 188 -84 c 128,-1,3
 146 -140 146 -140 104 -188 c 2,4,-1
 62 -235 l 1,5,-1
 15 -209 l 1,6,7
 90 -19 90 -19 90 21 c 2,8,-1
 90 325 l 1,9,-1
 80 412 l 1,10,-1
 5 429 l 1,11,-1
 14 503 l 1,12,13
 89 494 89 494 131 494 c 2,14,-1
 219 496 l 1,15,-1
 240 477 l 1,16,17
 230 345 230 345 230 295 c 2,0,-1
151 735 m 128,-1,19
 188 735 188 735 209 713.5 c 128,-1,20
 230 692 230 692 230 655.5 c 128,-1,21
 230 619 230 619 209.5 597.5 c 128,-1,22
 189 576 189 576 151 576 c 128,-1,23
 113 576 113 576 92.5 597.5 c 128,-1,24
 72 619 72 619 72 655 c 128,-1,25
 72 691 72 691 93 713 c 128,-1,18
 114 735 114 735 151 735 c 128,-1,19
EndSplineSet
Substitution2: "'sups' Superscript in Latin lookup 9 subtable" j.sups
Substitution2: "'ordn' Ordinals in Latin lookup 8 subtable" j.sups
Substitution2: "'case' Case-Sensitive Forms in Latin lookup 3 subtable" J
EndChar

StartChar: k
Encoding: 107 107 78
Width: 611
GlyphClass: 2
Flags: W
LayerCount: 2
Fore
SplineSet
237 557 m 2,0,-1
 237 193 l 2,1,2
 237 158 237 158 244 95 c 2,3,-1
 246 77 l 1,4,-1
 311 71 l 1,5,-1
 306 -5 l 1,6,7
 240 0 240 0 127 0 c 1,8,-1
 27 -5 l 1,9,-1
 22 65 l 1,10,-1
 88 77 l 1,11,12
 97 126 97 126 97 163 c 2,13,-1
 97 587 l 1,14,-1
 87 674 l 1,15,-1
 12 691 l 1,16,-1
 21 766 l 1,17,18
 96 756 96 756 138 756 c 2,19,-1
 226 758 l 1,20,-1
 247 739 l 1,21,22
 237 632 237 632 237 557 c 2,0,-1
490 0 m 2,23,-1
 392 0 l 1,24,-1
 359 68 l 1,25,-1
 337 110 l 1,26,-1
 248 265 l 1,27,-1
 373 422 l 1,28,-1
 319 428 l 1,29,-1
 324 499 l 1,30,31
 413 494 413 494 483 494 c 1,32,-1
 599 498 l 1,33,-1
 597 428 l 1,34,-1
 544 423 l 1,35,36
 475 383 475 383 462 366 c 2,37,-1
 395 280 l 1,38,-1
 470 162 l 2,39,40
 472 159 472 159 549 77 c 1,41,-1
 609 71 l 1,42,-1
 603 -5 l 1,43,44
 548 0 548 0 490 0 c 2,23,-1
EndSplineSet
Substitution2: "'sups' Superscript in Latin lookup 9 subtable" k.sups
Substitution2: "'ordn' Ordinals in Latin lookup 8 subtable" k.sups
Substitution2: "'case' Case-Sensitive Forms in Latin lookup 3 subtable" K
EndChar

StartChar: l
Encoding: 108 108 79
Width: 329
GlyphClass: 2
Flags: W
LayerCount: 2
Fore
SplineSet
237 557 m 2,0,-1
 237 193 l 2,1,2
 237 158 237 158 244 95 c 2,3,-1
 246 77 l 1,4,-1
 311 71 l 1,5,-1
 306 -5 l 1,6,7
 240 0 240 0 127 0 c 1,8,-1
 27 -5 l 1,9,-1
 22 65 l 1,10,-1
 88 77 l 1,11,12
 97 126 97 126 97 163 c 2,13,-1
 97 587 l 1,14,-1
 87 674 l 1,15,-1
 12 691 l 1,16,-1
 21 766 l 1,17,18
 96 756 96 756 138 756 c 2,19,-1
 226 758 l 1,20,-1
 247 739 l 1,21,22
 237 632 237 632 237 557 c 2,0,-1
EndSplineSet
Substitution2: "'sups' Superscript in Latin lookup 9 subtable" l.sups
Substitution2: "'ordn' Ordinals in Latin lookup 8 subtable" l.sups
Substitution2: "'case' Case-Sensitive Forms in Latin lookup 3 subtable" L
EndChar

StartChar: m
Encoding: 109 109 80
Width: 917
GlyphClass: 2
Flags: W
LayerCount: 2
Fore
SplineSet
380 503 m 0,0,1
 488 503 488 503 524 415 c 1,2,3
 585 503 585 503 677 503 c 0,4,5
 755 503 755 503 795.5 457.5 c 128,-1,6
 836 412 836 412 836 325 c 2,7,-1
 836 193 l 2,8,9
 836 142 836 142 842 95 c 1,10,-1
 845 77 l 1,11,-1
 910 71 l 1,12,-1
 905 -5 l 1,13,14
 839 0 839 0 726 0 c 1,15,-1
 640 -5 l 1,16,-1
 635 65 l 1,17,-1
 691 77 l 1,18,19
 692 91 692 91 693 112 c 128,-1,20
 694 133 694 133 695 146 c 128,-1,21
 696 159 696 159 696 163 c 2,22,-1
 696 311 l 2,23,24
 696 403 696 403 630 403 c 0,25,26
 593 403 593 403 566 366 c 128,-1,27
 539 329 539 329 539 265 c 2,28,-1
 539 193 l 2,29,30
 539 158 539 158 546 95 c 2,31,-1
 548 77 l 1,32,-1
 613 71 l 1,33,-1
 608 -5 l 1,34,35
 542 0 542 0 429 0 c 1,36,-1
 343 -5 l 1,37,-1
 338 65 l 1,38,-1
 394 77 l 1,39,40
 395 91 395 91 396 112 c 128,-1,41
 397 133 397 133 398 146 c 128,-1,42
 399 159 399 159 399 163 c 2,43,-1
 399 311 l 2,44,45
 399 403 399 403 333 403 c 0,46,47
 296 403 296 403 269 366 c 128,-1,48
 242 329 242 329 242 265 c 2,49,-1
 242 193 l 2,50,51
 242 142 242 142 248 95 c 1,52,-1
 251 77 l 1,53,-1
 316 71 l 1,54,-1
 311 -5 l 1,55,56
 245 0 245 0 132 0 c 1,57,-1
 32 -5 l 1,58,-1
 27 65 l 1,59,-1
 93 77 l 1,60,61
 102 143 102 143 102 163 c 2,62,-1
 102 325 l 1,63,-1
 92 412 l 1,64,-1
 17 429 l 1,65,-1
 26 503 l 1,66,67
 101 494 101 494 143 494 c 1,68,-1
 191 496 l 1,69,-1
 212 477 l 1,70,-1
 222 407 l 1,71,72
 286 503 286 503 380 503 c 0,0,1
EndSplineSet
Substitution2: "'sups' Superscript in Latin lookup 9 subtable" m.sups
Substitution2: "'ordn' Ordinals in Latin lookup 8 subtable" m.sups
Substitution2: "'case' Case-Sensitive Forms in Latin lookup 3 subtable" M
EndChar

StartChar: n
Encoding: 110 110 81
Width: 636
GlyphClass: 2
Flags: W
LayerCount: 2
Fore
SplineSet
388 503 m 0,0,1
 470 503 470 503 512.5 457.5 c 128,-1,2
 555 412 555 412 555 325 c 2,3,-1
 555 193 l 2,4,5
 555 158 555 158 562 95 c 2,6,-1
 564 77 l 1,7,-1
 629 71 l 1,8,-1
 624 -5 l 1,9,10
 558 0 558 0 445 0 c 1,11,-1
 359 -5 l 1,12,-1
 354 65 l 1,13,-1
 410 77 l 1,14,15
 411 91 411 91 412 112 c 128,-1,16
 413 133 413 133 414 146 c 128,-1,17
 415 159 415 159 415 163 c 2,18,-1
 415 311 l 2,19,20
 415 352 415 352 396.5 377.5 c 128,-1,21
 378 403 378 403 339.5 403 c 128,-1,22
 301 403 301 403 271.5 366 c 128,-1,23
 242 329 242 329 242 265 c 2,24,-1
 242 193 l 2,25,26
 242 142 242 142 248 95 c 1,27,-1
 251 77 l 1,28,-1
 316 71 l 1,29,-1
 311 -5 l 1,30,31
 245 0 245 0 132 0 c 1,32,-1
 32 -5 l 1,33,-1
 27 65 l 1,34,-1
 93 77 l 1,35,36
 102 143 102 143 102 163 c 2,37,-1
 102 325 l 1,38,-1
 92 412 l 1,39,-1
 17 429 l 1,40,-1
 26 503 l 1,41,42
 101 494 101 494 143 494 c 1,43,-1
 191 496 l 1,44,-1
 212 477 l 1,45,-1
 222 405 l 1,46,47
 288 503 288 503 388 503 c 0,0,1
EndSplineSet
Substitution2: "'sups' Superscript in Latin lookup 9 subtable" n.sups
Substitution2: "'ordn' Ordinals in Latin lookup 8 subtable" n.sups
Substitution2: "'case' Case-Sensitive Forms in Latin lookup 3 subtable" N
EndChar

StartChar: o
Encoding: 111 111 82
Width: 544
GlyphClass: 2
Flags: W
LayerCount: 2
Fore
SplineSet
519 244 m 128,-1,1
 519 119 519 119 455 52 c 128,-1,2
 391 -15 391 -15 272 -15 c 128,-1,3
 153 -15 153 -15 89 52 c 128,-1,4
 25 119 25 119 25 244 c 128,-1,5
 25 369 25 369 89 436 c 128,-1,6
 153 503 153 503 272 503 c 128,-1,7
 391 503 391 503 455 436 c 128,-1,0
 519 369 519 369 519 244 c 128,-1,1
360 244 m 128,-1,9
 360 336 360 336 339.5 377 c 128,-1,10
 319 418 319 418 272 418 c 128,-1,11
 225 418 225 418 204.5 377 c 128,-1,12
 184 336 184 336 184 244 c 128,-1,13
 184 152 184 152 204.5 111 c 128,-1,14
 225 70 225 70 272 70 c 128,-1,15
 319 70 319 70 339.5 111 c 128,-1,8
 360 152 360 152 360 244 c 128,-1,9
EndSplineSet
Substitution2: "'sups' Superscript in Latin lookup 9 subtable" o.sups
Substitution2: "'ordn' Ordinals in Latin lookup 8 subtable" o.sups
Substitution2: "'case' Case-Sensitive Forms in Latin lookup 3 subtable" O
EndChar

StartChar: p
Encoding: 112 112 83
Width: 589
GlyphClass: 2
Flags: W
LayerCount: 2
Fore
SplineSet
212 404 m 1,0,1
 272 503 272 503 368.5 503 c 128,-1,2
 465 503 465 503 514.5 438 c 128,-1,3
 564 373 564 373 564 250.5 c 128,-1,4
 564 128 564 128 498.5 59 c 128,-1,5
 433 -10 433 -10 313 -10 c 0,6,7
 279 -10 279 -10 232 -5 c 1,8,-1
 232 -36 l 2,9,10
 232 -81 232 -81 240 -138 c 1,11,-1
 242 -157 l 1,12,-1
 321 -163 l 1,13,-1
 316 -234 l 1,14,15
 250 -229 250 -229 137 -229 c 1,16,-1
 37 -234 l 1,17,-1
 32 -169 l 1,18,-1
 82 -157 l 1,19,20
 92 -86 92 -86 92 -66 c 2,21,-1
 92 325 l 1,22,-1
 82 412 l 1,23,-1
 7 429 l 1,24,-1
 16 503 l 1,25,26
 84 494 84 494 133 494 c 1,27,-1
 181 496 l 1,28,-1
 202 477 l 1,29,-1
 212 404 l 1,0,1
320 390 m 0,30,31
 240 390 240 390 232 260 c 1,32,-1
 232 99 l 1,33,34
 274 85 274 85 301 85 c 0,35,36
 356 85 356 85 380.5 122 c 128,-1,37
 405 159 405 159 405 241 c 0,38,39
 405 390 405 390 320 390 c 0,30,31
EndSplineSet
Substitution2: "'sups' Superscript in Latin lookup 9 subtable" p.sups
Substitution2: "'ordn' Ordinals in Latin lookup 8 subtable" p.sups
Substitution2: "'case' Case-Sensitive Forms in Latin lookup 3 subtable" P
EndChar

StartChar: q
Encoding: 113 113 84
Width: 571
GlyphClass: 2
Flags: W
LayerCount: 2
Fore
SplineSet
357 -67 m 2,0,-1
 357 59 l 1,1,2
 302 -11 302 -11 213 -11 c 128,-1,3
 124 -11 124 -11 74.5 54 c 128,-1,4
 25 119 25 119 25 241.5 c 128,-1,5
 25 364 25 364 90.5 433 c 128,-1,6
 156 502 156 502 271 502 c 128,-1,7
 386 502 386 502 507 466 c 1,8,9
 497 349 497 349 497 329 c 2,10,-1
 497 -37 l 2,11,12
 497 -82 497 -82 504 -139 c 1,13,-1
 507 -158 l 1,14,-1
 556 -164 l 1,15,-1
 551 -235 l 1,16,17
 485 -230 485 -230 372 -230 c 1,18,-1
 272 -235 l 1,19,-1
 267 -170 l 1,20,-1
 347 -158 l 1,21,22
 357 -87 357 -87 357 -67 c 2,0,-1
269 102 m 0,23,24
 349 102 349 102 357 232 c 1,25,-1
 357 299 l 2,26,27
 357 317 357 317 354 395 c 1,28,29
 314 407 314 407 288 407 c 0,30,31
 233 407 233 407 208.5 370 c 128,-1,32
 184 333 184 333 184 251 c 0,33,34
 184 102 184 102 269 102 c 0,23,24
EndSplineSet
Substitution2: "'sups' Superscript in Latin lookup 9 subtable" q.sups
Substitution2: "'ordn' Ordinals in Latin lookup 8 subtable" q.sups
Substitution2: "'case' Case-Sensitive Forms in Latin lookup 3 subtable" Q
EndChar

StartChar: r
Encoding: 114 114 85
Width: 458
GlyphClass: 2
Flags: W
LayerCount: 2
Fore
SplineSet
362 503 m 0,0,1
 394 503 394 503 432 496 c 1,2,-1
 444 493 l 1,3,-1
 429 292 l 1,4,-1
 355 295 l 1,5,-1
 355 350 l 2,6,7
 355 354 355 354 347 402 c 1,8,9
 345 403 345 403 341 403 c 0,10,11
 301 403 301 403 271.5 366 c 128,-1,12
 242 329 242 329 242 265 c 2,13,-1
 242 193 l 2,14,15
 242 142 242 142 248 95 c 1,16,-1
 251 77 l 1,17,-1
 334 71 l 1,18,-1
 329 -5 l 1,19,20
 253 0 253 0 140 0 c 1,21,-1
 30 -5 l 1,22,-1
 25 65 l 1,23,-1
 93 77 l 1,24,25
 102 143 102 143 102 163 c 2,26,-1
 102 325 l 1,27,-1
 92 412 l 1,28,-1
 17 429 l 1,29,-1
 26 504 l 1,30,31
 101 494 101 494 143 494 c 1,32,-1
 191 496 l 1,33,-1
 212 477 l 1,34,-1
 221 411 l 1,35,36
 280 503 280 503 362 503 c 0,0,1
EndSplineSet
Substitution2: "'sups' Superscript in Latin lookup 9 subtable" r.sups
Substitution2: "'ordn' Ordinals in Latin lookup 8 subtable" r.sups
Substitution2: "'case' Case-Sensitive Forms in Latin lookup 3 subtable" R
EndChar

StartChar: s
Encoding: 115 115 86
Width: 429
GlyphClass: 2
Flags: W
LayerCount: 2
Fore
SplineSet
83 465.5 m 128,-1,1
 133 503 133 503 218.5 503 c 128,-1,2
 304 503 304 503 380 479 c 1,3,-1
 368 321 l 1,4,-1
 301 326 l 1,5,-1
 301 369 l 2,6,7
 301 379 301 379 287 407 c 1,8,9
 251 423 251 423 217 423 c 0,10,11
 152 423 152 423 152 385 c 0,12,13
 152 365 152 365 178 350.5 c 128,-1,14
 204 336 204 336 240.5 322.5 c 128,-1,15
 277 309 277 309 313.5 291 c 128,-1,16
 350 273 350 273 376 236 c 128,-1,17
 402 199 402 199 402 146 c 0,18,19
 402 71 402 71 349.5 30.5 c 128,-1,20
 297 -10 297 -10 207 -10 c 0,21,22
 147 -10 147 -10 58 8 c 1,23,-1
 30 13 l 1,24,-1
 42 178 l 1,25,-1
 113 173 l 1,26,-1
 113 128 l 2,27,28
 113 125 113 125 115.5 116 c 128,-1,29
 118 107 118 107 119 102 c 128,-1,30
 120 97 120 97 122 91 c 1,31,32
 176 69 176 69 206.5 69 c 128,-1,33
 237 69 237 69 255.5 80.5 c 128,-1,34
 274 92 274 92 274 112.5 c 128,-1,35
 274 133 274 133 249 148.5 c 128,-1,36
 224 164 224 164 189 177 c 128,-1,37
 154 190 154 190 118.5 208.5 c 128,-1,38
 83 227 83 227 58 264 c 128,-1,39
 33 301 33 301 33 354 c 0,40,0
 33 428 33 428 83 465.5 c 128,-1,1
EndSplineSet
Substitution2: "'sups' Superscript in Latin lookup 9 subtable" s.sups
Substitution2: "'ordn' Ordinals in Latin lookup 8 subtable" s.sups
Substitution2: "'case' Case-Sensitive Forms in Latin lookup 3 subtable" S
EndChar

StartChar: t
Encoding: 116 116 87
Width: 358
GlyphClass: 2
Flags: W
LayerCount: 2
Fore
SplineSet
273 80 m 128,-1,1
 297 80 297 80 327 100 c 1,2,-1
 364 43 l 1,3,4
 297 -10 297 -10 224 -10 c 128,-1,5
 151 -10 151 -10 116 30.5 c 128,-1,6
 81 71 81 71 81 156 c 2,7,-1
 81 419 l 1,8,-1
 17 419 l 1,9,-1
 14 482 l 1,10,11
 107 519 107 519 111 524 c 2,12,-1
 166 611 l 1,13,-1
 221 607 l 1,14,-1
 221 494 l 1,15,-1
 340 494 l 1,16,-1
 331 419 l 1,17,-1
 221 419 l 1,18,-1
 221 143 l 2,19,20
 221 117 221 117 235 98.5 c 128,-1,0
 249 80 249 80 273 80 c 128,-1,1
EndSplineSet
Substitution2: "Single Substitution lookup 22 subtable" t.i
Substitution2: "'sups' Superscript in Latin lookup 9 subtable" t.sups
Substitution2: "'ordn' Ordinals in Latin lookup 8 subtable" t.sups
Substitution2: "'case' Case-Sensitive Forms in Latin lookup 3 subtable" T
EndChar

StartChar: u
Encoding: 117 117 88
Width: 622
GlyphClass: 2
Flags: W
LayerCount: 2
Fore
SplineSet
533 295 m 2,0,-1
 533 193 l 2,1,2
 533 158 533 158 540 95 c 2,3,-1
 542 77 l 1,4,-1
 602 71 l 1,5,-1
 596 -5 l 1,6,7
 547 0 547 0 412 0 c 1,8,-1
 403 78 l 1,9,10
 344 -4 344 -4 257.5 -4 c 128,-1,11
 171 -4 171 -4 126.5 41.5 c 128,-1,12
 82 87 82 87 82 174 c 2,13,-1
 82 325 l 1,14,-1
 72 415 l 1,15,-1
 17 429 l 1,16,-1
 26 503 l 1,17,18
 96 494 96 494 138 494 c 1,19,-1
 211 496 l 1,20,-1
 232 477 l 1,21,22
 222 345 222 345 222 295 c 2,23,-1
 222 188 l 2,24,25
 222 146 222 146 240 121 c 128,-1,26
 258 96 258 96 296.5 96 c 128,-1,27
 335 96 335 96 364 133 c 128,-1,28
 393 170 393 170 393 234 c 2,29,-1
 393 325 l 1,30,-1
 383 412 l 1,31,-1
 308 429 l 1,32,-1
 317 503 l 1,33,34
 392 494 392 494 434 494 c 2,35,-1
 522 496 l 1,36,-1
 543 477 l 1,37,38
 533 345 533 345 533 295 c 2,0,-1
EndSplineSet
Substitution2: "'sups' Superscript in Latin lookup 9 subtable" u.sups
Substitution2: "'ordn' Ordinals in Latin lookup 8 subtable" u.sups
Substitution2: "'case' Case-Sensitive Forms in Latin lookup 3 subtable" U
EndChar

StartChar: v
Encoding: 118 118 89
Width: 559
GlyphClass: 2
Flags: W
LayerCount: 2
Fore
SplineSet
551 428 m 1,0,-1
 506 422 l 1,1,2
 465 335 465 335 459 319 c 2,3,-1
 339 0 l 1,4,-1
 212 0 l 1,5,6
 100 322 100 322 90 352.5 c 128,-1,7
 80 383 80 383 62 423 c 1,8,-1
 -3 434 l 1,9,-1
 2 503 l 1,10,11
 81 494 81 494 151 494 c 1,12,-1
 255 499 l 1,13,-1
 260 428 l 1,14,-1
 215 424 l 1,15,16
 221 379 221 379 227 354 c 2,17,-1
 283 148 l 1,18,-1
 351 354 l 2,19,20
 357 372 357 372 369 424 c 1,21,-1
 324 428 l 1,22,-1
 329 499 l 1,23,24
 388 494 388 494 458 494 c 1,25,-1
 546 499 l 1,26,-1
 551 428 l 1,0,-1
EndSplineSet
Substitution2: "'sups' Superscript in Latin lookup 9 subtable" v.sups
Substitution2: "'ordn' Ordinals in Latin lookup 8 subtable" v.sups
Substitution2: "'case' Case-Sensitive Forms in Latin lookup 3 subtable" V
EndChar

StartChar: w
Encoding: 119 119 90
Width: 833
GlyphClass: 2
Flags: W
LayerCount: 2
Fore
SplineSet
828 428 m 1,0,-1
 785 422 l 1,1,2
 744 335 744 335 738 319 c 2,3,-1
 621 0 l 1,4,-1
 491 0 l 1,5,-1
 417 241 l 1,6,-1
 336 0 l 1,7,-1
 207 0 l 1,8,9
 95 322 95 322 85 352.5 c 128,-1,10
 75 383 75 383 57 423 c 1,11,-1
 2 434 l 1,12,-1
 7 503 l 1,13,14
 76 494 76 494 146 494 c 1,15,-1
 269 499 l 1,16,-1
 274 428 l 1,17,-1
 208 424 l 1,18,19
 221 358 221 358 222 353 c 2,20,-1
 278 148 l 1,21,-1
 384 494 l 1,22,-1
 472 494 l 1,23,-1
 565 148 l 1,24,-1
 630 355 l 2,25,26
 637 375 637 375 648 424 c 1,27,-1
 590 428 l 1,28,-1
 595 499 l 1,29,30
 667 494 667 494 737 494 c 1,31,-1
 823 499 l 1,32,-1
 828 428 l 1,0,-1
EndSplineSet
Substitution2: "'sups' Superscript in Latin lookup 9 subtable" w.sups
Substitution2: "'ordn' Ordinals in Latin lookup 8 subtable" w.sups
Substitution2: "'case' Case-Sensitive Forms in Latin lookup 3 subtable" W
EndChar

StartChar: x
Encoding: 120 120 91
Width: 575
GlyphClass: 2
Flags: W
LayerCount: 2
Fore
SplineSet
236 425 m 1,0,-1
 298 322 l 1,1,-1
 362 425 l 1,2,-1
 328 429 l 1,3,-1
 333 499 l 1,4,5
 391 494 391 494 459 494 c 1,6,-1
 546 499 l 1,7,-1
 551 429 l 1,8,-1
 515 423 l 1,9,-1
 419 311 l 1,10,-1
 377 254 l 1,11,-1
 438 171 l 1,12,-1
 526 75 l 1,13,-1
 567 64 l 1,14,-1
 564 -9 l 1,15,16
 476 0 476 0 408 0 c 1,17,-1
 307 -5 l 1,18,-1
 302 69 l 1,19,-1
 342 73 l 1,20,-1
 329 95 l 1,21,-1
 272 181 l 1,22,-1
 213 90 l 1,23,-1
 205 73 l 1,24,-1
 237 70 l 1,25,-1
 232 -5 l 1,26,27
 175 0 175 0 106 0 c 1,28,-1
 19 -5 l 1,29,-1
 14 69 l 1,30,-1
 52 76 l 1,31,-1
 144 184 l 1,32,-1
 194 252 l 1,33,-1
 144 323 l 1,34,-1
 50 427 l 1,35,-1
 17 435 l 1,36,-1
 22 503 l 1,37,38
 109 494 109 494 177 494 c 1,39,-1
 278 499 l 1,40,-1
 283 429 l 1,41,-1
 236 425 l 1,0,-1
EndSplineSet
Substitution2: "'sups' Superscript in Latin lookup 9 subtable" x.sups
Substitution2: "'ordn' Ordinals in Latin lookup 8 subtable" x.sups
Substitution2: "'case' Case-Sensitive Forms in Latin lookup 3 subtable" X
EndChar

StartChar: y
Encoding: 121 121 92
Width: 571
GlyphClass: 2
Flags: W
LayerCount: 2
Fore
SplineSet
301 158 m 1,0,-1
 362 358 l 2,1,2
 372 389 372 389 374 423 c 1,3,-1
 330 428 l 1,4,-1
 336 499 l 1,5,6
 390 494 390 494 455 494 c 1,7,-1
 564 499 l 1,8,-1
 568 428 l 1,9,-1
 519 423 l 1,10,11
 497 385 497 385 477 328 c 1,12,-1
 259 -235 l 1,13,-1
 61 -222 l 1,14,-1
 72 -143 l 1,15,-1
 127 -145 l 2,16,17
 152 -145 152 -145 171 -139 c 1,18,19
 190 -117 190 -117 202 -83 c 2,20,-1
 233 0 l 1,21,-1
 109 325 l 2,22,23
 80 399 80 399 67 423 c 1,24,-1
 4 434 l 1,25,-1
 10 503 l 1,26,27
 84 494 84 494 149 494 c 1,28,-1
 262 499 l 1,29,-1
 266 428 l 1,30,-1
 224 423 l 1,31,32
 228 385 228 385 238 356 c 2,33,-1
 301 158 l 1,0,-1
EndSplineSet
Substitution2: "'sups' Superscript in Latin lookup 9 subtable" y.sups
Substitution2: "'ordn' Ordinals in Latin lookup 8 subtable" y.sups
Substitution2: "'case' Case-Sensitive Forms in Latin lookup 3 subtable" Y
EndChar

StartChar: z
Encoding: 122 122 93
Width: 460
GlyphClass: 2
Flags: W
LayerCount: 2
Fore
SplineSet
141 494 m 2,0,-1
 428 494 l 1,1,-1
 435 425 l 1,2,-1
 358 327 l 1,3,-1
 238 142 l 2,4,5
 228 128 228 128 206 80 c 1,6,-1
 287 80 l 2,7,8
 292 80 292 80 321 85 c 128,-1,9
 350 90 350 90 359 91 c 1,10,11
 375 128 375 128 378.5 144.5 c 128,-1,12
 382 161 382 161 382 177 c 1,13,-1
 451 171 l 1,14,-1
 440 17 l 1,15,-1
 420 -3 l 1,16,17
 346 0 346 0 326 0 c 2,18,-1
 35 0 l 1,19,-1
 21 70 l 1,20,21
 91 146 91 146 105 168 c 2,22,-1
 227 352 l 2,23,24
 240 370 240 370 260 414 c 1,25,-1
 181 414 l 2,26,27
 177 414 177 414 151 409 c 128,-1,28
 125 404 125 404 116 403 c 1,29,30
 103 374 103 374 103 361 c 2,31,-1
 99 304 l 1,32,-1
 23 307 l 1,33,-1
 28 477 l 1,34,-1
 49 497 l 1,35,36
 121 494 121 494 141 494 c 2,0,-1
EndSplineSet
Substitution2: "'sups' Superscript in Latin lookup 9 subtable" z.sups
Substitution2: "'ordn' Ordinals in Latin lookup 8 subtable" z.sups
Substitution2: "'case' Case-Sensitive Forms in Latin lookup 3 subtable" Z
EndChar

StartChar: braceleft
Encoding: 123 123 94
Width: 289
GlyphClass: 2
Flags: W
LayerCount: 2
Fore
SplineSet
201 274 m 1,0,-1
 191 40 l 1,1,2
 191 11 191 11 198 -36 c 2,3,-1
 200 -50 l 1,4,-1
 269 -59 l 1,5,-1
 266 -125 l 1,6,7
 167 -121 167 -121 98 -121 c 1,8,-1
 74 -92 l 1,9,-1
 103 258 l 1,10,11
 91 271 91 271 65.5 283.5 c 128,-1,12
 40 296 40 296 30 296 c 1,13,-1
 34 345 l 1,14,15
 42 345 42 345 67 357.5 c 128,-1,16
 92 370 92 370 104 383 c 1,17,-1
 74 733 l 1,18,-1
 98 762 l 1,19,-1
 266 766 l 1,20,-1
 269 700 l 1,21,-1
 200 691 l 1,22,23
 191 641 191 641 191 601 c 1,24,-1
 201 367 l 1,25,26
 176 344 176 344 142 330 c 1,27,-1
 132 325 l 1,28,-1
 132 316 l 1,29,30
 171 302 171 302 201 274 c 1,0,-1
EndSplineSet
EndChar

StartChar: bar
Encoding: 124 124 95
Width: 279
GlyphClass: 2
Flags: W
LayerCount: 2
Fore
SplineSet
187 -122 m 1,0,-1
 92 -113 l 1,1,-1
 92 760 l 1,2,-1
 187 752 l 1,3,-1
 187 -122 l 1,0,-1
EndSplineSet
EndChar

StartChar: braceright
Encoding: 125 125 96
Width: 289
GlyphClass: 2
Flags: W
LayerCount: 2
Fore
SplineSet
88 367 m 1,0,-1
 98 601 l 1,1,2
 98 642 98 642 92 678 c 1,3,-1
 89 691 l 1,4,-1
 20 700 l 1,5,-1
 23 766 l 1,6,7
 122 762 122 762 191 762 c 1,8,-1
 215 733 l 1,9,-1
 185 383 l 1,10,11
 197 370 197 370 222.5 357.5 c 128,-1,12
 248 345 248 345 259 345 c 1,13,-1
 255 296 l 1,14,15
 247 296 247 296 222 283 c 128,-1,16
 197 270 197 270 185 258 c 1,17,-1
 215 -92 l 1,18,-1
 191 -121 l 1,19,-1
 23 -125 l 1,20,-1
 20 -59 l 1,21,-1
 89 -50 l 1,22,23
 98 0 98 0 98 40 c 1,24,-1
 88 274 l 1,25,26
 113 297 113 297 146 312 c 1,27,-1
 157 316 l 1,28,-1
 157 325 l 1,29,30
 118 339 118 339 88 367 c 1,0,-1
EndSplineSet
EndChar

StartChar: asciitilde
Encoding: 126 126 97
Width: 604
GlyphClass: 2
Flags: W
LayerCount: 2
Fore
SplineSet
479.5 192 m 128,-1,1
 448 160 448 160 421.5 160 c 128,-1,2
 395 160 395 160 301 190 c 128,-1,3
 207 220 207 220 188 220 c 0,4,5
 153 220 153 220 124 184 c 1,6,-1
 114 171 l 1,7,-1
 60 216 l 1,8,9
 68 229 68 229 80.5 248.5 c 128,-1,10
 93 268 93 268 124.5 300 c 128,-1,11
 156 332 156 332 178 332 c 0,12,13
 215 332 215 332 306.5 302 c 128,-1,14
 398 272 398 272 417 272 c 0,15,16
 451 272 451 272 480 308 c 1,17,-1
 490 321 l 1,18,-1
 544 276 l 1,19,20
 536 263 536 263 523.5 243.5 c 128,-1,0
 511 224 511 224 479.5 192 c 128,-1,1
EndSplineSet
EndChar

StartChar: exclamdown
Encoding: 161 161 99
Width: 239
GlyphClass: 2
Flags: W
LayerCount: 2
Fore
SplineSet
48 252 m 1,0,-1
 65 268 l 1,1,2
 95 263 95 263 167 263 c 1,3,4
 166 227 166 227 166 197 c 2,5,-1
 175 -219 l 1,6,-1
 55 -228 l 1,7,-1
 26 -200 l 1,8,9
 51 18 51 18 51 175 c 1,10,-1
 48 252 l 1,0,-1
110 508 m 128,-1,12
 145 508 145 508 164.5 486.5 c 128,-1,13
 184 465 184 465 184 428.5 c 128,-1,14
 184 392 184 392 164.5 370.5 c 128,-1,15
 145 349 145 349 110 349 c 128,-1,16
 75 349 75 349 55.5 370.5 c 128,-1,17
 36 392 36 392 36 428 c 128,-1,18
 36 464 36 464 55.5 486 c 128,-1,11
 75 508 75 508 110 508 c 128,-1,12
EndSplineSet
EndChar

StartChar: cent
Encoding: 162 162 100
Width: 506
GlyphClass: 2
Flags: W
LayerCount: 2
Fore
SplineSet
369 478 m 1,0,1
 339 504 339 504 304.5 504 c 128,-1,2
 270 504 270 504 248 490.5 c 128,-1,3
 226 477 226 477 216 450 c 0,4,5
 199 403 199 403 199 325 c 0,6,7
 199 162 199 162 319 162 c 0,8,9
 350 162 350 162 379 170 c 128,-1,10
 408 178 408 178 422 186 c 2,11,-1
 436 194 l 1,12,-1
 471 136 l 1,13,14
 397 71 397 71 307 65 c 1,15,-1
 303 -42 l 1,16,-1
 238 -39 l 1,17,-1
 242 68 l 1,18,19
 142 80 142 80 91 146 c 128,-1,20
 40 212 40 212 40 323.5 c 128,-1,21
 40 435 40 435 97.5 505 c 128,-1,22
 155 575 155 575 263 582 c 1,23,-1
 268 689 l 1,24,-1
 332 686 l 1,25,-1
 328 581 l 1,26,27
 392 575 392 575 444 563 c 2,28,-1
 462 559 l 1,29,-1
 447 382 l 1,30,-1
 372 385 l 1,31,-1
 373 439 l 1,32,-1
 369 478 l 1,0,1
EndSplineSet
EndChar

StartChar: sterling
Encoding: 163 163 101
Width: 616
GlyphClass: 2
Flags: W
LayerCount: 2
Fore
SplineSet
134 467 m 2,0,1
 134 562 134 562 198 614.5 c 128,-1,2
 262 667 262 667 363 667 c 0,3,4
 436 667 436 667 566 635 c 1,5,-1
 554 472 l 1,6,-1
 482 475 l 1,7,-1
 479 520 l 2,8,9
 479 530 479 530 471 558 c 1,10,11
 421 579 421 579 362 579 c 0,12,13
 325 579 325 579 302 552.5 c 128,-1,14
 279 526 279 526 279 488 c 2,15,-1
 279 403 l 1,16,-1
 455 411 l 1,17,-1
 457 347 l 1,18,-1
 279 338 l 1,19,-1
 279 297 l 1,20,-1
 460 305 l 1,21,-1
 462 241 l 1,22,-1
 279 232 l 1,23,-1
 279 193 l 2,24,25
 279 157 279 157 286 87 c 1,26,-1
 408 87 l 2,27,28
 446 87 446 87 484 95 c 1,29,30
 509 142 509 142 516 195 c 1,31,-1
 586 190 l 1,32,-1
 571 14 l 1,33,-1
 552 -4 l 1,34,35
 458 0 458 0 438 0 c 2,36,-1
 156 0 l 1,37,-1
 64 -5 l 1,38,-1
 59 65 l 1,39,-1
 125 77 l 1,40,41
 134 143 134 143 134 163 c 2,42,-1
 134 226 l 1,43,-1
 52 222 l 1,44,-1
 50 287 l 1,45,-1
 134 290 l 1,46,-1
 134 332 l 1,47,-1
 47 328 l 1,48,-1
 45 393 l 1,49,-1
 134 397 l 1,50,-1
 134 467 l 2,0,1
EndSplineSet
EndChar

StartChar: yen
Encoding: 165 165 102
Width: 654
GlyphClass: 2
Flags: W
LayerCount: 2
Fore
SplineSet
382 657 m 1,0,1
 446 652 446 652 492 652 c 0,2,3
 595 652 595 652 624 656 c 1,4,-1
 637 657 l 1,5,-1
 642 581 l 1,6,-1
 593 575 l 1,7,8
 533 505 533 505 526 489 c 1,9,-1
 478 408 l 1,10,-1
 550 411 l 1,11,-1
 552 347 l 1,12,-1
 439 342 l 1,13,-1
 414 299 l 1,14,-1
 555 305 l 1,15,-1
 557 241 l 1,16,-1
 401 234 l 1,17,-1
 401 193 l 2,18,19
 401 158 401 158 408 95 c 2,20,-1
 410 77 l 1,21,-1
 247 77 l 1,22,23
 256 143 256 143 256 163 c 2,24,-1
 256 228 l 1,25,-1
 107 222 l 1,26,-1
 105 287 l 1,27,-1
 232 292 l 1,28,-1
 209 332 l 1,29,-1
 102 328 l 1,30,-1
 100 393 l 1,31,-1
 173 396 l 1,32,-1
 106 516 l 2,33,34
 96 535 96 535 61 576 c 1,35,-1
 12 587 l 1,36,-1
 17 657 l 1,37,38
 65 652 65 652 112 652 c 1,39,-1
 291 657 l 1,40,-1
 296 581 l 1,41,-1
 241 576 l 1,42,43
 252 545 252 545 256 538 c 2,44,-1
 342 382 l 1,45,-1
 437 549 l 1,46,-1
 446 575 l 1,47,-1
 377 587 l 1,48,-1
 382 657 l 1,0,1
247 77 m 1,49,-1
 410 77 l 1,50,-1
 475 71 l 1,51,-1
 470 -5 l 1,52,53
 404 0 404 0 291 0 c 1,54,-1
 186 -5 l 1,55,-1
 181 65 l 1,56,-1
 247 77 l 1,49,-1
EndSplineSet
EndChar

StartChar: brokenbar
Encoding: 166 166 103
Width: 279
GlyphClass: 2
Flags: W
LayerCount: 2
Fore
SplineSet
187 392 m 1,0,-1
 92 400 l 1,1,-1
 92 760 l 1,2,-1
 187 752 l 1,3,-1
 187 392 l 1,0,-1
92 212 m 1,4,-1
 187 205 l 1,5,-1
 187 -122 l 1,6,-1
 92 -113 l 1,7,-1
 92 212 l 1,4,-1
EndSplineSet
EndChar

StartChar: section
Encoding: 167 167 104
Width: 574
GlyphClass: 2
Flags: W
LayerCount: 2
Fore
SplineSet
504 56 m 0,0,1
 504 -21 504 -21 445.5 -63 c 128,-1,2
 387 -105 387 -105 292 -105 c 128,-1,3
 197 -105 197 -105 91 -76 c 1,4,-1
 103 84 l 1,5,-1
 174 79 l 1,6,-1
 174 25 l 2,7,8
 174 16 174 16 179 -6 c 1,9,10
 207 -24 207 -24 256 -24 c 128,-1,11
 305 -24 305 -24 328 -6.5 c 128,-1,12
 351 11 351 11 351 39 c 128,-1,13
 351 67 351 67 323 87.5 c 128,-1,14
 295 108 295 108 255.5 124 c 128,-1,15
 216 140 216 140 176 158 c 128,-1,16
 136 176 136 176 108 206 c 128,-1,17
 80 236 80 236 80 269 c 128,-1,18
 80 302 80 302 93.5 332 c 128,-1,19
 107 362 107 362 120 379 c 2,20,-1
 134 396 l 1,21,-1
 150 386 l 1,22,23
 150 352 150 352 186.5 324.5 c 128,-1,24
 223 297 223 297 275 275.5 c 128,-1,25
 327 254 327 254 379 228 c 128,-1,26
 431 202 431 202 467.5 158 c 128,-1,27
 504 114 504 114 504 56 c 0,0,1
80 559 m 0,28,29
 80 636 80 636 137 678 c 128,-1,30
 194 720 194 720 282.5 720 c 128,-1,31
 371 720 371 720 473 691 c 1,32,-1
 461 541 l 1,33,-1
 390 546 l 1,34,-1
 390 600 l 2,35,36
 390 602 390 602 386 620 c 1,37,38
 363 639 363 639 320 639 c 128,-1,39
 277 639 277 639 255 621.5 c 128,-1,40
 233 604 233 604 233 576 c 128,-1,41
 233 548 233 548 261 527.5 c 128,-1,42
 289 507 289 507 328.5 491 c 128,-1,43
 368 475 368 475 408 457 c 128,-1,44
 448 439 448 439 476 409 c 128,-1,45
 504 379 504 379 504 346 c 128,-1,46
 504 313 504 313 490.5 283 c 128,-1,47
 477 253 477 253 464 236 c 2,48,-1
 450 219 l 1,49,-1
 434 229 l 1,50,51
 434 263 434 263 397.5 290.5 c 128,-1,52
 361 318 361 318 309 339.5 c 128,-1,53
 257 361 257 361 205 387 c 128,-1,54
 153 413 153 413 116.5 457 c 128,-1,55
 80 501 80 501 80 559 c 0,28,29
EndSplineSet
EndChar

StartChar: dieresis
Encoding: 168 168 105
Width: 360
GlyphClass: 2
Flags: W
LayerCount: 2
Fore
SplineSet
62 725 m 128,-1,1
 94 725 94 725 111.5 706.5 c 128,-1,2
 129 688 129 688 129 655.5 c 128,-1,3
 129 623 129 623 111.5 604.5 c 128,-1,4
 94 586 94 586 62 586 c 128,-1,5
 30 586 30 586 12 605 c 128,-1,6
 -6 624 -6 624 -6 655.5 c 128,-1,7
 -6 687 -6 687 12 706 c 128,-1,0
 30 725 30 725 62 725 c 128,-1,1
299 725 m 128,-1,9
 331 725 331 725 348.5 706.5 c 128,-1,10
 366 688 366 688 366 655.5 c 128,-1,11
 366 623 366 623 348.5 604.5 c 128,-1,12
 331 586 331 586 299 586 c 128,-1,13
 267 586 267 586 249.5 604.5 c 128,-1,14
 232 623 232 623 232 655 c 128,-1,15
 232 687 232 687 249.5 706 c 128,-1,8
 267 725 267 725 299 725 c 128,-1,9
EndSplineSet
EndChar

StartChar: copyright
Encoding: 169 169 106
Width: 845
GlyphClass: 2
Flags: W
LayerCount: 2
Fore
SplineSet
681.5 509 m 128,-1,1
 788 403 788 403 788 252 c 128,-1,2
 788 101 788 101 680.5 -7 c 128,-1,3
 573 -115 573 -115 422.5 -115 c 128,-1,4
 272 -115 272 -115 164.5 -9 c 128,-1,5
 57 97 57 97 57 249 c 128,-1,6
 57 401 57 401 164.5 508 c 128,-1,7
 272 615 272 615 423.5 615 c 128,-1,0
 575 615 575 615 681.5 509 c 128,-1,1
631.5 41 m 128,-1,9
 718 128 718 128 718 249.5 c 128,-1,10
 718 371 718 371 631 458.5 c 128,-1,11
 544 546 544 546 422 546 c 128,-1,12
 300 546 300 546 213 460 c 128,-1,13
 126 374 126 374 126 251 c 128,-1,14
 126 128 126 128 213 41 c 128,-1,15
 300 -46 300 -46 422.5 -46 c 128,-1,8
 545 -46 545 -46 631.5 41 c 128,-1,9
435 44 m 0,16,17
 331 44 331 44 276.5 101 c 128,-1,18
 222 158 222 158 222 253.5 c 128,-1,19
 222 349 222 349 276.5 406 c 128,-1,20
 331 463 331 463 435 463 c 0,21,22
 478 463 478 463 565 443 c 1,23,-1
 556 334 l 1,24,-1
 507 336 l 1,25,-1
 504 375 l 2,26,27
 504 382 504 382 497 396 c 1,28,29
 461 402 461 402 435 402 c 0,30,31
 345 402 345 402 345 253.5 c 128,-1,32
 345 105 345 105 434 105 c 0,33,34
 468 105 468 105 505 113 c 1,35,36
 514 135 514 135 514 138 c 2,37,-1
 517 166 l 1,38,-1
 564 167 l 1,39,-1
 569 64 l 1,40,41
 482 44 482 44 435 44 c 0,16,17
EndSplineSet
EndChar

StartChar: ordfeminine
Encoding: 170 170 107
Width: 354
GlyphClass: 2
Flags: W
LayerCount: 2
Fore
SplineSet
118 443 m 0,0,1
 72 443 72 443 46 468.5 c 128,-1,2
 20 494 20 494 20 538 c 0,3,4
 20 614 20 614 107 628 c 2,5,-1
 199 642 l 1,6,-1
 199 661 l 2,7,8
 199 691 199 691 187.5 704 c 128,-1,9
 176 717 176 717 151 717 c 128,-1,10
 126 717 126 717 100 705 c 1,11,-1
 95 680 l 1,12,-1
 96 647 l 1,13,-1
 44 645 l 1,14,-1
 34 759 l 1,15,16
 102 777 102 777 162 777 c 128,-1,17
 222 777 222 777 260.5 746.5 c 128,-1,18
 299 716 299 716 299 664 c 2,19,-1
 299 579 l 1,20,-1
 304 502 l 1,21,-1
 343 498 l 1,22,-1
 339 447 l 1,23,24
 307 450 307 450 210 450 c 1,25,-1
 206 496 l 1,26,27
 176 443 176 443 118 443 c 0,0,1
159 593 m 1,28,29
 126 586 126 586 126 551 c 128,-1,30
 126 516 126 516 159 516 c 0,31,32
 188 516 188 516 199 551 c 1,33,-1
 199 598 l 1,34,-1
 159 593 l 1,28,29
EndSplineSet
EndChar

StartChar: guillemotleft
Encoding: 171 171 108
Width: 444
GlyphClass: 2
Flags: W
LayerCount: 2
Fore
SplineSet
20 242 m 1,0,-1
 173 474 l 1,1,-1
 240 429 l 1,2,-1
 135 242 l 1,3,-1
 240 55 l 1,4,-1
 173 10 l 1,5,-1
 20 242 l 1,0,-1
194 242 m 1,6,-1
 347 474 l 1,7,-1
 414 429 l 1,8,-1
 309 242 l 1,9,-1
 414 55 l 1,10,-1
 347 10 l 1,11,-1
 194 242 l 1,6,-1
EndSplineSet
EndChar

StartChar: logicalnot
Encoding: 172 172 109
Width: 585
GlyphClass: 2
Flags: W
LayerCount: 2
Fore
SplineSet
65 308 m 1,0,-1
 520 308 l 1,1,-1
 520 65 l 1,2,-1
 424 65 l 1,3,-1
 426 211 l 1,4,-1
 65 207 l 1,5,-1
 65 308 l 1,0,-1
EndSplineSet
EndChar

StartChar: registered
Encoding: 174 174 110
Width: 845
GlyphClass: 2
Flags: W
LayerCount: 2
Fore
SplineSet
681.5 509 m 128,-1,1
 788 403 788 403 788 252 c 128,-1,2
 788 101 788 101 680.5 -7 c 128,-1,3
 573 -115 573 -115 422.5 -115 c 128,-1,4
 272 -115 272 -115 164.5 -9 c 128,-1,5
 57 97 57 97 57 249 c 128,-1,6
 57 401 57 401 164.5 508 c 128,-1,7
 272 615 272 615 423.5 615 c 128,-1,0
 575 615 575 615 681.5 509 c 128,-1,1
631.5 41 m 128,-1,9
 718 128 718 128 718 249.5 c 128,-1,10
 718 371 718 371 631 458.5 c 128,-1,11
 544 546 544 546 422 546 c 128,-1,12
 300 546 300 546 213 460 c 128,-1,13
 126 374 126 374 126 251 c 128,-1,14
 126 128 126 128 213 41 c 128,-1,15
 300 -46 300 -46 422.5 -46 c 128,-1,8
 545 -46 545 -46 631.5 41 c 128,-1,9
312 465 m 1,16,-1
 438 471 l 1,17,18
 501 471 501 471 540.5 438 c 128,-1,19
 580 405 580 405 580 343.5 c 128,-1,20
 580 282 580 282 513 243 c 1,21,22
 537 195 537 195 556 168 c 128,-1,23
 575 141 575 141 577 138.5 c 128,-1,24
 579 136 579 136 585 126 c 2,25,-1
 594 111 l 1,26,-1
 616 108 l 1,27,-1
 614 61 l 1,28,29
 568 64 568 64 494 64 c 1,30,31
 473 116 473 116 466 130 c 2,32,-1
 420 217 l 1,33,-1
 394 217 l 1,34,-1
 394 180 l 2,35,36
 394 168 394 168 401 112 c 1,37,-1
 433 108 l 1,38,-1
 431 61 l 1,39,40
 379 64 379 64 305 64 c 1,41,-1
 250 61 l 1,42,-1
 247 106 l 1,43,-1
 283 112 l 1,44,45
 288 142 288 142 288 163 c 2,46,-1
 288 342 l 2,47,48
 288 353 288 353 283 413 c 1,49,-1
 248 420 l 1,50,-1
 251 468 l 1,51,52
 279 465 279 465 312 465 c 1,16,-1
402 417 m 2,53,-1
 397 417 l 1,54,55
 394 390 394 390 394 373 c 2,56,-1
 394 271 l 1,57,-1
 399 271 l 2,58,59
 438 271 438 271 453 290 c 128,-1,60
 468 309 468 309 468 346.5 c 128,-1,61
 468 384 468 384 453 400.5 c 128,-1,62
 438 417 438 417 402 417 c 2,53,-1
EndSplineSet
EndChar

StartChar: macron
Encoding: 175 175 111
Width: 360
GlyphClass: 2
Flags: W
LayerCount: 2
Fore
SplineSet
19 596 m 1,0,-1
 19 669 l 1,1,-1
 341 669 l 1,2,-1
 334 596 l 1,3,-1
 19 596 l 1,0,-1
EndSplineSet
EndChar

StartChar: degree
Encoding: 176 176 112
Width: 381
GlyphClass: 2
Flags: W
LayerCount: 2
Fore
SplineSet
351 517 m 128,-1,1
 351 448 351 448 307.5 408 c 128,-1,2
 264 368 264 368 190 368 c 128,-1,3
 116 368 116 368 73 408 c 128,-1,4
 30 448 30 448 30 517 c 128,-1,5
 30 586 30 586 73 626 c 128,-1,6
 116 666 116 666 190 666 c 128,-1,7
 264 666 264 666 307.5 626 c 128,-1,0
 351 586 351 586 351 517 c 128,-1,1
127 517 m 128,-1,9
 127 479 127 479 143 454 c 128,-1,10
 159 429 159 429 191 429 c 128,-1,11
 223 429 223 429 238.5 454 c 128,-1,12
 254 479 254 479 254 517 c 128,-1,13
 254 555 254 555 238.5 580 c 128,-1,14
 223 605 223 605 191 605 c 128,-1,15
 159 605 159 605 143 580 c 128,-1,8
 127 555 127 555 127 517 c 128,-1,9
EndSplineSet
EndChar

StartChar: plusminus
Encoding: 177 177 113
Width: 601
GlyphClass: 2
Flags: W
LayerCount: 2
Fore
SplineSet
250 137 m 1,0,-1
 250 302 l 1,1,-1
 73 300 l 1,2,-1
 73 400 l 1,3,-1
 250 400 l 1,4,-1
 250 562 l 1,5,-1
 345 562 l 1,6,-1
 347 400 l 1,7,-1
 528 400 l 1,8,-1
 528 305 l 1,9,-1
 348 303 l 1,10,-1
 350 137 l 1,11,-1
 250 137 l 1,0,-1
528 0 m 1,12,-1
 73 0 l 1,13,-1
 73 91 l 1,14,-1
 528 96 l 1,15,-1
 528 0 l 1,12,-1
EndSplineSet
EndChar

StartChar: two.sups
Encoding: 178 178 114
Width: 373
GlyphClass: 2
Flags: W
LayerCount: 2
Fore
SplineSet
30 856 m 1,0,1
 96 880 96 880 169 880 c 128,-1,2
 242 880 242 880 281.5 849.5 c 128,-1,3
 321 819 321 819 321 767 c 128,-1,4
 321 715 321 715 285.5 669.5 c 128,-1,5
 250 624 250 624 145 533 c 1,6,-1
 221 533 l 1,7,-1
 273 540 l 1,8,9
 281 567 281 567 283 574 c 2,10,-1
 289 601 l 1,11,-1
 346 597 l 1,12,-1
 340 461 l 1,13,-1
 318 448 l 1,14,15
 257 450 257 450 245 450 c 2,16,-1
 24 450 l 1,17,-1
 14 520 l 1,18,19
 131 625 131 625 169 669.5 c 128,-1,20
 207 714 207 714 207 757 c 0,21,22
 207 781 207 781 191 796 c 128,-1,23
 175 811 175 811 150.5 811 c 128,-1,24
 126 811 126 811 97 795 c 1,25,26
 92 779 92 779 92 769 c 2,27,-1
 92 741 l 1,28,-1
 34 737 l 1,29,-1
 30 856 l 1,0,1
EndSplineSet
EndChar

StartChar: three.sups
Encoding: 179 179 115
Width: 335
GlyphClass: 2
Flags: W
LayerCount: 2
Fore
SplineSet
137 880 m 0,0,1
 289 880 289 880 289 765 c 0,2,3
 289 702 289 702 216 665 c 1,4,5
 254 658 254 658 280.5 628.5 c 128,-1,6
 307 599 307 599 307 564 c 0,7,8
 307 494 307 494 228.5 442 c 128,-1,9
 150 390 150 390 32 382 c 1,10,-1
 17 435 l 1,11,12
 95 443 95 443 142.5 475.5 c 128,-1,13
 190 508 190 508 190 556 c 0,14,15
 190 623 190 623 127 623 c 1,16,-1
 87 620 l 1,17,-1
 78 671 l 1,18,19
 128 680 128 680 154.5 706 c 128,-1,20
 181 732 181 732 181 772 c 0,21,22
 181 819 181 819 132 819 c 0,23,24
 108 819 108 819 85 812 c 1,25,26
 82 798 82 798 82 794 c 2,27,-1
 81 753 l 1,28,-1
 24 749 l 1,29,-1
 15 861 l 1,30,31
 69 880 69 880 137 880 c 0,0,1
EndSplineSet
EndChar

StartChar: acute
Encoding: 180 180 116
Width: 360
GlyphClass: 2
Flags: W
LayerCount: 2
Fore
SplineSet
260 755 m 1,0,-1
 307 679 l 1,1,2
 185 623 185 623 167 614 c 1,3,-1
 100 565 l 1,4,-1
 53 623 l 1,5,-1
 260 755 l 1,0,-1
EndSplineSet
EndChar

StartChar: mu
Encoding: 181 181 117
AltUni2: 0003bc.ffffffff.0
Width: 591
GlyphClass: 2
Flags: W
LayerCount: 2
Fore
SplineSet
269 -4 m 0,0,1
 224 -4 224 -4 195 11 c 1,2,-1
 195 -69 l 1,3,-1
 200 -218 l 1,4,-1
 61 -218 l 1,5,-1
 40 -199 l 1,6,7
 55 -89 55 -89 55 -39 c 2,8,-1
 55 325 l 1,9,-1
 50 494 l 1,10,-1
 184 494 l 1,11,-1
 205 475 l 1,12,13
 195 345 195 345 195 295 c 2,14,-1
 195 188 l 2,15,16
 195 147 195 147 213.5 121.5 c 128,-1,17
 232 96 232 96 269.5 96 c 128,-1,18
 307 96 307 96 336.5 131 c 128,-1,19
 366 166 366 166 368 227 c 1,20,-1
 368 335 l 1,21,-1
 363 494 l 1,22,-1
 497 494 l 1,23,-1
 518 475 l 1,24,25
 508 360 508 360 507 305 c 1,26,-1
 507 167 l 2,27,28
 507 102 507 102 516 89.5 c 128,-1,29
 525 77 525 77 546.5 66.5 c 128,-1,30
 568 56 568 56 570 55 c 1,31,-1
 551 -15 l 1,32,33
 544 -14 544 -14 527 -12.5 c 128,-1,34
 510 -11 510 -11 505 -10.5 c 128,-1,35
 500 -10 500 -10 486.5 -8 c 128,-1,36
 473 -6 473 -6 468 -4 c 2,37,-1
 454 0 l 2,38,39
 443 4 443 4 439 7.5 c 128,-1,40
 435 11 435 11 427.5 16 c 128,-1,41
 420 21 420 21 416 28 c 0,42,43
 403 48 403 48 397 62 c 1,44,45
 350 -4 350 -4 269 -4 c 0,0,1
EndSplineSet
EndChar

StartChar: paragraph
Encoding: 182 182 118
Width: 625
GlyphClass: 2
Flags: W
LayerCount: 2
Fore
SplineSet
450 705 m 2,0,1
 544 705 544 705 579 710 c 1,2,-1
 584 629 l 1,3,-1
 518 623 l 1,4,-1
 517 623 l 1,5,6
 514 575 514 575 514 542 c 2,7,-1
 514 103 l 1,8,-1
 523 -76 l 1,9,-1
 350 -13 l 1,10,11
 359 53 359 53 359 73 c 2,12,-1
 359 705 l 1,13,-1
 450 705 l 2,0,1
96.5 348.5 m 128,-1,15
 27 406 27 406 27 500 c 128,-1,16
 27 594 27 594 89.5 651.5 c 128,-1,17
 152 709 152 709 247 709 c 0,18,19
 279 709 279 709 309 705 c 1,20,-1
 309 330 l 1,21,-1
 268 291 l 1,22,14
 166 291 166 291 96.5 348.5 c 128,-1,15
350 -13 m 1,23,-1
 523 -76 l 1,24,-1
 504 -94 l 1,25,26
 396 -90 396 -90 369 -90 c 1,27,-1
 269 -95 l 1,28,-1
 264 -25 l 1,29,-1
 350 -13 l 1,23,-1
EndSplineSet
EndChar

StartChar: periodcentered
Encoding: 183 183 119
Width: 243
GlyphClass: 2
Flags: W
LayerCount: 2
Fore
SplineSet
119 384 m 128,-1,1
 156 384 156 384 177 361.5 c 128,-1,2
 198 339 198 339 198 300 c 128,-1,3
 198 261 198 261 177 238 c 128,-1,4
 156 215 156 215 119 215 c 128,-1,5
 82 215 82 215 61 238 c 128,-1,6
 40 261 40 261 40 299 c 128,-1,7
 40 337 40 337 61 360.5 c 128,-1,0
 82 384 82 384 119 384 c 128,-1,1
EndSplineSet
EndChar

StartChar: cedilla
Encoding: 184 184 120
Width: 360
GlyphClass: 2
Flags: W
LayerCount: 2
Fore
SplineSet
274 -83 m 128,-1,1
 302 -106 302 -106 302 -148.5 c 128,-1,2
 302 -191 302 -191 270.5 -213 c 128,-1,3
 239 -235 239 -235 184.5 -235 c 128,-1,4
 130 -235 130 -235 92 -217 c 1,5,-1
 110 -168 l 1,6,7
 145 -179 145 -179 165 -179 c 0,8,9
 212 -179 212 -179 212 -146 c 0,10,11
 212 -115 212 -115 170 -115 c 1,12,-1
 149 -116 l 1,13,-1
 138 -102 l 1,14,-1
 149 10 l 1,15,-1
 215 10 l 1,16,-1
 201 -59 l 1,17,0
 246 -60 246 -60 274 -83 c 128,-1,1
EndSplineSet
EndChar

StartChar: one.sups
Encoding: 185 185 121
Width: 294
GlyphClass: 2
Flags: W
LayerCount: 2
Fore
SplineSet
122 559 m 2,0,-1
 122 759 l 1,1,-1
 55 737 l 1,2,-1
 29 780 l 1,3,4
 110 839 110 839 123 850 c 1,5,-1
 155 887 l 1,6,-1
 231 879 l 1,7,8
 225 759 225 759 225 727 c 2,9,-1
 225 579 l 2,10,11
 225 545 225 545 227.5 530 c 128,-1,12
 230 515 230 515 230.5 510.5 c 128,-1,13
 231 506 231 506 232 502 c 1,14,-1
 283 498 l 1,15,-1
 279 447 l 1,16,17
 225 450 225 450 146 450 c 1,18,-1
 60 447 l 1,19,-1
 57 495 l 1,20,-1
 116 502 l 1,21,-1
 118 512 l 1,22,23
 122 547 122 547 122 559 c 2,0,-1
EndSplineSet
EndChar

StartChar: ordmasculine
Encoding: 186 186 122
Width: 368
GlyphClass: 2
Flags: W
LayerCount: 2
Fore
SplineSet
349 608 m 128,-1,1
 349 526 349 526 306.5 483 c 128,-1,2
 264 440 264 440 184 440 c 128,-1,3
 104 440 104 440 61.5 483 c 128,-1,4
 19 526 19 526 19 608.5 c 128,-1,5
 19 691 19 691 61.5 734 c 128,-1,6
 104 777 104 777 183.5 777 c 128,-1,7
 263 777 263 777 306 733.5 c 128,-1,0
 349 690 349 690 349 608 c 128,-1,1
223.5 523.5 m 128,-1,9
 236 548 236 548 236 608.5 c 128,-1,10
 236 669 236 669 223.5 693.5 c 128,-1,11
 211 718 211 718 183.5 718 c 128,-1,12
 156 718 156 718 144 693.5 c 128,-1,13
 132 669 132 669 132 608.5 c 128,-1,14
 132 548 132 548 144 523.5 c 128,-1,15
 156 499 156 499 183.5 499 c 128,-1,8
 211 499 211 499 223.5 523.5 c 128,-1,9
EndSplineSet
EndChar

StartChar: guillemotright
Encoding: 187 187 123
Width: 444
GlyphClass: 2
Flags: W
LayerCount: 2
Fore
SplineSet
250 242 m 1,0,-1
 97 10 l 1,1,-1
 30 55 l 1,2,-1
 135 242 l 1,3,-1
 30 429 l 1,4,-1
 97 474 l 1,5,-1
 250 242 l 1,0,-1
424 242 m 1,6,-1
 271 10 l 1,7,-1
 204 55 l 1,8,-1
 309 242 l 1,9,-1
 204 429 l 1,10,-1
 271 474 l 1,11,-1
 424 242 l 1,6,-1
EndSplineSet
EndChar

StartChar: onequarter
Encoding: 188 188 124
Width: 856
GlyphClass: 2
Flags: W
LayerCount: 2
Fore
SplineSet
122 409 m 2,0,-1
 122 609 l 1,1,-1
 55 587 l 1,2,-1
 29 630 l 1,3,4
 110 689 110 689 123 700 c 1,5,-1
 155 737 l 1,6,-1
 231 729 l 1,7,8
 225 609 225 609 225 577 c 2,9,-1
 225 429 l 2,10,11
 225 395 225 395 227.5 380 c 128,-1,12
 230 365 230 365 230.5 360.5 c 128,-1,13
 231 356 231 356 232 352 c 1,14,-1
 283 348 l 1,15,-1
 279 297 l 1,16,17
 225 300 225 300 146 300 c 1,18,-1
 60 297 l 1,19,-1
 57 345 l 1,20,-1
 116 352 l 1,21,-1
 118 362 l 1,22,23
 122 397 122 397 122 409 c 2,0,-1
582 720 m 1,24,-1
 652 675 l 1,25,-1
 228 -49 l 1,26,-1
 157 -4 l 1,27,-1
 582 720 l 1,24,-1
655 185 m 1,28,-1
 655 244 l 1,29,-1
 759 279 l 1,30,-1
 759 191 l 1,31,-1
 824 195 l 1,32,-1
 824 120 l 1,33,-1
 759 120 l 1,34,-1
 759 106 l 2,35,36
 759 71 759 71 766 53 c 1,37,-1
 810 49 l 1,38,-1
 807 -3 l 1,39,40
 745 0 745 0 665 0 c 1,41,-1
 587 -3 l 1,42,-1
 584 45 l 1,43,-1
 649 53 l 1,44,45
 650 62 650 62 651 69.5 c 128,-1,46
 652 77 652 77 653 85 c 0,47,48
 655 101 655 101 655 111 c 2,49,-1
 655 120 l 1,50,-1
 516 120 l 1,51,-1
 461 186 l 1,52,-1
 705 495 l 1,53,-1
 778 435 l 1,54,55
 708 370 708 370 698 355 c 1,56,-1
 567 185 l 1,57,-1
 655 185 l 1,28,-1
EndSplineSet
EndChar

StartChar: onehalf
Encoding: 189 189 125
Width: 905
GlyphClass: 2
Flags: W
LayerCount: 2
Fore
SplineSet
122 409 m 2,0,-1
 122 609 l 1,1,-1
 55 587 l 1,2,-1
 29 630 l 1,3,4
 110 689 110 689 123 700 c 1,5,-1
 155 737 l 1,6,-1
 231 729 l 1,7,8
 225 609 225 609 225 577 c 2,9,-1
 225 429 l 2,10,11
 225 395 225 395 227.5 380 c 128,-1,12
 230 365 230 365 230.5 360.5 c 128,-1,13
 231 356 231 356 232 352 c 1,14,-1
 283 348 l 1,15,-1
 279 297 l 1,16,17
 225 300 225 300 146 300 c 1,18,-1
 60 297 l 1,19,-1
 57 345 l 1,20,-1
 116 352 l 1,21,-1
 118 362 l 1,22,23
 122 397 122 397 122 409 c 2,0,-1
582 720 m 1,24,-1
 652 675 l 1,25,-1
 228 -49 l 1,26,-1
 157 -4 l 1,27,-1
 582 720 l 1,24,-1
541 420 m 1,28,29
 610 444 610 444 685 444 c 128,-1,30
 760 444 760 444 802.5 413.5 c 128,-1,31
 845 383 845 383 845 330 c 128,-1,32
 845 277 845 277 804 223.5 c 128,-1,33
 763 170 763 170 656 83 c 1,34,-1
 732 83 l 1,35,-1
 794 90 l 1,36,37
 802 117 802 117 804 124 c 2,38,-1
 810 151 l 1,39,-1
 867 147 l 1,40,-1
 861 11 l 1,41,-1
 839 -2 l 1,42,43
 778 0 778 0 766 0 c 2,44,-1
 535 0 l 1,45,-1
 525 70 l 1,46,47
 641 168 641 168 683.5 220.5 c 128,-1,48
 726 273 726 273 726 318 c 0,49,50
 726 345 726 345 710 359 c 128,-1,51
 694 373 694 373 667 373 c 128,-1,52
 640 373 640 373 608 357 c 1,53,54
 603 341 603 341 603 333 c 2,55,-1
 603 305 l 1,56,-1
 545 301 l 1,57,-1
 541 420 l 1,28,29
EndSplineSet
EndChar

StartChar: threequarters
Encoding: 190 190 126
Width: 837
GlyphClass: 2
Flags: W
LayerCount: 2
Fore
SplineSet
137 730 m 0,0,1
 289 730 289 730 289 615 c 0,2,3
 289 552 289 552 216 515 c 1,4,5
 254 508 254 508 280.5 478.5 c 128,-1,6
 307 449 307 449 307 414 c 0,7,8
 307 344 307 344 228.5 292 c 128,-1,9
 150 240 150 240 32 232 c 1,10,-1
 17 285 l 1,11,12
 95 293 95 293 142.5 325.5 c 128,-1,13
 190 358 190 358 190 406 c 0,14,15
 190 473 190 473 127 473 c 1,16,-1
 87 470 l 1,17,-1
 78 521 l 1,18,19
 128 530 128 530 154.5 556 c 128,-1,20
 181 582 181 582 181 622 c 0,21,22
 181 669 181 669 132 669 c 0,23,24
 108 669 108 669 85 662 c 1,25,26
 82 648 82 648 82 644 c 2,27,-1
 81 603 l 1,28,-1
 24 599 l 1,29,-1
 15 711 l 1,30,31
 69 730 69 730 137 730 c 0,0,1
563 720 m 1,32,-1
 633 675 l 1,33,-1
 209 -49 l 1,34,-1
 138 -4 l 1,35,-1
 563 720 l 1,32,-1
636 185 m 1,36,-1
 636 244 l 1,37,-1
 740 279 l 1,38,-1
 740 191 l 1,39,-1
 805 195 l 1,40,-1
 805 120 l 1,41,-1
 740 120 l 1,42,-1
 740 106 l 2,43,44
 740 71 740 71 747 53 c 1,45,-1
 791 49 l 1,46,-1
 788 -3 l 1,47,48
 726 0 726 0 646 0 c 1,49,-1
 568 -3 l 1,50,-1
 565 45 l 1,51,-1
 630 53 l 1,52,53
 631 62 631 62 632 69.5 c 128,-1,54
 633 77 633 77 634 85 c 0,55,56
 636 101 636 101 636 111 c 2,57,-1
 636 120 l 1,58,-1
 497 120 l 1,59,-1
 442 186 l 1,60,-1
 686 495 l 1,61,-1
 759 435 l 1,62,63
 689 370 689 370 679 355 c 1,64,-1
 548 185 l 1,65,-1
 636 185 l 1,36,-1
EndSplineSet
EndChar

StartChar: questiondown
Encoding: 191 191 127
Width: 422
GlyphClass: 2
Flags: W
LayerCount: 2
Fore
SplineSet
172 63.5 m 128,-1,1
 144 27 144 27 144 -30 c 128,-1,2
 144 -87 144 -87 171 -123.5 c 128,-1,3
 198 -160 198 -160 246 -160 c 128,-1,4
 294 -160 294 -160 318 -144 c 1,5,6
 324 -123 324 -123 324 -88 c 1,7,-1
 322 -52 l 1,8,-1
 390 -47 l 1,9,-1
 402 -195 l 1,10,11
 316 -234 316 -234 241 -234 c 0,12,13
 133 -234 133 -234 71.5 -180 c 128,-1,14
 10 -126 10 -126 10 -31.5 c 128,-1,15
 10 63 10 63 67.5 116 c 128,-1,16
 125 169 125 169 220 172 c 1,17,-1
 217 252 l 1,18,-1
 234 268 l 1,19,20
 270 264 270 264 334 264 c 1,21,-1
 337 261 l 1,22,-1
 337 131 l 1,23,-1
 306 97 l 1,24,25
 280 100 280 100 240 100 c 128,-1,0
 200 100 200 100 172 63.5 c 128,-1,1
280 508 m 128,-1,27
 315 508 315 508 334.5 486.5 c 128,-1,28
 354 465 354 465 354 428.5 c 128,-1,29
 354 392 354 392 334.5 370.5 c 128,-1,30
 315 349 315 349 280 349 c 128,-1,31
 245 349 245 349 225.5 370.5 c 128,-1,32
 206 392 206 392 206 428 c 128,-1,33
 206 464 206 464 225.5 486 c 128,-1,26
 245 508 245 508 280 508 c 128,-1,27
EndSplineSet
EndChar

StartChar: Agrave
Encoding: 192 192 128
Width: 667
GlyphClass: 2
Flags: W
LayerCount: 2
Fore
SplineSet
668 65 m 1,0,-1
 663 -5 l 1,1,2
 614 0 614 0 579 0 c 2,3,-1
 375 -5 l 1,4,-1
 370 68 l 1,5,-1
 429 77 l 1,6,-1
 424 129 l 1,7,-1
 410 179 l 1,8,-1
 221 179 l 1,9,-1
 204 115 l 1,10,-1
 198 77 l 1,11,-1
 256 65 l 1,12,-1
 251 -5 l 1,13,14
 192 0 192 0 145 0 c 1,15,-1
 6 -5 l 1,16,-1
 1 68 l 1,17,-1
 46 75 l 1,18,-1
 88 161 l 1,19,-1
 277 705 l 1,20,-1
 389 716 l 1,21,-1
 589 128 l 1,22,-1
 612 74 l 1,23,-1
 668 65 l 1,0,-1
320 498 m 1,24,-1
 248 261 l 1,25,-1
 384 263 l 1,26,-1
 320 498 l 1,24,-1
450 804 m 1,27,-1
 413 740 l 1,28,-1
 339 778 l 1,29,-1
 177 824 l 1,30,-1
 213 908 l 1,31,-1
 450 804 l 1,27,-1
EndSplineSet
Position2: "'cpsp' Capital Spacing in Latin lookup 0 subtable" dx=9 dy=0 dh=18 dv=0
EndChar

StartChar: Aacute
Encoding: 193 193 129
Width: 667
GlyphClass: 2
Flags: W
LayerCount: 2
Fore
SplineSet
668 65 m 1,0,-1
 663 -5 l 1,1,2
 614 0 614 0 579 0 c 2,3,-1
 375 -5 l 1,4,-1
 370 68 l 1,5,-1
 429 77 l 1,6,-1
 424 129 l 1,7,-1
 410 179 l 1,8,-1
 221 179 l 1,9,-1
 204 115 l 1,10,-1
 198 77 l 1,11,-1
 256 65 l 1,12,-1
 251 -5 l 1,13,14
 192 0 192 0 145 0 c 1,15,-1
 6 -5 l 1,16,-1
 1 68 l 1,17,-1
 46 75 l 1,18,-1
 88 161 l 1,19,-1
 277 705 l 1,20,-1
 389 716 l 1,21,-1
 589 128 l 1,22,-1
 612 74 l 1,23,-1
 668 65 l 1,0,-1
320 498 m 1,24,-1
 248 261 l 1,25,-1
 384 263 l 1,26,-1
 320 498 l 1,24,-1
454 898 m 1,27,-1
 490 814 l 1,28,29
 347 774 347 774 328 768 c 1,30,-1
 254 730 l 1,31,-1
 217 794 l 1,32,-1
 454 898 l 1,27,-1
EndSplineSet
Position2: "'cpsp' Capital Spacing in Latin lookup 0 subtable" dx=9 dy=0 dh=18 dv=0
EndChar

StartChar: Acircumflex
Encoding: 194 194 130
Width: 667
GlyphClass: 2
Flags: W
LayerCount: 2
Fore
SplineSet
668 65 m 1,0,-1
 663 -5 l 1,1,2
 614 0 614 0 579 0 c 2,3,-1
 375 -5 l 1,4,-1
 370 68 l 1,5,-1
 429 77 l 1,6,-1
 424 129 l 1,7,-1
 410 179 l 1,8,-1
 221 179 l 1,9,-1
 204 115 l 1,10,-1
 198 77 l 1,11,-1
 256 65 l 1,12,-1
 251 -5 l 1,13,14
 192 0 192 0 145 0 c 1,15,-1
 6 -5 l 1,16,-1
 1 68 l 1,17,-1
 46 75 l 1,18,-1
 88 161 l 1,19,-1
 277 705 l 1,20,-1
 389 716 l 1,21,-1
 589 128 l 1,22,-1
 612 74 l 1,23,-1
 668 65 l 1,0,-1
320 498 m 1,24,-1
 248 261 l 1,25,-1
 384 263 l 1,26,-1
 320 498 l 1,24,-1
334 908 m 1,27,-1
 532 775 l 1,28,-1
 485 717 l 1,29,-1
 418 766 l 1,30,-1
 334 807 l 1,31,-1
 250 766 l 1,32,-1
 183 717 l 1,33,-1
 136 775 l 1,34,-1
 334 908 l 1,27,-1
EndSplineSet
Position2: "'cpsp' Capital Spacing in Latin lookup 0 subtable" dx=9 dy=0 dh=18 dv=0
EndChar

StartChar: Atilde
Encoding: 195 195 131
Width: 667
GlyphClass: 2
Flags: W
LayerCount: 2
Fore
SplineSet
668 65 m 1,0,-1
 663 -5 l 1,1,2
 614 0 614 0 579 0 c 2,3,-1
 375 -5 l 1,4,-1
 370 68 l 1,5,-1
 429 77 l 1,6,-1
 424 129 l 1,7,-1
 410 179 l 1,8,-1
 221 179 l 1,9,-1
 204 115 l 1,10,-1
 198 77 l 1,11,-1
 256 65 l 1,12,-1
 251 -5 l 1,13,14
 192 0 192 0 145 0 c 1,15,-1
 6 -5 l 1,16,-1
 1 68 l 1,17,-1
 46 75 l 1,18,-1
 88 161 l 1,19,-1
 277 705 l 1,20,-1
 389 716 l 1,21,-1
 589 128 l 1,22,-1
 612 74 l 1,23,-1
 668 65 l 1,0,-1
320 498 m 1,24,-1
 248 261 l 1,25,-1
 384 263 l 1,26,-1
 320 498 l 1,24,-1
480.5 782 m 128,-1,28
 457 754 457 754 436.5 754 c 128,-1,29
 416 754 416 754 345 773 c 128,-1,30
 274 792 274 792 258 792 c 0,31,32
 232 792 232 792 211 760 c 1,33,-1
 204 750 l 1,34,-1
 157 778 l 1,35,36
 173 816 173 816 200 849.5 c 128,-1,37
 227 883 227 883 247 883 c 128,-1,38
 267 883 267 883 338.5 864 c 128,-1,39
 410 845 410 845 426 845 c 0,40,41
 453 845 453 845 471 874 c 1,42,-1
 477 883 l 1,43,-1
 526 855 l 1,44,45
 521 844 521 844 512.5 827 c 128,-1,27
 504 810 504 810 480.5 782 c 128,-1,28
EndSplineSet
Position2: "'cpsp' Capital Spacing in Latin lookup 0 subtable" dx=9 dy=0 dh=18 dv=0
EndChar

StartChar: Adieresis
Encoding: 196 196 132
Width: 667
GlyphClass: 2
Flags: W
LayerCount: 2
Fore
SplineSet
668 65 m 1,0,-1
 663 -5 l 1,1,2
 614 0 614 0 579 0 c 2,3,-1
 375 -5 l 1,4,-1
 370 68 l 1,5,-1
 429 77 l 1,6,-1
 424 129 l 1,7,-1
 410 179 l 1,8,-1
 221 179 l 1,9,-1
 204 115 l 1,10,-1
 198 77 l 1,11,-1
 256 65 l 1,12,-1
 251 -5 l 1,13,14
 192 0 192 0 145 0 c 1,15,-1
 6 -5 l 1,16,-1
 1 68 l 1,17,-1
 46 75 l 1,18,-1
 88 161 l 1,19,-1
 277 705 l 1,20,-1
 389 716 l 1,21,-1
 589 128 l 1,22,-1
 612 74 l 1,23,-1
 668 65 l 1,0,-1
320 498 m 1,24,-1
 248 261 l 1,25,-1
 384 263 l 1,26,-1
 320 498 l 1,24,-1
216 896 m 128,-1,28
 248 896 248 896 265.5 877.5 c 128,-1,29
 283 859 283 859 283 826.5 c 128,-1,30
 283 794 283 794 265.5 775.5 c 128,-1,31
 248 757 248 757 216 757 c 128,-1,32
 184 757 184 757 166 776 c 128,-1,33
 148 795 148 795 148 826.5 c 128,-1,34
 148 858 148 858 166 877 c 128,-1,27
 184 896 184 896 216 896 c 128,-1,28
453 896 m 128,-1,36
 485 896 485 896 502.5 877.5 c 128,-1,37
 520 859 520 859 520 826.5 c 128,-1,38
 520 794 520 794 502.5 775.5 c 128,-1,39
 485 757 485 757 453 757 c 128,-1,40
 421 757 421 757 403.5 775.5 c 128,-1,41
 386 794 386 794 386 826 c 128,-1,42
 386 858 386 858 403.5 877 c 128,-1,35
 421 896 421 896 453 896 c 128,-1,36
EndSplineSet
Position2: "'cpsp' Capital Spacing in Latin lookup 0 subtable" dx=9 dy=0 dh=18 dv=0
EndChar

StartChar: Aring
Encoding: 197 197 133
Width: 667
GlyphClass: 2
Flags: W
LayerCount: 2
Fore
SplineSet
668 65 m 1,0,-1
 663 -5 l 1,1,2
 614 0 614 0 579 0 c 2,3,-1
 375 -5 l 1,4,-1
 370 68 l 1,5,-1
 429 77 l 1,6,-1
 424 129 l 1,7,-1
 410 179 l 1,8,-1
 221 179 l 1,9,-1
 204 115 l 1,10,-1
 198 77 l 1,11,-1
 256 65 l 1,12,-1
 251 -5 l 1,13,14
 192 0 192 0 145 0 c 1,15,-1
 6 -5 l 1,16,-1
 1 68 l 1,17,-1
 46 75 l 1,18,-1
 88 161 l 1,19,-1
 277 705 l 1,20,-1
 389 716 l 1,21,-1
 589 128 l 1,22,-1
 612 74 l 1,23,-1
 668 65 l 1,0,-1
320 498 m 1,24,-1
 248 261 l 1,25,-1
 384 263 l 1,26,-1
 320 498 l 1,24,-1
334 926 m 128,-1,28
 382 926 382 926 407.5 900.5 c 128,-1,29
 433 875 433 875 433 830.5 c 128,-1,30
 433 786 433 786 407.5 760.5 c 128,-1,31
 382 735 382 735 334 735 c 128,-1,32
 286 735 286 735 260 760.5 c 128,-1,33
 234 786 234 786 234 830 c 128,-1,34
 234 874 234 874 260 900 c 128,-1,27
 286 926 286 926 334 926 c 128,-1,28
334.5 868 m 128,-1,36
 303 868 303 868 303 830.5 c 128,-1,37
 303 793 303 793 334.5 793 c 128,-1,38
 366 793 366 793 366 830.5 c 128,-1,35
 366 868 366 868 334.5 868 c 128,-1,36
EndSplineSet
Position2: "'cpsp' Capital Spacing in Latin lookup 0 subtable" dx=9 dy=0 dh=18 dv=0
EndChar

StartChar: AE
Encoding: 198 198 134
Width: 912
GlyphClass: 2
Flags: W
LayerCount: 2
Fore
SplineSet
717 618 m 2,0,-1
 550 618 l 1,1,2
 553 568 553 568 556 542 c 1,3,-1
 578 400 l 1,4,5
 586 398 586 398 604 398 c 2,6,-1
 685 398 l 2,7,8
 706 398 706 398 729 407 c 1,9,-1
 738 471 l 1,10,-1
 800 466 l 1,11,12
 799 406 799 406 799 386 c 2,13,-1
 802 259 l 1,14,-1
 738 253 l 1,15,-1
 729 313 l 1,16,17
 685 319 685 319 665 319 c 2,18,-1
 609 319 l 2,19,20
 597 319 597 319 591 317 c 1,21,-1
 610 193 l 1,22,-1
 630 87 l 1,23,-1
 731 87 l 2,24,25
 768 87 768 87 808 95 c 1,26,27
 826 134 826 134 831 153 c 128,-1,28
 836 172 836 172 839 195 c 1,29,-1
 909 190 l 1,30,-1
 894 14 l 1,31,-1
 875 -4 l 1,32,33
 781 0 781 0 761 0 c 2,34,-1
 490 0 l 1,35,-1
 409 -5 l 1,36,-1
 404 65 l 1,37,-1
 471 77 l 1,38,39
 471 120 471 120 469 132 c 2,40,-1
 461 184 l 1,41,-1
 244 184 l 1,42,-1
 205 115 l 2,43,44
 204 114 204 114 202 108 c 0,45,46
 199 101 199 101 189 77 c 1,47,-1
 258 71 l 1,48,-1
 253 -5 l 1,49,50
 189 0 189 0 106 0 c 1,51,-1
 6 -5 l 1,52,-1
 1 65 l 1,53,-1
 52 74 l 1,54,55
 100 140 100 140 112 161 c 2,56,-1
 375 623 l 1,57,-1
 311 635 l 1,58,-1
 316 710 l 1,59,60
 369 705 369 705 416 705 c 2,61,-1
 747 705 l 1,62,-1
 861 715 l 1,63,-1
 880 697 l 1,64,-1
 887 536 l 1,65,-1
 815 531 l 1,66,67
 809 579 809 579 807.5 585 c 128,-1,68
 806 591 806 591 797 613 c 1,69,70
 747 618 747 618 717 618 c 2,0,-1
290 266 m 1,71,-1
 448 268 l 1,72,-1
 415 479 l 1,73,-1
 413 487 l 1,74,-1
 290 266 l 1,71,-1
EndSplineSet
Position2: "'cpsp' Capital Spacing in Latin lookup 0 subtable" dx=9 dy=0 dh=18 dv=0
EndChar

StartChar: Ccedilla
Encoding: 199 199 135
Width: 637
GlyphClass: 2
Flags: W
LayerCount: 2
Fore
SplineSet
470 -83 m 128,-1,1
 498 -106 498 -106 498 -148.5 c 128,-1,2
 498 -191 498 -191 466.5 -213 c 128,-1,3
 435 -235 435 -235 380.5 -235 c 128,-1,4
 326 -235 326 -235 288 -217 c 1,5,-1
 306 -168 l 1,6,7
 341 -179 341 -179 361 -179 c 0,8,9
 408 -179 408 -179 408 -146 c 0,10,11
 408 -115 408 -115 366 -115 c 1,12,-1
 345 -116 l 1,13,-1
 334 -102 l 1,14,-1
 342 -14 l 1,15,16
 189 -4 189 -4 108 94.5 c 128,-1,17
 27 193 27 193 27 356.5 c 128,-1,18
 27 520 27 520 117 620 c 128,-1,19
 207 720 207 720 377 720 c 0,20,21
 455 720 455 720 593 686 c 1,22,-1
 581 507 l 1,23,-1
 504 511 l 1,24,-1
 501 572 l 2,25,26
 501 582 501 582 489 613 c 1,27,28
 425 627 425 627 377 627 c 0,29,30
 290 627 290 627 248.5 552 c 128,-1,31
 207 477 207 477 207 353 c 128,-1,32
 207 229 207 229 248 153.5 c 128,-1,33
 289 78 289 78 376 78 c 0,34,35
 432 78 432 78 500 93 c 1,36,37
 501 95 501 95 505 106.5 c 128,-1,38
 509 118 509 118 512.5 128 c 128,-1,39
 516 138 516 138 516 142 c 2,40,-1
 519 189 l 1,41,-1
 594 191 l 1,42,-1
 602 19 l 1,43,44
 477 -11 477 -11 406 -14 c 1,45,-1
 397 -59 l 1,46,0
 442 -60 442 -60 470 -83 c 128,-1,1
EndSplineSet
Position2: "'cpsp' Capital Spacing in Latin lookup 0 subtable" dx=9 dy=0 dh=18 dv=0
EndChar

StartChar: Egrave
Encoding: 200 200 136
Width: 616
GlyphClass: 2
Flags: W
LayerCount: 2
Fore
SplineSet
151 705 m 2,0,-1
 419 705 l 1,1,-1
 533 715 l 1,2,-1
 552 697 l 1,3,-1
 559 541 l 1,4,-1
 487 536 l 1,5,6
 481 584 481 584 478 596 c 128,-1,7
 475 608 475 608 468 619 c 1,8,9
 428 623 428 623 389 623 c 2,10,-1
 279 623 l 1,11,12
 275 551 275 551 275 542 c 2,13,-1
 275 399 l 1,14,15
 285 398 285 398 301 398 c 2,16,-1
 357 398 l 2,17,18
 378 398 378 398 401 407 c 1,19,-1
 410 471 l 1,20,-1
 472 466 l 1,21,22
 471 403 471 403 471 383 c 2,23,-1
 474 256 l 1,24,-1
 410 250 l 1,25,-1
 401 310 l 1,26,27
 357 316 357 316 337 316 c 2,28,-1
 306 316 l 2,29,30
 282 316 282 316 275 315 c 1,31,-1
 275 193 l 2,32,33
 275 147 275 147 278 87 c 1,34,-1
 403 87 l 2,35,36
 440 87 440 87 480 95 c 1,37,38
 504 139 504 139 511 195 c 1,39,-1
 581 190 l 1,40,-1
 566 14 l 1,41,-1
 547 -4 l 1,42,43
 453 0 453 0 433 0 c 2,44,-1
 151 0 l 1,45,-1
 50 -5 l 1,46,-1
 45 65 l 1,47,-1
 111 77 l 1,48,49
 120 107 120 107 120 163 c 2,50,-1
 120 512 l 2,51,52
 120 585 120 585 111 623 c 1,53,-1
 46 635 l 1,54,-1
 51 710 l 1,55,56
 115 705 115 705 151 705 c 2,0,-1
421 804 m 1,57,-1
 384 740 l 1,58,-1
 310 778 l 1,59,-1
 148 824 l 1,60,-1
 184 908 l 1,61,-1
 421 804 l 1,57,-1
EndSplineSet
Position2: "'cpsp' Capital Spacing in Latin lookup 0 subtable" dx=9 dy=0 dh=18 dv=0
EndChar

StartChar: Eacute
Encoding: 201 201 137
Width: 616
GlyphClass: 2
Flags: W
LayerCount: 2
Fore
SplineSet
151 705 m 2,0,-1
 419 705 l 1,1,-1
 533 715 l 1,2,-1
 552 697 l 1,3,-1
 559 541 l 1,4,-1
 487 536 l 1,5,6
 481 584 481 584 478 596 c 128,-1,7
 475 608 475 608 468 619 c 1,8,9
 428 623 428 623 389 623 c 2,10,-1
 279 623 l 1,11,12
 275 551 275 551 275 542 c 2,13,-1
 275 399 l 1,14,15
 285 398 285 398 301 398 c 2,16,-1
 357 398 l 2,17,18
 378 398 378 398 401 407 c 1,19,-1
 410 471 l 1,20,-1
 472 466 l 1,21,22
 471 403 471 403 471 383 c 2,23,-1
 474 256 l 1,24,-1
 410 250 l 1,25,-1
 401 310 l 1,26,27
 357 316 357 316 337 316 c 2,28,-1
 306 316 l 2,29,30
 282 316 282 316 275 315 c 1,31,-1
 275 193 l 2,32,33
 275 147 275 147 278 87 c 1,34,-1
 403 87 l 2,35,36
 440 87 440 87 480 95 c 1,37,38
 504 139 504 139 511 195 c 1,39,-1
 581 190 l 1,40,-1
 566 14 l 1,41,-1
 547 -4 l 1,42,43
 453 0 453 0 433 0 c 2,44,-1
 151 0 l 1,45,-1
 50 -5 l 1,46,-1
 45 65 l 1,47,-1
 111 77 l 1,48,49
 120 107 120 107 120 163 c 2,50,-1
 120 512 l 2,51,52
 120 585 120 585 111 623 c 1,53,-1
 46 635 l 1,54,-1
 51 710 l 1,55,56
 115 705 115 705 151 705 c 2,0,-1
425 898 m 1,57,-1
 461 814 l 1,58,59
 318 774 318 774 299 768 c 1,60,-1
 225 730 l 1,61,-1
 188 794 l 1,62,-1
 425 898 l 1,57,-1
EndSplineSet
Position2: "'cpsp' Capital Spacing in Latin lookup 0 subtable" dx=9 dy=0 dh=18 dv=0
EndChar

StartChar: Ecircumflex
Encoding: 202 202 138
Width: 616
GlyphClass: 2
Flags: W
LayerCount: 2
Fore
SplineSet
151 705 m 2,0,-1
 419 705 l 1,1,-1
 533 715 l 1,2,-1
 552 697 l 1,3,-1
 559 541 l 1,4,-1
 487 536 l 1,5,6
 481 584 481 584 478 596 c 128,-1,7
 475 608 475 608 468 619 c 1,8,9
 428 623 428 623 389 623 c 2,10,-1
 279 623 l 1,11,12
 275 551 275 551 275 542 c 2,13,-1
 275 399 l 1,14,15
 285 398 285 398 301 398 c 2,16,-1
 357 398 l 2,17,18
 378 398 378 398 401 407 c 1,19,-1
 410 471 l 1,20,-1
 472 466 l 1,21,22
 471 403 471 403 471 383 c 2,23,-1
 474 256 l 1,24,-1
 410 250 l 1,25,-1
 401 310 l 1,26,27
 357 316 357 316 337 316 c 2,28,-1
 306 316 l 2,29,30
 282 316 282 316 275 315 c 1,31,-1
 275 193 l 2,32,33
 275 147 275 147 278 87 c 1,34,-1
 403 87 l 2,35,36
 440 87 440 87 480 95 c 1,37,38
 504 139 504 139 511 195 c 1,39,-1
 581 190 l 1,40,-1
 566 14 l 1,41,-1
 547 -4 l 1,42,43
 453 0 453 0 433 0 c 2,44,-1
 151 0 l 1,45,-1
 50 -5 l 1,46,-1
 45 65 l 1,47,-1
 111 77 l 1,48,49
 120 107 120 107 120 163 c 2,50,-1
 120 512 l 2,51,52
 120 585 120 585 111 623 c 1,53,-1
 46 635 l 1,54,-1
 51 710 l 1,55,56
 115 705 115 705 151 705 c 2,0,-1
305 948 m 1,57,-1
 503 815 l 1,58,-1
 456 757 l 1,59,-1
 389 806 l 1,60,-1
 305 847 l 1,61,-1
 221 806 l 1,62,-1
 154 757 l 1,63,-1
 107 815 l 1,64,-1
 305 948 l 1,57,-1
EndSplineSet
Position2: "'cpsp' Capital Spacing in Latin lookup 0 subtable" dx=9 dy=0 dh=18 dv=0
EndChar

StartChar: Edieresis
Encoding: 203 203 139
Width: 616
GlyphClass: 2
Flags: W
LayerCount: 2
Fore
SplineSet
151 705 m 2,0,-1
 419 705 l 1,1,-1
 533 715 l 1,2,-1
 552 697 l 1,3,-1
 559 541 l 1,4,-1
 487 536 l 1,5,6
 481 584 481 584 478 596 c 128,-1,7
 475 608 475 608 468 619 c 1,8,9
 428 623 428 623 389 623 c 2,10,-1
 279 623 l 1,11,12
 275 551 275 551 275 542 c 2,13,-1
 275 399 l 1,14,15
 285 398 285 398 301 398 c 2,16,-1
 357 398 l 2,17,18
 378 398 378 398 401 407 c 1,19,-1
 410 471 l 1,20,-1
 472 466 l 1,21,22
 471 403 471 403 471 383 c 2,23,-1
 474 256 l 1,24,-1
 410 250 l 1,25,-1
 401 310 l 1,26,27
 357 316 357 316 337 316 c 2,28,-1
 306 316 l 2,29,30
 282 316 282 316 275 315 c 1,31,-1
 275 193 l 2,32,33
 275 147 275 147 278 87 c 1,34,-1
 403 87 l 2,35,36
 440 87 440 87 480 95 c 1,37,38
 504 139 504 139 511 195 c 1,39,-1
 581 190 l 1,40,-1
 566 14 l 1,41,-1
 547 -4 l 1,42,43
 453 0 453 0 433 0 c 2,44,-1
 151 0 l 1,45,-1
 50 -5 l 1,46,-1
 45 65 l 1,47,-1
 111 77 l 1,48,49
 120 107 120 107 120 163 c 2,50,-1
 120 512 l 2,51,52
 120 585 120 585 111 623 c 1,53,-1
 46 635 l 1,54,-1
 51 710 l 1,55,56
 115 705 115 705 151 705 c 2,0,-1
187 896 m 128,-1,58
 219 896 219 896 236.5 877.5 c 128,-1,59
 254 859 254 859 254 826.5 c 128,-1,60
 254 794 254 794 236.5 775.5 c 128,-1,61
 219 757 219 757 187 757 c 128,-1,62
 155 757 155 757 137 776 c 128,-1,63
 119 795 119 795 119 826.5 c 128,-1,64
 119 858 119 858 137 877 c 128,-1,57
 155 896 155 896 187 896 c 128,-1,58
424 896 m 128,-1,66
 456 896 456 896 473.5 877.5 c 128,-1,67
 491 859 491 859 491 826.5 c 128,-1,68
 491 794 491 794 473.5 775.5 c 128,-1,69
 456 757 456 757 424 757 c 128,-1,70
 392 757 392 757 374.5 775.5 c 128,-1,71
 357 794 357 794 357 826 c 128,-1,72
 357 858 357 858 374.5 877 c 128,-1,65
 392 896 392 896 424 896 c 128,-1,66
EndSplineSet
Position2: "'cpsp' Capital Spacing in Latin lookup 0 subtable" dx=9 dy=0 dh=18 dv=0
EndChar

StartChar: Igrave
Encoding: 204 204 140
Width: 405
GlyphClass: 2
Flags: W
LayerCount: 2
Fore
SplineSet
116 77 m 1,0,-1
 125 163 l 1,1,-1
 125 512 l 2,2,3
 125 551 125 551 116 623 c 1,4,-1
 51 635 l 1,5,-1
 56 710 l 1,6,7
 109 705 109 705 156 705 c 1,8,-1
 350 710 l 1,9,-1
 355 629 l 1,10,-1
 289 623 l 1,11,12
 280 578 280 578 280 542 c 2,13,-1
 280 193 l 2,14,15
 280 140 280 140 289 77 c 1,16,-1
 354 71 l 1,17,-1
 349 -5 l 1,18,19
 268 0 268 0 155 0 c 1,20,-1
 55 -5 l 1,21,-1
 50 65 l 1,22,-1
 116 77 l 1,0,-1
319 804 m 1,23,-1
 282 740 l 1,24,-1
 208 778 l 1,25,-1
 46 824 l 1,26,-1
 82 908 l 1,27,-1
 319 804 l 1,23,-1
EndSplineSet
Position2: "'cpsp' Capital Spacing in Latin lookup 0 subtable" dx=9 dy=0 dh=18 dv=0
EndChar

StartChar: Iacute
Encoding: 205 205 141
Width: 405
GlyphClass: 2
Flags: W
LayerCount: 2
Fore
SplineSet
116 77 m 1,0,-1
 125 163 l 1,1,-1
 125 512 l 2,2,3
 125 551 125 551 116 623 c 1,4,-1
 51 635 l 1,5,-1
 56 710 l 1,6,7
 109 705 109 705 156 705 c 1,8,-1
 350 710 l 1,9,-1
 355 629 l 1,10,-1
 289 623 l 1,11,12
 280 578 280 578 280 542 c 2,13,-1
 280 193 l 2,14,15
 280 140 280 140 289 77 c 1,16,-1
 354 71 l 1,17,-1
 349 -5 l 1,18,19
 268 0 268 0 155 0 c 1,20,-1
 55 -5 l 1,21,-1
 50 65 l 1,22,-1
 116 77 l 1,0,-1
323 898 m 1,23,-1
 359 814 l 1,24,25
 216 774 216 774 197 768 c 1,26,-1
 123 730 l 1,27,-1
 86 794 l 1,28,-1
 323 898 l 1,23,-1
EndSplineSet
Position2: "'cpsp' Capital Spacing in Latin lookup 0 subtable" dx=9 dy=0 dh=18 dv=0
EndChar

StartChar: Icircumflex
Encoding: 206 206 142
Width: 405
GlyphClass: 2
Flags: W
LayerCount: 2
Fore
SplineSet
116 77 m 1,0,-1
 125 163 l 1,1,-1
 125 512 l 2,2,3
 125 551 125 551 116 623 c 1,4,-1
 51 635 l 1,5,-1
 56 710 l 1,6,7
 109 705 109 705 156 705 c 1,8,-1
 350 710 l 1,9,-1
 355 629 l 1,10,-1
 289 623 l 1,11,12
 280 578 280 578 280 542 c 2,13,-1
 280 193 l 2,14,15
 280 140 280 140 289 77 c 1,16,-1
 354 71 l 1,17,-1
 349 -5 l 1,18,19
 268 0 268 0 155 0 c 1,20,-1
 55 -5 l 1,21,-1
 50 65 l 1,22,-1
 116 77 l 1,0,-1
203 938 m 1,23,-1
 401 805 l 1,24,-1
 354 747 l 1,25,-1
 287 796 l 1,26,-1
 203 837 l 1,27,-1
 119 796 l 1,28,-1
 52 747 l 1,29,-1
 5 805 l 1,30,-1
 203 938 l 1,23,-1
EndSplineSet
Position2: "'cpsp' Capital Spacing in Latin lookup 0 subtable" dx=9 dy=0 dh=18 dv=0
EndChar

StartChar: Idieresis
Encoding: 207 207 143
Width: 405
GlyphClass: 3
Flags: W
LayerCount: 2
Fore
SplineSet
116 77 m 1,0,-1
 125 163 l 1,1,-1
 125 512 l 2,2,3
 125 551 125 551 116 623 c 1,4,-1
 51 635 l 1,5,-1
 56 710 l 1,6,7
 109 705 109 705 156 705 c 1,8,-1
 350 710 l 1,9,-1
 355 629 l 1,10,-1
 289 623 l 1,11,12
 280 578 280 578 280 542 c 2,13,-1
 280 193 l 2,14,15
 280 140 280 140 289 77 c 1,16,-1
 354 71 l 1,17,-1
 349 -5 l 1,18,19
 268 0 268 0 155 0 c 1,20,-1
 55 -5 l 1,21,-1
 50 65 l 1,22,-1
 116 77 l 1,0,-1
115 896 m 128,-1,24
 146 896 146 896 163 877.5 c 128,-1,25
 180 859 180 859 180 826.5 c 128,-1,26
 180 794 180 794 163 775.5 c 128,-1,27
 146 757 146 757 115 757 c 128,-1,28
 84 757 84 757 67 776 c 128,-1,29
 50 795 50 795 50 826.5 c 128,-1,30
 50 858 50 858 67 877 c 128,-1,23
 84 896 84 896 115 896 c 128,-1,24
289 896 m 128,-1,32
 320 896 320 896 337 877.5 c 128,-1,33
 354 859 354 859 354 826.5 c 128,-1,34
 354 794 354 794 337 775.5 c 128,-1,35
 320 757 320 757 289 757 c 128,-1,36
 258 757 258 757 241.5 775.5 c 128,-1,37
 225 794 225 794 225 826 c 128,-1,38
 225 858 225 858 241.5 877 c 128,-1,31
 258 896 258 896 289 896 c 128,-1,32
EndSplineSet
Ligature2: "'liga' Standard Ligatures in Latin lookup 16 subtable" dieresis I
Position2: "'cpsp' Capital Spacing in Latin lookup 0 subtable" dx=9 dy=0 dh=18 dv=0
EndChar

StartChar: Eth
Encoding: 208 208 144
Width: 684
GlyphClass: 2
Flags: W
LayerCount: 2
Fore
SplineSet
351 -6 m 1,0,-1
 141 0 l 1,1,-1
 41 -5 l 1,2,-1
 36 65 l 1,3,-1
 102 77 l 1,4,5
 111 143 111 143 111 163 c 2,6,-1
 111 322 l 1,7,-1
 42 322 l 1,8,-1
 42 395 l 1,9,-1
 111 395 l 1,10,-1
 111 512 l 2,11,12
 111 549 111 549 104 606 c 2,13,-1
 102 623 l 1,14,-1
 37 635 l 1,15,-1
 42 710 l 1,16,17
 95 705 95 705 142 705 c 1,18,-1
 351 715 l 1,19,20
 521 715 521 715 612 616.5 c 128,-1,21
 703 518 703 518 703 353.5 c 128,-1,22
 703 189 703 189 612 91.5 c 128,-1,23
 521 -6 521 -6 351 -6 c 1,0,-1
266 322 m 1,24,-1
 266 193 l 2,25,26
 266 128 266 128 270 80 c 1,27,28
 303 77 303 77 335 77 c 0,29,30
 441 77 441 77 488.5 152 c 128,-1,31
 536 227 536 227 536 354 c 0,32,33
 536 475 536 475 492 550 c 0,34,35
 444 632 444 632 337 632 c 0,36,37
 316 632 316 632 270 624 c 1,38,39
 266 556 266 556 266 542 c 2,40,-1
 266 395 l 1,41,-1
 364 395 l 1,42,-1
 359 322 l 1,43,-1
 266 322 l 1,24,-1
EndSplineSet
Position2: "'cpsp' Capital Spacing in Latin lookup 0 subtable" dx=9 dy=0 dh=18 dv=0
EndChar

StartChar: Ntilde
Encoding: 209 209 145
Width: 802
GlyphClass: 2
Flags: W
LayerCount: 2
Fore
SplineSet
707 542 m 2,0,-1
 707 0 l 1,1,-1
 572 0 l 1,2,-1
 247 450 l 1,3,-1
 247 193 l 2,4,5
 247 167 247 167 256 77 c 1,6,-1
 321 71 l 1,7,-1
 316 -5 l 1,8,9
 263 0 263 0 150 0 c 1,10,-1
 50 -5 l 1,11,-1
 45 65 l 1,12,-1
 111 77 l 1,13,14
 120 126 120 126 120 163 c 2,15,-1
 120 512 l 2,16,17
 120 574 120 574 111 623 c 1,18,-1
 46 635 l 1,19,-1
 51 710 l 1,20,21
 104 705 104 705 151 705 c 2,22,-1
 253 705 l 1,23,-1
 272 685 l 1,24,25
 345 559 345 559 360 537 c 2,26,-1
 580 230 l 1,27,-1
 580 512 l 2,28,29
 580 551 580 551 571 623 c 1,30,-1
 506 635 l 1,31,-1
 511 710 l 1,32,-1
 611 705 l 1,33,-1
 777 710 l 1,34,-1
 782 629 l 1,35,-1
 716 623 l 1,36,37
 707 569 707 569 707 542 c 2,0,-1
557.5 782 m 128,-1,39
 534 754 534 754 513.5 754 c 128,-1,40
 493 754 493 754 422.5 773 c 128,-1,41
 352 792 352 792 336 792 c 0,42,43
 309 792 309 792 288 760 c 1,44,-1
 281 750 l 1,45,-1
 234 778 l 1,46,47
 250 816 250 816 277 849.5 c 128,-1,48
 304 883 304 883 324 883 c 128,-1,49
 344 883 344 883 415.5 864 c 128,-1,50
 487 845 487 845 503 845 c 0,51,52
 530 845 530 845 548 874 c 1,53,-1
 554 883 l 1,54,-1
 603 855 l 1,55,56
 598 844 598 844 589.5 827 c 128,-1,38
 581 810 581 810 557.5 782 c 128,-1,39
EndSplineSet
Position2: "'cpsp' Capital Spacing in Latin lookup 0 subtable" dx=9 dy=0 dh=18 dv=0
EndChar

StartChar: Ograve
Encoding: 210 210 146
Width: 768
GlyphClass: 2
Flags: W
LayerCount: 2
Fore
SplineSet
644 623 m 128,-1,1
 741 522 741 522 741 352.5 c 128,-1,2
 741 183 741 183 644 82 c 128,-1,3
 547 -19 547 -19 384 -19 c 128,-1,4
 221 -19 221 -19 124 82 c 128,-1,5
 27 183 27 183 27 352.5 c 128,-1,6
 27 522 27 522 124 623 c 128,-1,7
 221 724 221 724 384 724 c 128,-1,0
 547 724 547 724 644 623 c 128,-1,1
250.5 559.5 m 128,-1,9
 207 492 207 492 207 352.5 c 128,-1,10
 207 213 207 213 250.5 145.5 c 128,-1,11
 294 78 294 78 384 78 c 128,-1,12
 474 78 474 78 517.5 145.5 c 128,-1,13
 561 213 561 213 561 352.5 c 128,-1,14
 561 492 561 492 517.5 559.5 c 128,-1,15
 474 627 474 627 384 627 c 128,-1,8
 294 627 294 627 250.5 559.5 c 128,-1,9
499 804 m 1,16,-1
 462 740 l 1,17,-1
 388 778 l 1,18,-1
 226 824 l 1,19,-1
 262 908 l 1,20,-1
 499 804 l 1,16,-1
EndSplineSet
Position2: "'cpsp' Capital Spacing in Latin lookup 0 subtable" dx=9 dy=0 dh=18 dv=0
EndChar

StartChar: Oacute
Encoding: 211 211 147
Width: 768
GlyphClass: 2
Flags: W
LayerCount: 2
Fore
SplineSet
644 623 m 128,-1,1
 741 522 741 522 741 352.5 c 128,-1,2
 741 183 741 183 644 82 c 128,-1,3
 547 -19 547 -19 384 -19 c 128,-1,4
 221 -19 221 -19 124 82 c 128,-1,5
 27 183 27 183 27 352.5 c 128,-1,6
 27 522 27 522 124 623 c 128,-1,7
 221 724 221 724 384 724 c 128,-1,0
 547 724 547 724 644 623 c 128,-1,1
250.5 559.5 m 128,-1,9
 207 492 207 492 207 352.5 c 128,-1,10
 207 213 207 213 250.5 145.5 c 128,-1,11
 294 78 294 78 384 78 c 128,-1,12
 474 78 474 78 517.5 145.5 c 128,-1,13
 561 213 561 213 561 352.5 c 128,-1,14
 561 492 561 492 517.5 559.5 c 128,-1,15
 474 627 474 627 384 627 c 128,-1,8
 294 627 294 627 250.5 559.5 c 128,-1,9
503 908 m 1,16,-1
 539 824 l 1,17,18
 396 784 396 784 377 778 c 1,19,-1
 303 740 l 1,20,-1
 266 804 l 1,21,-1
 503 908 l 1,16,-1
EndSplineSet
Position2: "'cpsp' Capital Spacing in Latin lookup 0 subtable" dx=9 dy=0 dh=18 dv=0
EndChar

StartChar: Ocircumflex
Encoding: 212 212 148
Width: 768
GlyphClass: 2
Flags: W
LayerCount: 2
Fore
SplineSet
644 623 m 128,-1,1
 741 522 741 522 741 352.5 c 128,-1,2
 741 183 741 183 644 82 c 128,-1,3
 547 -19 547 -19 384 -19 c 128,-1,4
 221 -19 221 -19 124 82 c 128,-1,5
 27 183 27 183 27 352.5 c 128,-1,6
 27 522 27 522 124 623 c 128,-1,7
 221 724 221 724 384 724 c 128,-1,0
 547 724 547 724 644 623 c 128,-1,1
250.5 559.5 m 128,-1,9
 207 492 207 492 207 352.5 c 128,-1,10
 207 213 207 213 250.5 145.5 c 128,-1,11
 294 78 294 78 384 78 c 128,-1,12
 474 78 474 78 517.5 145.5 c 128,-1,13
 561 213 561 213 561 352.5 c 128,-1,14
 561 492 561 492 517.5 559.5 c 128,-1,15
 474 627 474 627 384 627 c 128,-1,8
 294 627 294 627 250.5 559.5 c 128,-1,9
383 938 m 1,16,-1
 581 805 l 1,17,-1
 534 747 l 1,18,-1
 467 796 l 1,19,-1
 383 837 l 1,20,-1
 299 796 l 1,21,-1
 232 747 l 1,22,-1
 185 805 l 1,23,-1
 383 938 l 1,16,-1
EndSplineSet
Position2: "'cpsp' Capital Spacing in Latin lookup 0 subtable" dx=9 dy=0 dh=18 dv=0
EndChar

StartChar: Otilde
Encoding: 213 213 149
Width: 768
GlyphClass: 2
Flags: W
LayerCount: 2
Fore
SplineSet
644 623 m 128,-1,1
 741 522 741 522 741 352.5 c 128,-1,2
 741 183 741 183 644 82 c 128,-1,3
 547 -19 547 -19 384 -19 c 128,-1,4
 221 -19 221 -19 124 82 c 128,-1,5
 27 183 27 183 27 352.5 c 128,-1,6
 27 522 27 522 124 623 c 128,-1,7
 221 724 221 724 384 724 c 128,-1,0
 547 724 547 724 644 623 c 128,-1,1
250.5 559.5 m 128,-1,9
 207 492 207 492 207 352.5 c 128,-1,10
 207 213 207 213 250.5 145.5 c 128,-1,11
 294 78 294 78 384 78 c 128,-1,12
 474 78 474 78 517.5 145.5 c 128,-1,13
 561 213 561 213 561 352.5 c 128,-1,14
 561 492 561 492 517.5 559.5 c 128,-1,15
 474 627 474 627 384 627 c 128,-1,8
 294 627 294 627 250.5 559.5 c 128,-1,9
518.5 782 m 128,-1,17
 495 754 495 754 474.5 754 c 128,-1,18
 454 754 454 754 383 773 c 128,-1,19
 312 792 312 792 296 792 c 0,20,21
 270 792 270 792 249 760 c 1,22,-1
 242 750 l 1,23,-1
 195 778 l 1,24,25
 211 816 211 816 238 849.5 c 128,-1,26
 265 883 265 883 285 883 c 128,-1,27
 305 883 305 883 376.5 864 c 128,-1,28
 448 845 448 845 464 845 c 0,29,30
 491 845 491 845 509 874 c 1,31,-1
 515 883 l 1,32,-1
 564 855 l 1,33,34
 559 844 559 844 550.5 827 c 128,-1,16
 542 810 542 810 518.5 782 c 128,-1,17
EndSplineSet
Position2: "'cpsp' Capital Spacing in Latin lookup 0 subtable" dx=9 dy=0 dh=18 dv=0
EndChar

StartChar: Odieresis
Encoding: 214 214 150
Width: 768
GlyphClass: 3
Flags: W
LayerCount: 2
Fore
SplineSet
644 623 m 128,-1,1
 741 522 741 522 741 352.5 c 128,-1,2
 741 183 741 183 644 82 c 128,-1,3
 547 -19 547 -19 384 -19 c 128,-1,4
 221 -19 221 -19 124 82 c 128,-1,5
 27 183 27 183 27 352.5 c 128,-1,6
 27 522 27 522 124 623 c 128,-1,7
 221 724 221 724 384 724 c 128,-1,0
 547 724 547 724 644 623 c 128,-1,1
250.5 559.5 m 128,-1,9
 207 492 207 492 207 352.5 c 128,-1,10
 207 213 207 213 250.5 145.5 c 128,-1,11
 294 78 294 78 384 78 c 128,-1,12
 474 78 474 78 517.5 145.5 c 128,-1,13
 561 213 561 213 561 352.5 c 128,-1,14
 561 492 561 492 517.5 559.5 c 128,-1,15
 474 627 474 627 384 627 c 128,-1,8
 294 627 294 627 250.5 559.5 c 128,-1,9
265 896 m 128,-1,17
 297 896 297 896 314.5 877.5 c 128,-1,18
 332 859 332 859 332 826.5 c 128,-1,19
 332 794 332 794 314.5 775.5 c 128,-1,20
 297 757 297 757 265 757 c 128,-1,21
 233 757 233 757 215 776 c 128,-1,22
 197 795 197 795 197 826.5 c 128,-1,23
 197 858 197 858 215 877 c 128,-1,16
 233 896 233 896 265 896 c 128,-1,17
502 896 m 128,-1,25
 534 896 534 896 551.5 877.5 c 128,-1,26
 569 859 569 859 569 826.5 c 128,-1,27
 569 794 569 794 551.5 775.5 c 128,-1,28
 534 757 534 757 502 757 c 128,-1,29
 470 757 470 757 452.5 775.5 c 128,-1,30
 435 794 435 794 435 826 c 128,-1,31
 435 858 435 858 452.5 877 c 128,-1,24
 470 896 470 896 502 896 c 128,-1,25
EndSplineSet
Ligature2: "'liga' Standard Ligatures in Latin lookup 16 subtable" dieresis O
Position2: "'cpsp' Capital Spacing in Latin lookup 0 subtable" dx=9 dy=0 dh=18 dv=0
EndChar

StartChar: multiply
Encoding: 215 215 151
Width: 556
GlyphClass: 2
Flags: W
LayerCount: 2
Fore
SplineSet
277 312 m 1,0,-1
 422 460 l 1,1,-1
 494 389 l 1,2,-1
 348 243 l 1,3,-1
 496 98 l 1,4,-1
 425 26 l 1,5,-1
 278 172 l 1,6,-1
 130 24 l 1,7,-1
 61 92 l 1,8,-1
 208 242 l 1,9,-1
 60 390 l 1,10,-1
 128 459 l 1,11,-1
 277 312 l 1,0,-1
EndSplineSet
EndChar

StartChar: Oslash
Encoding: 216 216 152
Width: 768
GlyphClass: 2
Flags: W
LayerCount: 2
Fore
SplineSet
741 352 m 0,0,1
 741 183 741 183 644 82 c 128,-1,2
 547 -19 547 -19 384 -19 c 0,3,4
 306 -19 306 -19 239 6 c 1,5,-1
 164 -137 l 1,6,-1
 107 -108 l 1,7,-1
 182 35 l 1,8,9
 108 82 108 82 67.5 163.5 c 128,-1,10
 27 245 27 245 27 352 c 0,11,12
 27 522 27 522 124 623 c 128,-1,13
 221 724 221 724 384 724 c 0,14,15
 464 724 464 724 530 698 c 1,16,-1
 604 838 l 1,17,-1
 663 809 l 1,18,-1
 588 668 l 1,19,20
 661 621 661 621 701 539.5 c 128,-1,21
 741 458 741 458 741 352 c 0,0,1
250.5 559.5 m 128,-1,23
 207 492 207 492 207 356.5 c 128,-1,24
 207 221 207 221 244 154 c 1,25,-1
 479 600 l 1,26,27
 440 627 440 627 384 627 c 0,28,22
 294 627 294 627 250.5 559.5 c 128,-1,23
384 78 m 0,29,30
 561 78 561 78 561 346 c 0,31,32
 561 480 561 480 525 547 c 1,33,-1
 290 103 l 1,34,35
 328 78 328 78 384 78 c 0,29,30
EndSplineSet
Position2: "'cpsp' Capital Spacing in Latin lookup 0 subtable" dx=9 dy=0 dh=18 dv=0
EndChar

StartChar: Ugrave
Encoding: 217 217 153
Width: 779
GlyphClass: 2
Flags: W
LayerCount: 2
Fore
SplineSet
679 542 m 2,0,-1
 679 268 l 2,1,2
 679 137 679 137 604 61 c 128,-1,3
 529 -15 529 -15 389 -15 c 128,-1,4
 249 -15 249 -15 174.5 61 c 128,-1,5
 100 137 100 137 100 268 c 2,6,-1
 100 512 l 2,7,8
 100 581 100 581 91 623 c 1,9,-1
 26 635 l 1,10,-1
 31 710 l 1,11,12
 84 705 84 705 131 705 c 1,13,-1
 330 710 l 1,14,-1
 335 629 l 1,15,-1
 269 623 l 1,16,17
 260 590 260 590 260 542 c 2,18,-1
 260 260 l 2,19,20
 260 190 260 190 298.5 144.5 c 128,-1,21
 337 99 337 99 409.5 99 c 128,-1,22
 482 99 482 99 514.5 140 c 128,-1,23
 547 181 547 181 547 260 c 2,24,-1
 547 512 l 2,25,26
 547 556 547 556 538 623 c 1,27,-1
 473 635 l 1,28,-1
 478 710 l 1,29,30
 531 705 531 705 578 705 c 1,31,-1
 749 710 l 1,32,-1
 754 629 l 1,33,-1
 688 623 l 1,34,35
 679 581 679 581 679 542 c 2,0,-1
506 804 m 1,36,-1
 469 740 l 1,37,-1
 395 778 l 1,38,-1
 233 824 l 1,39,-1
 269 908 l 1,40,-1
 506 804 l 1,36,-1
EndSplineSet
Position2: "'cpsp' Capital Spacing in Latin lookup 0 subtable" dx=9 dy=0 dh=18 dv=0
EndChar

StartChar: Uacute
Encoding: 218 218 154
Width: 779
GlyphClass: 2
Flags: W
LayerCount: 2
Fore
SplineSet
679 542 m 2,0,-1
 679 268 l 2,1,2
 679 137 679 137 604 61 c 128,-1,3
 529 -15 529 -15 389 -15 c 128,-1,4
 249 -15 249 -15 174.5 61 c 128,-1,5
 100 137 100 137 100 268 c 2,6,-1
 100 512 l 2,7,8
 100 581 100 581 91 623 c 1,9,-1
 26 635 l 1,10,-1
 31 710 l 1,11,12
 84 705 84 705 131 705 c 1,13,-1
 330 710 l 1,14,-1
 335 629 l 1,15,-1
 269 623 l 1,16,17
 260 590 260 590 260 542 c 2,18,-1
 260 260 l 2,19,20
 260 190 260 190 298.5 144.5 c 128,-1,21
 337 99 337 99 409.5 99 c 128,-1,22
 482 99 482 99 514.5 140 c 128,-1,23
 547 181 547 181 547 260 c 2,24,-1
 547 512 l 2,25,26
 547 556 547 556 538 623 c 1,27,-1
 473 635 l 1,28,-1
 478 710 l 1,29,30
 531 705 531 705 578 705 c 1,31,-1
 749 710 l 1,32,-1
 754 629 l 1,33,-1
 688 623 l 1,34,35
 679 581 679 581 679 542 c 2,0,-1
510 898 m 1,36,-1
 546 814 l 1,37,38
 403 774 403 774 384 768 c 1,39,-1
 310 730 l 1,40,-1
 273 794 l 1,41,-1
 510 898 l 1,36,-1
EndSplineSet
Position2: "'cpsp' Capital Spacing in Latin lookup 0 subtable" dx=9 dy=0 dh=18 dv=0
EndChar

StartChar: Ucircumflex
Encoding: 219 219 155
Width: 779
GlyphClass: 2
Flags: W
LayerCount: 2
Fore
SplineSet
679 542 m 2,0,-1
 679 268 l 2,1,2
 679 137 679 137 604 61 c 128,-1,3
 529 -15 529 -15 389 -15 c 128,-1,4
 249 -15 249 -15 174.5 61 c 128,-1,5
 100 137 100 137 100 268 c 2,6,-1
 100 512 l 2,7,8
 100 581 100 581 91 623 c 1,9,-1
 26 635 l 1,10,-1
 31 710 l 1,11,12
 84 705 84 705 131 705 c 1,13,-1
 330 710 l 1,14,-1
 335 629 l 1,15,-1
 269 623 l 1,16,17
 260 590 260 590 260 542 c 2,18,-1
 260 260 l 2,19,20
 260 190 260 190 298.5 144.5 c 128,-1,21
 337 99 337 99 409.5 99 c 128,-1,22
 482 99 482 99 514.5 140 c 128,-1,23
 547 181 547 181 547 260 c 2,24,-1
 547 512 l 2,25,26
 547 556 547 556 538 623 c 1,27,-1
 473 635 l 1,28,-1
 478 710 l 1,29,30
 531 705 531 705 578 705 c 1,31,-1
 749 710 l 1,32,-1
 754 629 l 1,33,-1
 688 623 l 1,34,35
 679 581 679 581 679 542 c 2,0,-1
390 938 m 1,36,-1
 588 805 l 1,37,-1
 541 747 l 1,38,-1
 474 796 l 1,39,-1
 390 837 l 1,40,-1
 306 796 l 1,41,-1
 239 747 l 1,42,-1
 192 805 l 1,43,-1
 390 938 l 1,36,-1
EndSplineSet
Position2: "'cpsp' Capital Spacing in Latin lookup 0 subtable" dx=9 dy=0 dh=18 dv=0
EndChar

StartChar: Udieresis
Encoding: 220 220 156
Width: 779
GlyphClass: 2
Flags: W
LayerCount: 2
Fore
SplineSet
679 542 m 2,0,-1
 679 268 l 2,1,2
 679 137 679 137 604 61 c 128,-1,3
 529 -15 529 -15 389 -15 c 128,-1,4
 249 -15 249 -15 174.5 61 c 128,-1,5
 100 137 100 137 100 268 c 2,6,-1
 100 512 l 2,7,8
 100 581 100 581 91 623 c 1,9,-1
 26 635 l 1,10,-1
 31 710 l 1,11,12
 84 705 84 705 131 705 c 1,13,-1
 330 710 l 1,14,-1
 335 629 l 1,15,-1
 269 623 l 1,16,17
 260 590 260 590 260 542 c 2,18,-1
 260 260 l 2,19,20
 260 190 260 190 298.5 144.5 c 128,-1,21
 337 99 337 99 409.5 99 c 128,-1,22
 482 99 482 99 514.5 140 c 128,-1,23
 547 181 547 181 547 260 c 2,24,-1
 547 512 l 2,25,26
 547 556 547 556 538 623 c 1,27,-1
 473 635 l 1,28,-1
 478 710 l 1,29,30
 531 705 531 705 578 705 c 1,31,-1
 749 710 l 1,32,-1
 754 629 l 1,33,-1
 688 623 l 1,34,35
 679 581 679 581 679 542 c 2,0,-1
272 896 m 128,-1,37
 304 896 304 896 321.5 877.5 c 128,-1,38
 339 859 339 859 339 826.5 c 128,-1,39
 339 794 339 794 321.5 775.5 c 128,-1,40
 304 757 304 757 272 757 c 128,-1,41
 240 757 240 757 222 776 c 128,-1,42
 204 795 204 795 204 826.5 c 128,-1,43
 204 858 204 858 222 877 c 128,-1,36
 240 896 240 896 272 896 c 128,-1,37
509 896 m 128,-1,45
 541 896 541 896 558.5 877.5 c 128,-1,46
 576 859 576 859 576 826.5 c 128,-1,47
 576 794 576 794 558.5 775.5 c 128,-1,48
 541 757 541 757 509 757 c 128,-1,49
 477 757 477 757 459.5 775.5 c 128,-1,50
 442 794 442 794 442 826 c 128,-1,51
 442 858 442 858 459.5 877 c 128,-1,44
 477 896 477 896 509 896 c 128,-1,45
EndSplineSet
Position2: "'cpsp' Capital Spacing in Latin lookup 0 subtable" dx=9 dy=0 dh=18 dv=0
EndChar

StartChar: Yacute
Encoding: 221 221 157
Width: 712
GlyphClass: 3
Flags: W
LayerCount: 2
Fore
SplineSet
271 77 m 1,0,-1
 280 163 l 1,1,-1
 280 249 l 1,2,-1
 102 577 l 2,3,4
 90 599 90 599 63 623 c 2,5,-1
 54 631 l 1,6,-1
 -6 640 l 1,7,-1
 -1 710 l 1,8,9
 54 705 54 705 91 705 c 2,10,-1
 299 710 l 1,11,-1
 304 637 l 1,12,-1
 251 628 l 1,13,14
 258 595 258 595 268 576 c 2,15,-1
 373 369 l 1,16,-1
 483 590 l 1,17,-1
 487 628 l 1,18,-1
 443 640 l 1,19,-1
 448 710 l 1,20,21
 511 705 511 705 558 705 c 1,22,-1
 705 710 l 1,23,-1
 710 637 l 1,24,-1
 650 630 l 1,25,26
 605 576 605 576 588 544 c 2,27,-1
 435 250 l 1,28,-1
 435 193 l 2,29,30
 435 140 435 140 444 77 c 1,31,-1
 509 71 l 1,32,-1
 504 -5 l 1,33,34
 423 0 423 0 310 0 c 1,35,-1
 210 -5 l 1,36,-1
 205 65 l 1,37,-1
 271 77 l 1,0,-1
476 898 m 1,38,-1
 512 814 l 1,39,40
 369 774 369 774 350 768 c 1,41,-1
 276 730 l 1,42,-1
 239 794 l 1,43,-1
 476 898 l 1,38,-1
EndSplineSet
Ligature2: "'liga' Standard Ligatures in Latin lookup 16 subtable" acute Y
Position2: "'cpsp' Capital Spacing in Latin lookup 0 subtable" dx=9 dy=0 dh=18 dv=0
EndChar

StartChar: Thorn
Encoding: 222 222 158
Width: 600
GlyphClass: 2
Flags: W
LayerCount: 2
Fore
SplineSet
106 77 m 1,0,-1
 115 163 l 1,1,-1
 115 512 l 2,2,3
 115 551 115 551 106 623 c 1,4,-1
 41 635 l 1,5,-1
 46 710 l 1,6,7
 99 705 99 705 146 705 c 1,8,-1
 340 710 l 1,9,-1
 345 629 l 1,10,-1
 279 623 l 1,11,12
 274 598 274 598 271 566 c 1,13,14
 339 570 339 570 360 570 c 0,15,16
 467 570 467 570 531.5 513.5 c 128,-1,17
 596 457 596 457 596 358.5 c 128,-1,18
 596 260 596 260 524 203 c 128,-1,19
 452 146 452 146 346 146 c 2,20,-1
 272 146 l 1,21,-1
 279 77 l 1,22,-1
 344 71 l 1,23,-1
 339 -5 l 1,24,25
 258 0 258 0 145 0 c 1,26,-1
 45 -5 l 1,27,-1
 40 65 l 1,28,-1
 106 77 l 1,0,-1
270 228 m 1,29,-1
 287 228 l 2,30,31
 356 228 356 228 395.5 261.5 c 128,-1,32
 435 295 435 295 435 360 c 128,-1,33
 435 425 435 425 403 456.5 c 128,-1,34
 371 488 371 488 302 488 c 0,35,36
 284 488 284 488 270 487 c 1,37,-1
 270 228 l 1,29,-1
EndSplineSet
Position2: "'cpsp' Capital Spacing in Latin lookup 0 subtable" dx=9 dy=0 dh=18 dv=0
EndChar

StartChar: germandbls
Encoding: 223 223 159
Width: 620
GlyphClass: 2
Flags: W
LayerCount: 2
Fore
SplineSet
40 482 m 1,0,-1
 100 501 l 1,1,-1
 100 580 l 1,2,3
 101 770 101 770 332 770 c 0,4,5
 547 770 547 770 547 613 c 0,6,7
 547 538 547 538 497 488 c 0,8,9
 476 467 476 467 456 449 c 0,10,11
 406 406 406 406 406 375 c 0,12,13
 406 355 406 355 427 339.5 c 128,-1,14
 448 324 448 324 478 310.5 c 128,-1,15
 508 297 508 297 538 280 c 128,-1,16
 568 263 568 263 589 230 c 128,-1,17
 610 197 610 197 610 151 c 0,18,19
 610 75 610 75 564.5 32.5 c 128,-1,20
 519 -10 519 -10 442 -10 c 0,21,22
 390 -10 390 -10 312 8 c 1,23,-1
 288 13 l 1,24,-1
 300 178 l 1,25,-1
 370 173 l 1,26,-1
 370 128 l 1,27,-1
 376 90 l 1,28,29
 414 68 414 68 437.5 68 c 128,-1,30
 461 68 461 68 474 80 c 128,-1,31
 487 92 487 92 487 115.5 c 128,-1,32
 487 139 487 139 466.5 158.5 c 128,-1,33
 446 178 446 178 417 192 c 128,-1,34
 388 206 388 206 359.5 223.5 c 128,-1,35
 331 241 331 241 310.5 272.5 c 128,-1,36
 290 304 290 304 290 345 c 128,-1,37
 290 386 290 386 305 416 c 128,-1,38
 320 446 320 446 341 466.5 c 128,-1,39
 362 487 362 487 383 506 c 0,40,41
 434 552 434 552 434 609 c 0,42,43
 434 648 434 648 405.5 667 c 128,-1,44
 377 686 377 686 326.5 686 c 128,-1,45
 276 686 276 686 258 652.5 c 128,-1,46
 240 619 240 619 240 546 c 2,47,-1
 240 193 l 2,48,49
 240 163 240 163 244 82 c 2,50,-1
 249 0 l 1,51,-1
 171 0 l 1,52,-1
 40 -5 l 1,53,-1
 35 65 l 1,54,-1
 91 77 l 1,55,56
 100 149 100 149 100 163 c 2,57,-1
 100 419 l 1,58,-1
 43 419 l 1,59,-1
 40 482 l 1,0,-1
EndSplineSet
Substitution2: "'case' Case-Sensitive Forms in Latin lookup 3 subtable" uni1E9E
EndChar

StartChar: agrave
Encoding: 224 224 160
Width: 523
GlyphClass: 2
Flags: W
LayerCount: 2
Fore
SplineSet
175 -10 m 0,0,1
 107 -10 107 -10 67.5 28 c 128,-1,2
 28 66 28 66 28 132 c 0,3,4
 28 249 28 249 160 270 c 2,5,-1
 302 293 l 1,6,-1
 302 322 l 2,7,8
 302 371 302 371 285 391.5 c 128,-1,9
 268 412 268 412 227 412 c 128,-1,10
 186 412 186 412 146 393 c 1,11,-1
 139 353 l 1,12,-1
 140 310 l 1,13,-1
 65 307 l 1,14,-1
 50 476 l 1,15,16
 158 503 158 503 233 503 c 0,17,18
 332 503 332 503 387 455.5 c 128,-1,19
 442 408 442 408 442 323 c 2,20,-1
 442 193 l 2,21,22
 442 142 442 142 448 95 c 1,23,-1
 451 77 l 1,24,-1
 511 71 l 1,25,-1
 505 -5 l 1,26,27
 456 0 456 0 321 0 c 1,28,-1
 313 72 l 1,29,30
 268 -10 268 -10 175 -10 c 0,0,1
176 154 m 0,31,32
 176 93 176 93 230 93 c 0,33,34
 256 93 256 93 275 110 c 128,-1,35
 294 127 294 127 302 157 c 1,36,-1
 302 228 l 1,37,-1
 228 216 l 2,38,39
 200 211 200 211 188 196.5 c 128,-1,40
 176 182 176 182 176 154 c 0,31,32
349 623 m 1,41,-1
 302 565 l 1,42,-1
 235 614 l 1,43,-1
 95 679 l 1,44,-1
 142 755 l 1,45,-1
 349 623 l 1,41,-1
EndSplineSet
Substitution2: "'case' Case-Sensitive Forms in Latin lookup 3 subtable" Agrave
EndChar

StartChar: aacute
Encoding: 225 225 161
Width: 523
GlyphClass: 2
Flags: W
LayerCount: 2
Fore
SplineSet
175 -10 m 0,0,1
 107 -10 107 -10 67.5 28 c 128,-1,2
 28 66 28 66 28 132 c 0,3,4
 28 249 28 249 160 270 c 2,5,-1
 302 293 l 1,6,-1
 302 322 l 2,7,8
 302 371 302 371 285 391.5 c 128,-1,9
 268 412 268 412 227 412 c 128,-1,10
 186 412 186 412 146 393 c 1,11,-1
 139 353 l 1,12,-1
 140 310 l 1,13,-1
 65 307 l 1,14,-1
 50 476 l 1,15,16
 158 503 158 503 233 503 c 0,17,18
 332 503 332 503 387 455.5 c 128,-1,19
 442 408 442 408 442 323 c 2,20,-1
 442 193 l 2,21,22
 442 142 442 142 448 95 c 1,23,-1
 451 77 l 1,24,-1
 511 71 l 1,25,-1
 505 -5 l 1,26,27
 456 0 456 0 321 0 c 1,28,-1
 313 72 l 1,29,30
 268 -10 268 -10 175 -10 c 0,0,1
176 154 m 0,31,32
 176 93 176 93 230 93 c 0,33,34
 256 93 256 93 275 110 c 128,-1,35
 294 127 294 127 302 157 c 1,36,-1
 302 228 l 1,37,-1
 228 216 l 2,38,39
 200 211 200 211 188 196.5 c 128,-1,40
 176 182 176 182 176 154 c 0,31,32
342 755 m 1,41,-1
 389 679 l 1,42,43
 267 623 267 623 249 614 c 1,44,-1
 182 565 l 1,45,-1
 135 623 l 1,46,-1
 342 755 l 1,41,-1
EndSplineSet
Substitution2: "'case' Case-Sensitive Forms in Latin lookup 3 subtable" Aacute
EndChar

StartChar: acircumflex
Encoding: 226 226 162
Width: 523
GlyphClass: 2
Flags: W
LayerCount: 2
Fore
SplineSet
175 -10 m 0,0,1
 107 -10 107 -10 67.5 28 c 128,-1,2
 28 66 28 66 28 132 c 0,3,4
 28 249 28 249 160 270 c 2,5,-1
 302 293 l 1,6,-1
 302 322 l 2,7,8
 302 371 302 371 285 391.5 c 128,-1,9
 268 412 268 412 227 412 c 128,-1,10
 186 412 186 412 146 393 c 1,11,-1
 139 353 l 1,12,-1
 140 310 l 1,13,-1
 65 307 l 1,14,-1
 50 476 l 1,15,16
 158 503 158 503 233 503 c 0,17,18
 332 503 332 503 387 455.5 c 128,-1,19
 442 408 442 408 442 323 c 2,20,-1
 442 193 l 2,21,22
 442 142 442 142 448 95 c 1,23,-1
 451 77 l 1,24,-1
 511 71 l 1,25,-1
 505 -5 l 1,26,27
 456 0 456 0 321 0 c 1,28,-1
 313 72 l 1,29,30
 268 -10 268 -10 175 -10 c 0,0,1
242 765 m 1,31,-1
 440 622 l 1,32,-1
 393 564 l 1,33,-1
 326 617 l 1,34,35
 286 637 286 637 242 661 c 1,36,-1
 158 617 l 1,37,-1
 91 564 l 1,38,-1
 44 622 l 1,39,-1
 242 765 l 1,31,-1
176 154 m 0,40,41
 176 93 176 93 230 93 c 0,42,43
 256 93 256 93 275 110 c 128,-1,44
 294 127 294 127 302 157 c 1,45,-1
 302 228 l 1,46,-1
 228 216 l 2,47,48
 200 211 200 211 188 196.5 c 128,-1,49
 176 182 176 182 176 154 c 0,40,41
EndSplineSet
Substitution2: "'case' Case-Sensitive Forms in Latin lookup 3 subtable" Acircumflex
EndChar

StartChar: atilde
Encoding: 227 227 163
Width: 523
GlyphClass: 2
Flags: W
LayerCount: 2
Fore
SplineSet
175 -10 m 0,0,1
 107 -10 107 -10 67.5 28 c 128,-1,2
 28 66 28 66 28 132 c 0,3,4
 28 249 28 249 160 270 c 2,5,-1
 302 293 l 1,6,-1
 302 322 l 2,7,8
 302 371 302 371 285 391.5 c 128,-1,9
 268 412 268 412 227 412 c 128,-1,10
 186 412 186 412 146 393 c 1,11,-1
 139 353 l 1,12,-1
 140 310 l 1,13,-1
 65 307 l 1,14,-1
 50 476 l 1,15,16
 158 503 158 503 233 503 c 0,17,18
 332 503 332 503 387 455.5 c 128,-1,19
 442 408 442 408 442 323 c 2,20,-1
 442 193 l 2,21,22
 442 142 442 142 448 95 c 1,23,-1
 451 77 l 1,24,-1
 511 71 l 1,25,-1
 505 -5 l 1,26,27
 456 0 456 0 321 0 c 1,28,-1
 313 72 l 1,29,30
 268 -10 268 -10 175 -10 c 0,0,1
176 154 m 0,31,32
 176 93 176 93 230 93 c 0,33,34
 256 93 256 93 275 110 c 128,-1,35
 294 127 294 127 302 157 c 1,36,-1
 302 228 l 1,37,-1
 228 216 l 2,38,39
 200 211 200 211 188 196.5 c 128,-1,40
 176 182 176 182 176 154 c 0,31,32
376.5 622 m 128,-1,42
 353 594 353 594 332.5 594 c 128,-1,43
 312 594 312 594 251 613 c 128,-1,44
 190 632 190 632 174 632 c 0,45,46
 148 632 148 632 127 600 c 1,47,-1
 120 590 l 1,48,-1
 73 618 l 1,49,50
 89 656 89 656 116 689.5 c 128,-1,51
 143 723 143 723 163 723 c 128,-1,52
 183 723 183 723 244.5 704 c 128,-1,53
 306 685 306 685 322 685 c 0,54,55
 349 685 349 685 367 714 c 1,56,-1
 373 723 l 1,57,-1
 422 695 l 1,58,59
 417 684 417 684 408.5 667 c 128,-1,41
 400 650 400 650 376.5 622 c 128,-1,42
EndSplineSet
Substitution2: "'case' Case-Sensitive Forms in Latin lookup 3 subtable" Atilde
EndChar

StartChar: adieresis
Encoding: 228 228 164
Width: 523
GlyphClass: 2
Flags: W
LayerCount: 2
Fore
SplineSet
175 -10 m 0,0,1
 107 -10 107 -10 67.5 28 c 128,-1,2
 28 66 28 66 28 132 c 0,3,4
 28 249 28 249 160 270 c 2,5,-1
 302 293 l 1,6,-1
 302 322 l 2,7,8
 302 371 302 371 285 391.5 c 128,-1,9
 268 412 268 412 227 412 c 128,-1,10
 186 412 186 412 146 393 c 1,11,-1
 139 353 l 1,12,-1
 140 310 l 1,13,-1
 65 307 l 1,14,-1
 50 476 l 1,15,16
 158 503 158 503 233 503 c 0,17,18
 332 503 332 503 387 455.5 c 128,-1,19
 442 408 442 408 442 323 c 2,20,-1
 442 193 l 2,21,22
 442 142 442 142 448 95 c 1,23,-1
 451 77 l 1,24,-1
 511 71 l 1,25,-1
 505 -5 l 1,26,27
 456 0 456 0 321 0 c 1,28,-1
 313 72 l 1,29,30
 268 -10 268 -10 175 -10 c 0,0,1
176 154 m 0,31,32
 176 93 176 93 230 93 c 0,33,34
 256 93 256 93 275 110 c 128,-1,35
 294 127 294 127 302 157 c 1,36,-1
 302 228 l 1,37,-1
 228 216 l 2,38,39
 200 211 200 211 188 196.5 c 128,-1,40
 176 182 176 182 176 154 c 0,31,32
124 725 m 128,-1,42
 156 725 156 725 173.5 706.5 c 128,-1,43
 191 688 191 688 191 655.5 c 128,-1,44
 191 623 191 623 173.5 604.5 c 128,-1,45
 156 586 156 586 124 586 c 128,-1,46
 92 586 92 586 74 605 c 128,-1,47
 56 624 56 624 56 655.5 c 128,-1,48
 56 687 56 687 74 706 c 128,-1,41
 92 725 92 725 124 725 c 128,-1,42
361 725 m 128,-1,50
 393 725 393 725 410.5 706.5 c 128,-1,51
 428 688 428 688 428 655.5 c 128,-1,52
 428 623 428 623 410.5 604.5 c 128,-1,53
 393 586 393 586 361 586 c 128,-1,54
 329 586 329 586 311.5 604.5 c 128,-1,55
 294 623 294 623 294 655 c 128,-1,56
 294 687 294 687 311.5 706 c 128,-1,49
 329 725 329 725 361 725 c 128,-1,50
EndSplineSet
Substitution2: "'case' Case-Sensitive Forms in Latin lookup 3 subtable" Adieresis
EndChar

StartChar: aring
Encoding: 229 229 165
Width: 523
GlyphClass: 2
Flags: W
LayerCount: 2
Fore
SplineSet
175 -10 m 0,0,1
 107 -10 107 -10 67.5 28 c 128,-1,2
 28 66 28 66 28 132 c 0,3,4
 28 249 28 249 160 270 c 2,5,-1
 302 293 l 1,6,-1
 302 322 l 2,7,8
 302 371 302 371 285 391.5 c 128,-1,9
 268 412 268 412 227 412 c 128,-1,10
 186 412 186 412 146 393 c 1,11,-1
 139 353 l 1,12,-1
 140 310 l 1,13,-1
 65 307 l 1,14,-1
 50 476 l 1,15,16
 158 503 158 503 233 503 c 0,17,18
 332 503 332 503 387 455.5 c 128,-1,19
 442 408 442 408 442 323 c 2,20,-1
 442 193 l 2,21,22
 442 142 442 142 448 95 c 1,23,-1
 451 77 l 1,24,-1
 511 71 l 1,25,-1
 505 -5 l 1,26,27
 456 0 456 0 321 0 c 1,28,-1
 313 72 l 1,29,30
 268 -10 268 -10 175 -10 c 0,0,1
176 154 m 0,31,32
 176 93 176 93 230 93 c 0,33,34
 256 93 256 93 275 110 c 128,-1,35
 294 127 294 127 302 157 c 1,36,-1
 302 228 l 1,37,-1
 228 216 l 2,38,39
 200 211 200 211 188 196.5 c 128,-1,40
 176 182 176 182 176 154 c 0,31,32
242 761 m 128,-1,42
 290 761 290 761 315.5 735.5 c 128,-1,43
 341 710 341 710 341 665.5 c 128,-1,44
 341 621 341 621 315.5 595.5 c 128,-1,45
 290 570 290 570 242 570 c 128,-1,46
 194 570 194 570 168 595.5 c 128,-1,47
 142 621 142 621 142 665.5 c 128,-1,48
 142 710 142 710 168 735.5 c 128,-1,41
 194 761 194 761 242 761 c 128,-1,42
242.5 703 m 128,-1,50
 211 703 211 703 211 665.5 c 128,-1,51
 211 628 211 628 242.5 628 c 128,-1,52
 274 628 274 628 274 665.5 c 128,-1,49
 274 703 274 703 242.5 703 c 128,-1,50
EndSplineSet
Substitution2: "'case' Case-Sensitive Forms in Latin lookup 3 subtable" Aring
EndChar

StartChar: ae
Encoding: 230 230 166
Width: 727
GlyphClass: 2
Flags: W
LayerCount: 2
Fore
SplineSet
41 476 m 1,0,1
 147 503 147 503 232.5 503 c 128,-1,2
 318 503 318 503 372 461 c 1,3,4
 429 503 429 503 522 503 c 128,-1,5
 615 503 615 503 670.5 444 c 128,-1,6
 726 385 726 385 726 279 c 1,7,-1
 705 240 l 1,8,-1
 435 224 l 1,9,10
 440 147 440 147 468.5 114 c 128,-1,11
 497 81 497 81 561 81 c 0,12,13
 593 81 593 81 623.5 89.5 c 128,-1,14
 654 98 654 98 668 106 c 2,15,-1
 682 114 l 1,16,-1
 717 56 l 1,17,18
 638 -15 638 -15 521 -15 c 128,-1,19
 404 -15 404 -15 345 77 c 1,20,21
 312 31 312 31 272 10.5 c 128,-1,22
 232 -10 232 -10 169 -10 c 128,-1,23
 106 -10 106 -10 62.5 29 c 128,-1,24
 19 68 19 68 19 130.5 c 128,-1,25
 19 193 19 193 52.5 228.5 c 128,-1,26
 86 264 86 264 151 270 c 2,27,-1
 293 284 l 1,28,-1
 293 323 l 2,29,30
 293 422 293 422 218 422 c 0,31,32
 181 422 181 422 134 400 c 1,33,-1
 131 361 l 1,34,-1
 131 312 l 1,35,-1
 56 309 l 1,36,-1
 41 476 l 1,0,1
167 152 m 0,37,38
 167 93 167 93 221 93 c 0,39,40
 293 93 293 93 293 182 c 2,41,-1
 293 214 l 1,42,-1
 219 207 l 1,43,44
 190 203 190 203 178.5 191 c 128,-1,45
 167 179 167 179 167 152 c 0,37,38
506 424 m 0,46,47
 441 424 441 424 436 294 c 1,48,-1
 568 303 l 1,49,-1
 569 311 l 1,50,51
 569 424 569 424 506 424 c 0,46,47
EndSplineSet
Substitution2: "'case' Case-Sensitive Forms in Latin lookup 3 subtable" AE
EndChar

StartChar: ccedilla
Encoding: 231 231 167
Width: 466
GlyphClass: 2
Flags: W
LayerCount: 2
Fore
SplineSet
270 503 m 0,0,1
 349 503 349 503 422 485 c 2,2,-1
 447 479 l 1,3,-1
 432 302 l 1,4,-1
 347 305 l 1,5,-1
 348 359 l 1,6,7
 346 385 346 385 344 398 c 1,8,9
 315 424 315 424 279 424 c 0,10,11
 230 424 230 424 207 380.5 c 128,-1,12
 184 337 184 337 184 245 c 0,13,14
 184 82 184 82 304 82 c 0,15,16
 335 82 335 82 364 90 c 128,-1,17
 393 98 393 98 407 106 c 2,18,-1
 421 114 l 1,19,-1
 456 56 l 1,20,21
 385 -8 385 -8 293 -14 c 1,22,-1
 284 -59 l 1,23,24
 329 -60 329 -60 357 -83 c 128,-1,25
 385 -106 385 -106 385 -148.5 c 128,-1,26
 385 -191 385 -191 353.5 -213 c 128,-1,27
 322 -235 322 -235 267.5 -235 c 128,-1,28
 213 -235 213 -235 175 -217 c 1,29,-1
 193 -168 l 1,30,31
 228 -179 228 -179 248 -179 c 0,32,33
 295 -179 295 -179 295 -146 c 0,34,35
 295 -115 295 -115 253 -115 c 1,36,-1
 232 -116 l 1,37,-1
 221 -102 l 1,38,-1
 230 -12 l 1,39,40
 129 -1 129 -1 77 64.5 c 128,-1,41
 25 130 25 130 25 247.5 c 128,-1,42
 25 365 25 365 90.5 434 c 128,-1,43
 156 503 156 503 270 503 c 0,0,1
EndSplineSet
Substitution2: "'case' Case-Sensitive Forms in Latin lookup 3 subtable" Ccedilla
EndChar

StartChar: egrave
Encoding: 232 232 168
Width: 501
GlyphClass: 2
Flags: W
LayerCount: 2
Fore
SplineSet
90.5 434.5 m 128,-1,1
 156 503 156 503 264 503 c 128,-1,2
 372 503 372 503 424 442 c 128,-1,3
 476 381 476 381 476 285 c 0,4,5
 476 273 476 273 475 260 c 1,6,-1
 454 221 l 1,7,-1
 185 221 l 1,8,9
 190 145 190 145 220 113 c 128,-1,10
 250 81 250 81 310 81 c 0,11,12
 342 81 342 81 372.5 89.5 c 128,-1,13
 403 98 403 98 417 106 c 2,14,-1
 431 114 l 1,15,-1
 466 56 l 1,16,17
 387 -15 387 -15 271 -15 c 128,-1,18
 155 -15 155 -15 90 52.5 c 128,-1,19
 25 120 25 120 25 243 c 128,-1,0
 25 366 25 366 90.5 434.5 c 128,-1,1
368 623 m 1,20,-1
 321 565 l 1,21,-1
 254 614 l 1,22,-1
 114 679 l 1,23,-1
 161 755 l 1,24,-1
 368 623 l 1,20,-1
255 424 m 0,25,26
 219 424 219 424 203 390.5 c 128,-1,27
 187 357 187 357 184 294 c 1,28,-1
 317 302 l 1,29,30
 318 308 318 308 318 310 c 0,31,32
 318 424 318 424 255 424 c 0,25,26
EndSplineSet
Substitution2: "'case' Case-Sensitive Forms in Latin lookup 3 subtable" Egrave
EndChar

StartChar: eacute
Encoding: 233 233 169
Width: 501
GlyphClass: 2
Flags: W
LayerCount: 2
Fore
SplineSet
90.5 434.5 m 128,-1,1
 156 503 156 503 264 503 c 128,-1,2
 372 503 372 503 424 442 c 128,-1,3
 476 381 476 381 476 285 c 0,4,5
 476 273 476 273 475 260 c 1,6,-1
 454 221 l 1,7,-1
 185 221 l 1,8,9
 190 145 190 145 220 113 c 128,-1,10
 250 81 250 81 310 81 c 0,11,12
 342 81 342 81 372.5 89.5 c 128,-1,13
 403 98 403 98 417 106 c 2,14,-1
 431 114 l 1,15,-1
 466 56 l 1,16,17
 387 -15 387 -15 271 -15 c 128,-1,18
 155 -15 155 -15 90 52.5 c 128,-1,19
 25 120 25 120 25 243 c 128,-1,0
 25 366 25 366 90.5 434.5 c 128,-1,1
361 755 m 1,20,-1
 408 679 l 1,21,22
 286 623 286 623 268 614 c 1,23,-1
 201 565 l 1,24,-1
 154 623 l 1,25,-1
 361 755 l 1,20,-1
255 424 m 0,26,27
 219 424 219 424 203 390.5 c 128,-1,28
 187 357 187 357 184 294 c 1,29,-1
 317 302 l 1,30,31
 318 308 318 308 318 310 c 0,32,33
 318 424 318 424 255 424 c 0,26,27
EndSplineSet
Substitution2: "'case' Case-Sensitive Forms in Latin lookup 3 subtable" Eacute
EndChar

StartChar: ecircumflex
Encoding: 234 234 170
Width: 501
GlyphClass: 2
Flags: W
LayerCount: 2
Fore
SplineSet
90.5 434.5 m 128,-1,1
 156 503 156 503 264 503 c 128,-1,2
 372 503 372 503 424 442 c 128,-1,3
 476 381 476 381 476 285 c 0,4,5
 476 273 476 273 475 260 c 1,6,-1
 454 221 l 1,7,-1
 185 221 l 1,8,9
 190 145 190 145 220 113 c 128,-1,10
 250 81 250 81 310 81 c 0,11,12
 342 81 342 81 372.5 89.5 c 128,-1,13
 403 98 403 98 417 106 c 2,14,-1
 431 114 l 1,15,-1
 466 56 l 1,16,17
 387 -15 387 -15 271 -15 c 128,-1,18
 155 -15 155 -15 90 52.5 c 128,-1,19
 25 120 25 120 25 243 c 128,-1,0
 25 366 25 366 90.5 434.5 c 128,-1,1
261 765 m 1,20,-1
 459 622 l 1,21,-1
 412 564 l 1,22,-1
 345 617 l 1,23,24
 305 637 305 637 261 661 c 1,25,-1
 177 617 l 1,26,-1
 110 564 l 1,27,-1
 63 622 l 1,28,-1
 261 765 l 1,20,-1
255 424 m 0,29,30
 219 424 219 424 203 390.5 c 128,-1,31
 187 357 187 357 184 294 c 1,32,-1
 317 302 l 1,33,34
 318 308 318 308 318 310 c 0,35,36
 318 424 318 424 255 424 c 0,29,30
EndSplineSet
Substitution2: "'case' Case-Sensitive Forms in Latin lookup 3 subtable" Ecircumflex
EndChar

StartChar: edieresis
Encoding: 235 235 171
Width: 501
GlyphClass: 2
Flags: W
LayerCount: 2
Fore
SplineSet
90.5 434.5 m 128,-1,1
 156 503 156 503 264 503 c 128,-1,2
 372 503 372 503 424 442 c 128,-1,3
 476 381 476 381 476 285 c 0,4,5
 476 273 476 273 475 260 c 1,6,-1
 454 221 l 1,7,-1
 185 221 l 1,8,9
 190 145 190 145 220 113 c 128,-1,10
 250 81 250 81 310 81 c 0,11,12
 342 81 342 81 372.5 89.5 c 128,-1,13
 403 98 403 98 417 106 c 2,14,-1
 431 114 l 1,15,-1
 466 56 l 1,16,17
 387 -15 387 -15 271 -15 c 128,-1,18
 155 -15 155 -15 90 52.5 c 128,-1,19
 25 120 25 120 25 243 c 128,-1,0
 25 366 25 366 90.5 434.5 c 128,-1,1
143 725 m 128,-1,21
 175 725 175 725 192.5 706.5 c 128,-1,22
 210 688 210 688 210 655.5 c 128,-1,23
 210 623 210 623 192.5 604.5 c 128,-1,24
 175 586 175 586 143 586 c 128,-1,25
 111 586 111 586 93 605 c 128,-1,26
 75 624 75 624 75 655.5 c 128,-1,27
 75 687 75 687 93 706 c 128,-1,20
 111 725 111 725 143 725 c 128,-1,21
380 725 m 128,-1,29
 412 725 412 725 429.5 706.5 c 128,-1,30
 447 688 447 688 447 655.5 c 128,-1,31
 447 623 447 623 429.5 604.5 c 128,-1,32
 412 586 412 586 380 586 c 128,-1,33
 348 586 348 586 330.5 604.5 c 128,-1,34
 313 623 313 623 313 655 c 128,-1,35
 313 687 313 687 330.5 706 c 128,-1,28
 348 725 348 725 380 725 c 128,-1,29
255 424 m 0,36,37
 219 424 219 424 203 390.5 c 128,-1,38
 187 357 187 357 184 294 c 1,39,-1
 317 302 l 1,40,41
 318 308 318 308 318 310 c 0,42,43
 318 424 318 424 255 424 c 0,36,37
EndSplineSet
Substitution2: "'case' Case-Sensitive Forms in Latin lookup 3 subtable" Edieresis
EndChar

StartChar: igrave
Encoding: 236 236 172
Width: 336
GlyphClass: 2
Flags: W
LayerCount: 2
Fore
SplineSet
105 163 m 2,0,-1
 105 325 l 1,1,-1
 95 412 l 1,2,-1
 20 429 l 1,3,-1
 29 503 l 1,4,5
 104 494 104 494 146 494 c 2,6,-1
 234 496 l 1,7,-1
 255 477 l 1,8,9
 245 345 245 345 245 295 c 2,10,-1
 245 193 l 2,11,12
 245 158 245 158 252 95 c 2,13,-1
 254 77 l 1,14,-1
 319 71 l 1,15,-1
 314 -5 l 1,16,17
 248 0 248 0 135 0 c 1,18,-1
 35 -5 l 1,19,-1
 30 65 l 1,20,-1
 96 77 l 1,21,22
 105 143 105 143 105 163 c 2,0,-1
275 623 m 1,23,-1
 228 565 l 1,24,-1
 161 614 l 1,25,-1
 21 679 l 1,26,-1
 68 755 l 1,27,-1
 275 623 l 1,23,-1
EndSplineSet
Substitution2: "'case' Case-Sensitive Forms in Latin lookup 3 subtable" Igrave
EndChar

StartChar: iacute
Encoding: 237 237 173
Width: 336
GlyphClass: 2
Flags: W
LayerCount: 2
Fore
SplineSet
105 163 m 2,0,-1
 105 325 l 1,1,-1
 95 412 l 1,2,-1
 20 429 l 1,3,-1
 29 503 l 1,4,5
 104 494 104 494 146 494 c 2,6,-1
 234 496 l 1,7,-1
 255 477 l 1,8,9
 245 345 245 345 245 295 c 2,10,-1
 245 193 l 2,11,12
 245 158 245 158 252 95 c 2,13,-1
 254 77 l 1,14,-1
 319 71 l 1,15,-1
 314 -5 l 1,16,17
 248 0 248 0 135 0 c 1,18,-1
 35 -5 l 1,19,-1
 30 65 l 1,20,-1
 96 77 l 1,21,22
 105 143 105 143 105 163 c 2,0,-1
268 755 m 1,23,-1
 315 679 l 1,24,25
 193 623 193 623 175 614 c 1,26,-1
 108 565 l 1,27,-1
 61 623 l 1,28,-1
 268 755 l 1,23,-1
EndSplineSet
Substitution2: "'case' Case-Sensitive Forms in Latin lookup 3 subtable" Iacute
EndChar

StartChar: icircumflex
Encoding: 238 238 174
Width: 336
GlyphClass: 2
Flags: W
LayerCount: 2
Fore
SplineSet
115 163 m 2,0,-1
 115 325 l 1,1,-1
 105 412 l 1,2,-1
 30 429 l 1,3,-1
 39 503 l 1,4,5
 114 494 114 494 156 494 c 2,6,-1
 244 496 l 1,7,-1
 265 477 l 1,8,9
 255 345 255 345 255 295 c 2,10,-1
 255 193 l 2,11,12
 255 158 255 158 262 95 c 2,13,-1
 264 77 l 1,14,-1
 329 71 l 1,15,-1
 324 -5 l 1,16,17
 258 0 258 0 145 0 c 1,18,-1
 45 -5 l 1,19,-1
 40 65 l 1,20,-1
 106 77 l 1,21,22
 115 143 115 143 115 163 c 2,0,-1
168 765 m 1,23,-1
 366 622 l 1,24,-1
 319 564 l 1,25,-1
 252 617 l 1,26,27
 212 637 212 637 168 661 c 1,28,-1
 84 617 l 1,29,-1
 17 564 l 1,30,-1
 -30 622 l 1,31,-1
 168 765 l 1,23,-1
EndSplineSet
Substitution2: "'case' Case-Sensitive Forms in Latin lookup 3 subtable" Icircumflex
EndChar

StartChar: idieresis
Encoding: 239 239 175
Width: 336
GlyphClass: 3
Flags: W
LayerCount: 2
Fore
SplineSet
105 163 m 2,0,-1
 105 325 l 1,1,-1
 95 412 l 1,2,-1
 20 429 l 1,3,-1
 29 503 l 1,4,5
 104 494 104 494 146 494 c 2,6,-1
 234 496 l 1,7,-1
 255 477 l 1,8,9
 245 345 245 345 245 295 c 2,10,-1
 245 193 l 2,11,12
 245 158 245 158 252 95 c 2,13,-1
 254 77 l 1,14,-1
 319 71 l 1,15,-1
 314 -5 l 1,16,17
 248 0 248 0 135 0 c 1,18,-1
 35 -5 l 1,19,-1
 30 65 l 1,20,-1
 96 77 l 1,21,22
 105 143 105 143 105 163 c 2,0,-1
67 725 m 128,-1,24
 98 725 98 725 115 706.5 c 128,-1,25
 132 688 132 688 132 655.5 c 128,-1,26
 132 623 132 623 115 604.5 c 128,-1,27
 98 586 98 586 67 586 c 128,-1,28
 36 586 36 586 19 605 c 128,-1,29
 2 624 2 624 2 655.5 c 128,-1,30
 2 687 2 687 19 706 c 128,-1,23
 36 725 36 725 67 725 c 128,-1,24
241 725 m 128,-1,32
 272 725 272 725 289 706.5 c 128,-1,33
 306 688 306 688 306 655.5 c 128,-1,34
 306 623 306 623 289 604.5 c 128,-1,35
 272 586 272 586 241 586 c 128,-1,36
 210 586 210 586 193.5 604.5 c 128,-1,37
 177 623 177 623 177 655 c 128,-1,38
 177 687 177 687 193.5 706 c 128,-1,31
 210 725 210 725 241 725 c 128,-1,32
EndSplineSet
Ligature2: "'liga' Standard Ligatures in Latin lookup 16 subtable" dieresis i
Substitution2: "'case' Case-Sensitive Forms in Latin lookup 3 subtable" Idieresis
EndChar

StartChar: eth
Encoding: 240 240 176
Width: 516
GlyphClass: 2
Flags: W
LayerCount: 2
Fore
SplineSet
521 252 m 0,0,1
 521 129 521 129 454.5 57 c 128,-1,2
 388 -15 388 -15 268.5 -15 c 128,-1,3
 149 -15 149 -15 85 53.5 c 128,-1,4
 21 122 21 122 21 236.5 c 128,-1,5
 21 351 21 351 80.5 417 c 128,-1,6
 140 483 140 483 238 483 c 0,7,8
 290 483 290 483 320 460 c 1,9,-1
 308 390 l 1,10,11
 284 396 284 396 268 396 c 0,12,13
 181 396 181 396 181 236.5 c 128,-1,14
 181 77 181 77 268 77 c 0,15,16
 362 77 362 77 362 278.5 c 128,-1,17
 362 480 362 480 290 593 c 1,18,-1
 186 540 l 1,19,-1
 154 595 l 1,20,-1
 249 645 l 1,21,22
 214 682 214 682 162 711 c 1,23,-1
 187 770 l 1,24,25
 268 744 268 744 334 688 c 1,26,-1
 441 744 l 1,27,-1
 473 687 l 1,28,-1
 383 641 l 1,29,30
 521 487 521 487 521 252 c 0,0,1
EndSplineSet
Substitution2: "'case' Case-Sensitive Forms in Latin lookup 3 subtable" Eth
EndChar

StartChar: ntilde
Encoding: 241 241 177
Width: 636
GlyphClass: 2
Flags: W
LayerCount: 2
Fore
SplineSet
388 503 m 0,0,1
 470 503 470 503 512.5 457.5 c 128,-1,2
 555 412 555 412 555 325 c 2,3,-1
 555 193 l 2,4,5
 555 158 555 158 562 95 c 2,6,-1
 564 77 l 1,7,-1
 629 71 l 1,8,-1
 624 -5 l 1,9,10
 558 0 558 0 445 0 c 1,11,-1
 359 -5 l 1,12,-1
 354 65 l 1,13,-1
 410 77 l 1,14,15
 411 91 411 91 412 112 c 128,-1,16
 413 133 413 133 414 146 c 128,-1,17
 415 159 415 159 415 163 c 2,18,-1
 415 311 l 2,19,20
 415 352 415 352 396.5 377.5 c 128,-1,21
 378 403 378 403 339.5 403 c 128,-1,22
 301 403 301 403 271.5 366 c 128,-1,23
 242 329 242 329 242 265 c 2,24,-1
 242 193 l 2,25,26
 242 142 242 142 248 95 c 1,27,-1
 251 77 l 1,28,-1
 316 71 l 1,29,-1
 311 -5 l 1,30,31
 245 0 245 0 132 0 c 1,32,-1
 32 -5 l 1,33,-1
 27 65 l 1,34,-1
 93 77 l 1,35,36
 102 143 102 143 102 163 c 2,37,-1
 102 325 l 1,38,-1
 92 412 l 1,39,-1
 17 429 l 1,40,-1
 26 503 l 1,41,42
 101 494 101 494 143 494 c 1,43,-1
 191 496 l 1,44,-1
 212 477 l 1,45,-1
 222 405 l 1,46,47
 288 503 288 503 388 503 c 0,0,1
463.5 622 m 128,-1,49
 440 594 440 594 420 594 c 128,-1,50
 400 594 400 594 339 613 c 128,-1,51
 278 632 278 632 262 632 c 0,52,53
 235 632 235 632 214 600 c 1,54,-1
 207 590 l 1,55,-1
 160 618 l 1,56,57
 176 656 176 656 203 689.5 c 128,-1,58
 230 723 230 723 250 723 c 128,-1,59
 270 723 270 723 331.5 704 c 128,-1,60
 393 685 393 685 409 685 c 0,61,62
 436 685 436 685 454 714 c 1,63,-1
 460 723 l 1,64,-1
 509 695 l 1,65,66
 504 684 504 684 495.5 667 c 128,-1,48
 487 650 487 650 463.5 622 c 128,-1,49
EndSplineSet
Substitution2: "'case' Case-Sensitive Forms in Latin lookup 3 subtable" Ntilde
EndChar

StartChar: ograve
Encoding: 242 242 178
Width: 544
GlyphClass: 2
Flags: W
LayerCount: 2
Fore
SplineSet
519 244 m 128,-1,1
 519 119 519 119 455 52 c 128,-1,2
 391 -15 391 -15 272 -15 c 128,-1,3
 153 -15 153 -15 89 52 c 128,-1,4
 25 119 25 119 25 244 c 128,-1,5
 25 369 25 369 89 436 c 128,-1,6
 153 503 153 503 272 503 c 128,-1,7
 391 503 391 503 455 436 c 128,-1,0
 519 369 519 369 519 244 c 128,-1,1
360 244 m 128,-1,9
 360 336 360 336 339.5 377 c 128,-1,10
 319 418 319 418 272 418 c 128,-1,11
 225 418 225 418 204.5 377 c 128,-1,12
 184 336 184 336 184 244 c 128,-1,13
 184 152 184 152 204.5 111 c 128,-1,14
 225 70 225 70 272 70 c 128,-1,15
 319 70 319 70 339.5 111 c 128,-1,8
 360 152 360 152 360 244 c 128,-1,9
379 623 m 1,16,-1
 332 565 l 1,17,-1
 265 614 l 1,18,-1
 125 679 l 1,19,-1
 172 755 l 1,20,-1
 379 623 l 1,16,-1
EndSplineSet
Substitution2: "'case' Case-Sensitive Forms in Latin lookup 3 subtable" Ograve
EndChar

StartChar: oacute
Encoding: 243 243 179
Width: 544
GlyphClass: 2
Flags: W
LayerCount: 2
Fore
SplineSet
519 244 m 128,-1,1
 519 119 519 119 455 52 c 128,-1,2
 391 -15 391 -15 272 -15 c 128,-1,3
 153 -15 153 -15 89 52 c 128,-1,4
 25 119 25 119 25 244 c 128,-1,5
 25 369 25 369 89 436 c 128,-1,6
 153 503 153 503 272 503 c 128,-1,7
 391 503 391 503 455 436 c 128,-1,0
 519 369 519 369 519 244 c 128,-1,1
360 244 m 128,-1,9
 360 336 360 336 339.5 377 c 128,-1,10
 319 418 319 418 272 418 c 128,-1,11
 225 418 225 418 204.5 377 c 128,-1,12
 184 336 184 336 184 244 c 128,-1,13
 184 152 184 152 204.5 111 c 128,-1,14
 225 70 225 70 272 70 c 128,-1,15
 319 70 319 70 339.5 111 c 128,-1,8
 360 152 360 152 360 244 c 128,-1,9
372 755 m 1,16,-1
 419 679 l 1,17,18
 297 623 297 623 279 614 c 1,19,-1
 212 565 l 1,20,-1
 165 623 l 1,21,-1
 372 755 l 1,16,-1
EndSplineSet
Substitution2: "'case' Case-Sensitive Forms in Latin lookup 3 subtable" Oacute
EndChar

StartChar: ocircumflex
Encoding: 244 244 180
Width: 544
GlyphClass: 2
Flags: W
LayerCount: 2
Fore
SplineSet
519 244 m 128,-1,1
 519 119 519 119 455 52 c 128,-1,2
 391 -15 391 -15 272 -15 c 128,-1,3
 153 -15 153 -15 89 52 c 128,-1,4
 25 119 25 119 25 244 c 128,-1,5
 25 369 25 369 89 436 c 128,-1,6
 153 503 153 503 272 503 c 128,-1,7
 391 503 391 503 455 436 c 128,-1,0
 519 369 519 369 519 244 c 128,-1,1
360 244 m 128,-1,9
 360 336 360 336 339.5 377 c 128,-1,10
 319 418 319 418 272 418 c 128,-1,11
 225 418 225 418 204.5 377 c 128,-1,12
 184 336 184 336 184 244 c 128,-1,13
 184 152 184 152 204.5 111 c 128,-1,14
 225 70 225 70 272 70 c 128,-1,15
 319 70 319 70 339.5 111 c 128,-1,8
 360 152 360 152 360 244 c 128,-1,9
272 765 m 1,16,-1
 470 622 l 1,17,-1
 423 564 l 1,18,-1
 356 617 l 1,19,20
 316 637 316 637 272 661 c 1,21,-1
 188 617 l 1,22,-1
 121 564 l 1,23,-1
 74 622 l 1,24,-1
 272 765 l 1,16,-1
EndSplineSet
Substitution2: "'case' Case-Sensitive Forms in Latin lookup 3 subtable" Ocircumflex
EndChar

StartChar: otilde
Encoding: 245 245 181
Width: 544
GlyphClass: 2
Flags: W
LayerCount: 2
Fore
SplineSet
519 244 m 128,-1,1
 519 119 519 119 455 52 c 128,-1,2
 391 -15 391 -15 272 -15 c 128,-1,3
 153 -15 153 -15 89 52 c 128,-1,4
 25 119 25 119 25 244 c 128,-1,5
 25 369 25 369 89 436 c 128,-1,6
 153 503 153 503 272 503 c 128,-1,7
 391 503 391 503 455 436 c 128,-1,0
 519 369 519 369 519 244 c 128,-1,1
360 244 m 128,-1,9
 360 336 360 336 339.5 377 c 128,-1,10
 319 418 319 418 272 418 c 128,-1,11
 225 418 225 418 204.5 377 c 128,-1,12
 184 336 184 336 184 244 c 128,-1,13
 184 152 184 152 204.5 111 c 128,-1,14
 225 70 225 70 272 70 c 128,-1,15
 319 70 319 70 339.5 111 c 128,-1,8
 360 152 360 152 360 244 c 128,-1,9
406.5 622 m 128,-1,17
 383 594 383 594 362.5 594 c 128,-1,18
 342 594 342 594 281 613 c 128,-1,19
 220 632 220 632 204 632 c 0,20,21
 178 632 178 632 157 600 c 1,22,-1
 150 590 l 1,23,-1
 103 618 l 1,24,25
 119 656 119 656 146 689.5 c 128,-1,26
 173 723 173 723 193 723 c 128,-1,27
 213 723 213 723 274.5 704 c 128,-1,28
 336 685 336 685 352 685 c 0,29,30
 379 685 379 685 397 714 c 1,31,-1
 403 723 l 1,32,-1
 452 695 l 1,33,34
 447 684 447 684 438.5 667 c 128,-1,16
 430 650 430 650 406.5 622 c 128,-1,17
EndSplineSet
Substitution2: "'case' Case-Sensitive Forms in Latin lookup 3 subtable" Otilde
EndChar

StartChar: odieresis
Encoding: 246 246 182
Width: 544
GlyphClass: 3
Flags: W
LayerCount: 2
Fore
SplineSet
519 244 m 128,-1,1
 519 119 519 119 455 52 c 128,-1,2
 391 -15 391 -15 272 -15 c 128,-1,3
 153 -15 153 -15 89 52 c 128,-1,4
 25 119 25 119 25 244 c 128,-1,5
 25 369 25 369 89 436 c 128,-1,6
 153 503 153 503 272 503 c 128,-1,7
 391 503 391 503 455 436 c 128,-1,0
 519 369 519 369 519 244 c 128,-1,1
360 244 m 128,-1,9
 360 336 360 336 339.5 377 c 128,-1,10
 319 418 319 418 272 418 c 128,-1,11
 225 418 225 418 204.5 377 c 128,-1,12
 184 336 184 336 184 244 c 128,-1,13
 184 152 184 152 204.5 111 c 128,-1,14
 225 70 225 70 272 70 c 128,-1,15
 319 70 319 70 339.5 111 c 128,-1,8
 360 152 360 152 360 244 c 128,-1,9
154 725 m 128,-1,17
 186 725 186 725 203.5 706.5 c 128,-1,18
 221 688 221 688 221 655.5 c 128,-1,19
 221 623 221 623 203.5 604.5 c 128,-1,20
 186 586 186 586 154 586 c 128,-1,21
 122 586 122 586 104 605 c 128,-1,22
 86 624 86 624 86 655.5 c 128,-1,23
 86 687 86 687 104 706 c 128,-1,16
 122 725 122 725 154 725 c 128,-1,17
391 725 m 128,-1,25
 423 725 423 725 440.5 706.5 c 128,-1,26
 458 688 458 688 458 655.5 c 128,-1,27
 458 623 458 623 440.5 604.5 c 128,-1,28
 423 586 423 586 391 586 c 128,-1,29
 359 586 359 586 341.5 604.5 c 128,-1,30
 324 623 324 623 324 655 c 128,-1,31
 324 687 324 687 341.5 706 c 128,-1,24
 359 725 359 725 391 725 c 128,-1,25
EndSplineSet
Ligature2: "'liga' Standard Ligatures in Latin lookup 16 subtable" dieresis o
Substitution2: "'case' Case-Sensitive Forms in Latin lookup 3 subtable" Odieresis
EndChar

StartChar: divide
Encoding: 247 247 183
Width: 591
GlyphClass: 2
Flags: W
LayerCount: 2
Fore
SplineSet
68 308 m 1,0,-1
 523 308 l 1,1,-1
 523 208 l 1,2,-1
 68 203 l 1,3,-1
 68 308 l 1,0,-1
295 516 m 128,-1,5
 330 516 330 516 349.5 494.5 c 128,-1,6
 369 473 369 473 369 436.5 c 128,-1,7
 369 400 369 400 349.5 378.5 c 128,-1,8
 330 357 330 357 295 357 c 128,-1,9
 260 357 260 357 240.5 378.5 c 128,-1,10
 221 400 221 400 221 436 c 128,-1,11
 221 472 221 472 240.5 494 c 128,-1,4
 260 516 260 516 295 516 c 128,-1,5
295 153 m 128,-1,13
 330 153 330 153 349.5 131.5 c 128,-1,14
 369 110 369 110 369 73.5 c 128,-1,15
 369 37 369 37 349.5 15.5 c 128,-1,16
 330 -6 330 -6 295 -6 c 128,-1,17
 260 -6 260 -6 240.5 15.5 c 128,-1,18
 221 37 221 37 221 73 c 128,-1,19
 221 109 221 109 240.5 131 c 128,-1,12
 260 153 260 153 295 153 c 128,-1,13
EndSplineSet
EndChar

StartChar: oslash
Encoding: 248 248 184
Width: 532
GlyphClass: 2
Flags: W
LayerCount: 2
Fore
SplineSet
513 244 m 0,0,1
 513 119 513 119 449 52 c 128,-1,2
 385 -15 385 -15 266 -15 c 0,3,4
 218 -15 218 -15 174 -2 c 1,5,-1
 123 -99 l 1,6,-1
 66 -70 l 1,7,-1
 116 24 l 1,8,9
 19 88 19 88 19 244 c 0,10,11
 19 369 19 369 83 436 c 128,-1,12
 147 503 147 503 266 503 c 0,13,14
 317 503 317 503 362 489 c 1,15,-1
 420 598 l 1,16,-1
 479 569 l 1,17,-1
 421 460 l 1,18,19
 513 394 513 394 513 244 c 0,0,1
198.5 377 m 128,-1,21
 178 336 178 336 178 262 c 128,-1,22
 178 188 178 188 185 154 c 1,23,-1
 315 401 l 1,24,25
 295 418 295 418 266 418 c 0,26,20
 219 418 219 418 198.5 377 c 128,-1,21
354 244 m 0,27,28
 354 287 354 287 349 324 c 1,29,-1
 220 84 l 1,30,31
 237 70 237 70 266 70 c 0,32,33
 313 70 313 70 333.5 111 c 128,-1,34
 354 152 354 152 354 244 c 0,27,28
EndSplineSet
Substitution2: "'case' Case-Sensitive Forms in Latin lookup 3 subtable" Oslash
EndChar

